<?xml version="1.0" encoding="UTF-8" standalone="no"?>
<!DOCTYPE svg PUBLIC "-//W3C//DTD SVG 1.1//EN" "http://www.w3.org/Graphics/SVG/1.1/DTD/svg11.dtd">
<svg width="100%" height="100%" viewBox="0 0 1024 768" version="1.1" xmlns="http://www.w3.org/2000/svg" xmlns:xlink="http://www.w3.org/1999/xlink" xml:space="preserve" xmlns:serif="http://www.serif.com/" style="fill-rule:evenodd;clip-rule:evenodd;stroke-linejoin:round;stroke-miterlimit:2;">
    <g transform="matrix(0.507011,0,0,0.507011,-19.729,-140.108)">
        <g>
            <g>
                <g>
                    <path d="M873.137,815.446C865.417,790.618 868.875,764.101 852.233,741.834C846.352,733.964 840.254,729.751 834.797,721.174C826.014,707.366 805.649,686.624 799.325,678.016C798.443,676.816 797.335,675.448 797.652,673.867C798.304,670.621 802.567,668.371 806.14,668.375C809.532,668.38 811.929,670.237 814.555,672.118C823.833,678.766 841.361,694.378 845.278,690.285C849.899,685.456 849.183,672.068 841.143,647.573C833.103,623.078 818.813,586.875 827.665,585.595C836.517,584.313 861.246,651.832 865.087,651.658C868.93,651.484 866.921,570.726 875.888,567.13C884.855,563.534 884.045,642.77 886.843,646.272C889.642,649.775 909.315,573.432 917.191,575.599C927.578,578.455 905.146,644.783 908.902,650.003C912.659,655.223 932.584,604.66 941.911,601.708C951.237,598.755 940.436,633.035 931.958,651.096C925.554,664.742 926.023,707.417 926.685,717.177C927.348,726.936 919.058,745.489 921.736,760.877C924.413,776.266 930.168,781.918 930.168,781.918C911.155,793.088 892.143,804.262 873.137,815.446Z" style="fill:rgb(247,164,145);fill-rule:nonzero;"/>
                    <path d="M773.598,1105.17L913.899,1050.62L854.928,783.042L936.75,755.769C936.75,755.769 1014.89,1068.31 1016.36,1088.95C1017.84,1109.59 849.031,1265.87 849.031,1265.87L773.598,1105.17Z" style="fill:rgb(73,81,236);fill-rule:nonzero;"/>
                    <path d="M404.09,781.586C401.253,768.105 395.347,755.497 390.955,742.44C387.471,732.086 385.004,718.139 386.478,707.118C387.78,697.379 391.053,690.729 391.638,680.581C392.009,674.152 393.14,667.764 394.34,661.448C395.647,654.574 397.153,647.74 398.63,640.901C399.723,635.84 400.942,630.751 401.587,625.608C401.772,624.132 402.074,622.397 401.026,621.17C400.081,620.064 398.605,619.508 397.196,619.318C395.055,619.03 392.824,619.455 390.938,620.51C387.979,622.167 386.79,624.956 385.413,627.878C383,633.002 380.915,638.276 378.604,643.445C376.596,647.935 374.57,652.872 371.34,656.65C370.436,657.708 368.993,659.191 367.436,658.712C361.047,656.747 355.15,644.707 350.235,619.398C345.321,594.09 340.162,555.514 331.807,558.708C323.453,561.901 334.755,632.913 331.315,634.633C327.876,636.353 290.282,564.851 280.699,566.079C271.116,567.308 310.43,636.107 309.693,640.53C308.956,644.953 254.579,587.87 248.756,593.599C241.078,601.154 292.985,648.147 292.247,654.536C291.51,660.924 248.019,643.233 238.437,645.198C228.854,647.164 254.408,663.873 268.659,668.787C282.911,673.701 305.27,713.015 309.447,721.86C313.625,730.706 329.903,742.869 335.063,757.611C340.223,772.354 337.95,780.094 337.95,780.094C359.997,780.585 382.044,781.08 404.09,781.586Z" style="fill:rgb(247,164,145);fill-rule:nonzero;"/>
                    <path d="M834.739,1697.6C834.741,1697.66 834.748,1697.74 834.76,1697.84L834.739,1697.6Z" style="fill:rgb(247,204,127);fill-rule:nonzero;"/>
                    <path d="M941.407,1539.56C937.504,1531.7 933.798,1524.45 930.241,1517.64C897.554,1528.93 860.608,1541.46 822.607,1554.39L834.739,1697.6C834.64,1694.63 846.321,1741.03 859.066,1792.42L1002.04,1792.42C988.817,1703.37 967.769,1592.87 941.407,1539.56Z" style="fill:rgb(146,181,249);fill-rule:nonzero;"/>
                    <path d="M822.607,1554.39C759.294,1575.92 701.172,1596.56 646.822,1616.3C657.873,1668.26 672.293,1734.34 684.702,1792.42L869.207,1792.42C871.032,1730.85 869.739,1665.21 863.434,1610.92L822.607,1554.39Z" style="fill:rgb(190,209,249);fill-rule:nonzero;"/>
                    <path d="M798.699,1105.85L753.572,1106.09C753.572,1106.09 673.673,1110.48 659.022,1112.36C657.753,1112.52 633.563,1398.19 632.077,1504.8C630.59,1611.41 647.793,1694.88 647.793,1694.88C647.793,1694.88 750.052,1692.03 821.02,1677.19C894.814,1661.76 990.561,1625.59 990.561,1625.59C990.561,1625.59 878.03,1370.26 857.944,1308.77C837.857,1247.29 798.699,1105.85 798.699,1105.85Z" style="fill:white;fill-rule:nonzero;"/>
                    <path d="M913.941,1313.87L807.751,1103.21L753.204,1105.66C753.204,1105.66 802.335,1190.15 830.834,1274.43C859.333,1358.71 977.316,1672.83 977.316,1672.83C977.316,1672.83 1019.93,1673.84 1028.18,1647.4C1036.43,1620.97 913.941,1313.87 913.941,1313.87Z" style="fill:rgb(73,81,236);fill-rule:nonzero;"/>
                    <path d="M659.384,1112.33L507,951.109C507,951.109 400.758,744.651 397.904,737.586C395.101,730.648 340.138,746.696 322.716,757.243C318.022,760.084 414.121,1020.15 414.121,1020.15L538.035,1176.88C538.035,1176.88 591.488,1267.95 593.701,1342.94C597.378,1467.49 579.241,1700.5 585.136,1705.2C620.256,1721.92 739.935,1749.43 759.101,1705.2C825.652,1551.62 659.384,1112.33 659.384,1112.33Z" style="fill:rgb(73,81,236);fill-rule:nonzero;"/>
                    <path d="M644.107,1029.98L659.384,1112.33C659.384,1112.33 720.156,1212.68 750.293,1197.87C775.58,1185.44 754.629,1108.39 754.629,1108.39C754.629,1108.39 746.675,1090.53 740.153,1070.2C735.596,1055.99 731.737,1040.58 731.782,1029.22C731.891,1001.6 644.107,1029.98 644.107,1029.98Z" style="fill:rgb(247,164,145);fill-rule:nonzero;"/>
                    <path d="M731.782,1029.22C731.891,1001.6 660.005,1030.92 660.005,1030.92L660.042,1039C663.056,1043.94 666.436,1048.03 670.222,1050.99C689.701,1066.19 717.448,1072.8 740.111,1070.07C735.571,1055.89 731.738,1040.54 731.782,1029.22Z" style="fill:rgb(239,127,127);fill-rule:nonzero;"/>
                    <path d="M742.543,856.057C742.543,856.057 767.021,905.653 764.362,944.416C761.703,983.18 750.197,1008.39 750.197,1008.39L667.763,879.612L742.543,856.057Z" style="fill:rgb(11,7,84);fill-rule:nonzero;"/>
                    <path d="M633.891,894.22C631.722,893.459 617.61,1005.48 646.699,1035.98C675.788,1066.49 731.989,1076.03 751.883,1051.6C773.888,1024.57 771.626,904.345 726.555,873.106C681.483,841.867 633.891,894.22 633.891,894.22Z" style="fill:rgb(247,164,145);fill-rule:nonzero;"/>
                    <path d="M634.544,823.723C606.982,842.279 592.956,856.617 571.247,893.099C544.554,937.957 579.16,992.4 610.958,1016.34C642.754,1040.29 642.476,1067.37 642.476,1067.37L647.434,1053.76C651.012,1042.75 635.009,994.789 632.072,988.677C624.326,972.559 622.835,969.092 629.408,955.558C634.47,945.137 633.294,920.587 641.262,903.364L688.704,899.313C688.704,899.313 718.483,896.064 735.225,881.101C783.301,838.13 707.374,773.645 634.544,823.723Z" style="fill:rgb(11,7,84);fill-rule:nonzero;"/>
                    <path d="M638.822,969.217C642.936,982.234 640.138,994.727 632.572,997.12C625.006,999.513 615.539,990.9 611.424,977.883C607.311,964.866 610.109,952.374 617.674,949.981C625.24,947.588 634.708,956.2 638.822,969.217Z" style="fill:rgb(247,164,145);fill-rule:nonzero;"/>
                    <path d="M1462.57,1060.98C1462.57,1060.98 1482.36,840.606 1487.02,796.052C1491.68,751.498 1469.95,606.543 1469.31,600.256C1468.67,593.968 1396.04,551.113 1404.05,544.367C1412.06,537.621 1440.01,568.131 1447.58,558.999C1455.15,549.867 1440.46,449.968 1448.12,451.434C1462.47,454.177 1459.55,512.243 1466.5,512.314C1473.45,512.387 1463.74,451.432 1475.36,447.528C1486.97,443.625 1478.97,506.056 1484.07,508.649C1489.17,511.242 1499.73,450.902 1510.35,457.294C1516.11,460.766 1499.61,510.731 1507.56,510.637C1515.5,510.542 1534.27,474.213 1540.51,478.828C1546.75,483.444 1520.55,507.241 1519.83,528.512C1519.11,549.781 1507.23,564.797 1516.32,598.942C1525.42,633.087 1578.21,755.724 1573.26,828.116C1568.32,900.508 1551.66,1054.53 1551.66,1054.53L1462.57,1060.98Z" style="fill:rgb(247,164,145);fill-rule:nonzero;"/>
                    <path d="M1462.7,863.497L1581,888.927L1576.58,1145.44L1472.65,1108.95L1462.7,863.497Z" style="fill:rgb(73,81,236);fill-rule:nonzero;"/>
                    <path d="M1051.36,1024.75C1087.51,1128.94 1199.29,1100.91 1199.33,1100.92C1202.54,1101.35 1213.46,1110.63 1223.43,1115.14C1265.7,1134.27 1318.9,1137.67 1353.14,1106.8C1418.95,1129.78 1491.99,1080.02 1496.13,1021.65C1538.97,1001.47 1540.71,959.35 1530.44,911.705C1550.14,851.88 1485.37,787.748 1424.81,781.909C1394.11,778.95 1361.98,789.651 1338.54,810.369C1289.41,784.374 1230.58,799.41 1196.65,844.311C1089.33,794.057 1013.53,915.705 1051.36,1024.75Z" style="fill:rgb(250,113,103);fill-rule:nonzero;"/>
                    <path d="M1738.98,1792.42L1916.58,1792.42C1915.83,1786.21 1915.23,1781.62 1914.85,1778.91C1908.43,1733.03 1600.95,1433.21 1600.95,1433.21L1444.59,1597.39C1444.59,1597.39 1543.91,1672.76 1581.13,1700.73C1604.09,1717.99 1681.85,1760.63 1738.98,1792.42Z" style="fill:rgb(11,7,84);fill-rule:nonzero;"/>
                    <path d="M1604.16,1792.42C1630.51,1673.21 1648.84,1561.29 1648.75,1561.32C1658.41,1531.92 1644.28,1469.18 1644.28,1469.18L1481.7,1425.81C1482.35,1426.01 1481.69,1432.47 1481.64,1432.97C1475.42,1493.56 1424.44,1568.07 1406.96,1674.24C1401.81,1705.5 1401.37,1750.53 1402.61,1792.42L1604.16,1792.42Z" style="fill:rgb(11,7,84);fill-rule:nonzero;"/>
                    <path d="M1631.89,1252.42C1629.87,1218.86 1634.02,1147.99 1631.05,1137.18C1631.17,1136.29 1631.3,1135.4 1631.44,1134.49L1508.03,1048.14C1507.6,1048.09 1509.24,1047.86 1505.08,1048.41C1478.17,1051.97 1387.46,1079.45 1370.69,1087.37L1373.79,1202.47C1383.76,1207.47 1456.6,1512.01 1437.18,1543.03C1427.69,1558.2 1676.45,1549.14 1683.39,1519.44C1686.4,1506.57 1635.97,1320.28 1631.89,1252.42Z" style="fill:rgb(124,154,242);fill-rule:nonzero;"/>
                    <path d="M1439.65,1018.44C1439.65,1018.44 1449.99,1070.87 1450.94,1091.9C1451.9,1112.93 1477.37,1177.37 1519.45,1171.71C1561.53,1166.05 1518.81,1084.79 1512,1065C1505.2,1045.21 1492.2,983.112 1492.2,983.112L1439.65,1018.44Z" style="fill:rgb(247,164,145);fill-rule:nonzero;"/>
                    <path d="M1498.86,1013.6C1488.69,1030.51 1470.41,1041.32 1443.3,1037.99C1441.28,1026.71 1439.65,1018.44 1439.65,1018.44L1492.2,983.112C1492.2,983.112 1495.09,996.927 1498.86,1013.6Z" style="fill:rgb(239,127,127);fill-rule:nonzero;"/>
                    <path d="M1395.64,866.174C1395.64,866.174 1374.38,882.825 1369.98,913.083C1365.58,943.341 1385.7,1017.02 1448.01,1026.77C1510.31,1036.52 1527.9,973.493 1509.1,928.766C1490.3,884.038 1455.3,828.961 1395.64,866.174Z" style="fill:rgb(247,164,145);fill-rule:nonzero;"/>
                    <path d="M1513.36,914.751C1513.9,926.619 1508.97,936.437 1502.35,936.68C1495.72,936.923 1489.92,927.5 1489.38,915.632C1488.84,903.765 1493.78,893.947 1500.4,893.704C1507.02,893.461 1512.83,902.883 1513.36,914.751Z" style="fill:rgb(247,164,145);fill-rule:nonzero;"/>
                    <path d="M1406.4,848.1C1406.4,848.1 1407.34,940.992 1381.41,961.402C1355.49,981.812 1372.96,1020.64 1372.96,1020.64C1372.96,1020.64 1334.22,930.229 1352.32,896.925C1370.42,863.621 1406.4,848.1 1406.4,848.1Z" style="fill:rgb(250,113,103);fill-rule:nonzero;"/>
                    <path d="M1399.27,978.457C1407.3,987.774 1408.96,999.854 1402.99,1005.44C1397.02,1011.02 1385.67,1007.99 1377.64,998.674C1369.62,989.356 1367.96,977.277 1373.93,971.694C1379.9,966.111 1391.25,969.139 1399.27,978.457Z" style="fill:rgb(251,147,144);fill-rule:nonzero;"/>
                    <path d="M1414.71,1075.31C1414.71,1075.31 1311.35,888.697 1286.18,849.014C1261,809.332 1195.69,651.811 1193.35,645.604C1191.02,639.397 1239.26,565.239 1228.58,562.64C1217.91,560.04 1205.88,601.751 1194.51,596.705C1183.13,591.66 1150.32,490.944 1143.8,495.901C1131.6,505.176 1161.44,558.364 1154.95,561.674C1148.45,564.985 1129.12,503.189 1116.39,504.943C1103.66,506.697 1140.31,561.613 1136.73,566.43C1133.15,571.247 1095.06,519.487 1088.07,530.447C1084.28,536.399 1123.1,575.639 1115.59,579.259C1108.08,582.879 1073.5,557.505 1069.79,564.755C1066.08,572.005 1101.8,582.134 1112.4,601.781C1123,621.43 1141.18,629.989 1148.57,666.314C1155.96,702.638 1166.62,834.007 1205.05,899.71C1243.48,965.415 1328,1110.83 1328,1110.83L1414.71,1075.31Z" style="fill:rgb(247,164,145);fill-rule:nonzero;"/>
                    <path d="M1449.06,1063.15C1419.17,1026.63 1343.07,928.146 1343.07,928.146C1343.07,928.146 1265.43,980.68 1257.05,1008.34C1257.05,1008.34 1397.91,1220.86 1387.51,1225.04C1387.51,1225.04 1459.17,1075.51 1449.06,1063.15Z" style="fill:rgb(124,154,242);fill-rule:nonzero;"/>
                    <path d="M1406.31,1047.67C1390.03,1003.16 1390.82,869.92 1351.76,835.379C1313.44,801.499 1228.85,790.703 1187.76,821.482C1149.52,850.116 1134.67,900.8 1119.21,947.526C1109.3,977.452 1096.82,995.754 1071.23,1013.72C1026.62,1045.05 900.812,1091.98 861.866,1129.28C790.027,1198.08 805.915,1334.63 844.172,1385.83C1024.42,1627.08 1270.71,1480.12 1304.58,1321.89C1316.32,1267.06 1474.93,1235.35 1406.31,1047.67Z" style="fill:rgb(11,7,84);fill-rule:nonzero;"/>
                    <path d="M1001.03,1107.34L915.58,1058.94C918.056,1050.75 920.067,1043.86 921.464,1038.71C936.145,984.511 1022.34,799.9 1025.93,792.838C1029.52,785.777 1133.79,768.493 1127.47,756.987C1121.16,745.482 1074.99,755.594 1072.78,749.537C1067.67,735.573 1127.56,630.177 1117.93,628.426C1099.92,625.148 1077.1,694.354 1068.94,691.297C1060.79,688.24 1099.67,621.366 1087.86,611.554C1076.04,601.743 1057.2,678.346 1050.06,679.074C1042.93,679.8 1057.84,604.485 1042.54,607.162C1034.23,608.616 1030.95,674.485 1021.7,670.784C1012.46,667.082 1006.94,616.133 997.551,618.709C988.167,621.284 1007.69,669.641 998.916,694.833C990.144,720.023 997.615,734.25 971.552,770.058C945.489,805.865 784.021,1053.47 800.391,1097.13C813.684,1132.57 944.593,1204.6 958.876,1202.93C1013.62,1196.55 1001.03,1107.34 1001.03,1107.34Z" style="fill:rgb(247,164,145);fill-rule:nonzero;"/>
                    <path d="M1777.82,789.677C1777.58,760.929 1770.45,705.398 1759.15,667.5C1757.31,661.317 1726.03,623.195 1723.32,619.487C1720.61,615.78 1697.9,598.332 1694.9,612.027C1694.03,615.962 1713.77,635.754 1721.14,643.433C1715.12,635.692 1685.54,613.103 1680.34,615.043C1670.25,618.803 1702.68,654.84 1713.12,664.156C1721.47,671.604 1718.8,702.119 1717.4,714.052C1716.91,718.259 1713.34,729.566 1714.67,725.546C1714.92,724.809 1707.98,707.118 1705.35,697.673C1703.62,691.456 1699,688.51 1695.61,691.765C1687.21,699.843 1694.14,754.384 1698.03,762.219C1702.63,771.495 1714.1,787.698 1718.47,793.842C1718.47,793.842 1681.26,1063.15 1671.68,1067.58C1649.25,1077.93 1447.78,1134.78 1447.78,1134.78C1447.78,1134.78 1442.83,1261.82 1448.32,1258.5C1453.81,1255.17 1731.38,1160.46 1749.15,1137.54C1774.84,1104.38 1781.03,954.268 1776.9,854.069C1776.7,814.511 1777.85,789.842 1777.82,789.677Z" style="fill:rgb(247,164,145);fill-rule:nonzero;"/>
                    <path d="M1749.44,720.141L1752.27,723.089C1752.27,723.089 1754.85,728.372 1752.15,733.654C1750.58,736.72 1748.42,736.872 1735.31,738.814C1725.83,740.22 1713.69,738.569 1695.51,735.866L1749.44,720.141Z" style="fill:rgb(244,116,88);fill-rule:nonzero;"/>
                    <path d="M1751.96,722.286L1711.51,607.811C1710.26,604.267 1706.23,602.364 1702.52,603.56L1698.02,605.063L1697.98,605.091L1697.97,605.06L1657.24,620.368C1654.21,621.509 1652.69,624.765 1653.84,627.682L1697.48,738.814L1736.48,734.419L1747.5,730.867C1751.21,729.671 1753.21,725.83 1751.96,722.286Z" style="fill:rgb(11,7,84);fill-rule:nonzero;"/>
                    <path d="M1690.72,692.129C1690.72,692.129 1683.35,705.644 1680.89,722.843C1678.43,740.043 1707.06,780.463 1712.22,784.394C1717.38,788.325 1717.01,763.877 1717.01,763.877C1717.01,763.877 1720.45,741.763 1715.04,739.061C1709.64,736.358 1701.28,726.529 1701.28,726.529C1701.28,726.529 1706.2,675.175 1690.72,692.129Z" style="fill:rgb(247,164,145);fill-rule:nonzero;"/>
                    <path d="M1748.34,679.475L1738.75,657.361C1738.75,657.361 1716.64,617.187 1703.37,622.715C1690.1,628.244 1729.54,664.732 1729.54,664.732C1729.54,664.732 1742.01,693.235 1753.44,731.751L1759.39,719.649L1748.34,679.475Z" style="fill:rgb(251,147,144);fill-rule:nonzero;"/>
                    <path d="M1410.82,1792.42L1372.7,1680.15L1096.29,1651.4C1096.29,1651.4 1044.66,1747.95 1027.96,1792.42L1410.82,1792.42Z" style="fill:rgb(146,181,249);fill-rule:nonzero;"/>
                    <path d="M1575.58,1236.33L1537.99,1102.91L1310.48,1130.97C1310.48,1130.97 1246.59,1126.87 1212.18,1127.97C1187.78,1128.74 1040.99,1097.83 948.544,1074.95C948.016,1076.17 920.271,1164.82 904.053,1195.78C973.447,1230.51 1026.52,1247.57 1074.33,1288.66C1074.36,1288.84 1080.43,1485.44 1085.27,1606.05C1074.88,1636.02 1048.75,1696.73 1048.75,1696.73C1048.75,1696.73 1133.88,1745.38 1263.25,1734.32C1340.43,1727.73 1397.03,1710 1397.03,1710C1397.03,1710 1373.16,1623.65 1366.78,1573.25C1394.57,1449.63 1439.21,1284.98 1439.21,1284.98L1575.58,1236.33Z" style="fill:rgb(255,134,45);fill-rule:nonzero;"/>
                    <path d="M1231.85,1018.68C1231.85,1018.68 1224.54,1102.95 1215.14,1126.3C1205.74,1149.66 1207.16,1233.64 1257.98,1248.8C1308.8,1263.96 1307.88,1156.18 1309.99,1131.22C1312.09,1106.25 1314.41,1024.58 1314.41,1024.58L1231.85,1018.68Z" style="fill:rgb(247,164,145);fill-rule:nonzero;"/>
                    <path d="M1229.3,1044.25C1234.49,1049.87 1240.55,1054.99 1247.58,1059.47C1272.19,1075.14 1294.76,1074.92 1313.09,1065.55C1313.88,1043.29 1314.41,1024.58 1314.41,1024.58L1231.85,1018.68C1231.85,1018.68 1230.92,1029.4 1229.3,1044.25Z" style="fill:rgb(239,127,127);fill-rule:nonzero;"/>
                    <path d="M1260.07,847.098C1260.07,847.098 1229.5,853.987 1210.62,882.793C1191.75,911.598 1178.04,1002.2 1240.21,1041.78C1302.37,1081.36 1351.48,1019.57 1352.28,964.96C1353.08,910.349 1341.38,837.467 1260.07,847.098Z" style="fill:rgb(247,164,145);fill-rule:nonzero;"/>
                    <path d="M1370.47,941.247C1369.12,955.387 1361.34,966.21 1353.11,965.421C1344.87,964.632 1339.29,952.53 1340.64,938.39C1342,924.249 1349.77,913.426 1358.01,914.214C1366.25,915.004 1371.83,927.106 1370.47,941.247Z" style="fill:rgb(247,164,145);fill-rule:nonzero;"/>
                    <path d="M1272.19,839.904C1272.19,839.904 1233.21,927.319 1198.97,935.127C1164.74,942.934 1165.23,986.92 1165.23,986.92C1165.23,986.92 1166,885.343 1198.08,862.044C1230.17,838.746 1272.19,839.904 1272.19,839.904Z" style="fill:rgb(11,7,84);fill-rule:nonzero;"/>
                    <path d="M1213.56,955.753C1218.07,969.95 1213.94,983.928 1204.35,986.975C1194.75,990.021 1183.32,980.982 1178.81,966.786C1174.31,952.59 1178.43,938.612 1188.03,935.565C1197.62,932.519 1209.05,941.557 1213.56,955.753Z" style="fill:rgb(247,164,145);fill-rule:nonzero;"/>
                    <path d="M1068.89,750.865C1068.89,750.865 1034.8,728.2 1015.09,757.892C1015.09,757.892 1040.08,738.661 1068.89,750.865Z" style="fill:rgb(239,127,127);fill-rule:nonzero;"/>
                    <path d="M1360.26,367.225L1360.91,389.109L1325.81,394.042L1322.81,426.157L1297.15,434.143L1301.19,447.133L1335.51,436.453L1338.35,406.019L1374.87,400.887L1373.89,367.955L1360.26,367.225Z" style="fill:rgb(73,81,236);fill-rule:nonzero;"/>
                    <path d="M1691.52,429.352L1569.83,406.687C1555.47,404.014 1546,390.209 1548.68,375.854L1561.44,307.331C1564.11,292.976 1577.92,283.507 1592.27,286.181L1713.96,308.845C1728.31,311.519 1737.78,325.322 1735.11,339.677L1722.35,408.201C1719.67,422.556 1705.87,432.025 1691.52,429.352Z" style="fill:rgb(190,209,249);fill-rule:nonzero;"/>
                    <path d="M1560.48,341.992L1499.19,385.585L1565.3,385.063L1560.48,341.992Z" style="fill:rgb(190,209,249);fill-rule:nonzero;"/>
                    <path d="M1608.6,342.896L1624.26,345.403C1624.26,345.403 1646.55,334.227 1648.07,329.144C1649.6,324.06 1648.34,312.5 1651.64,311.665C1654.93,310.831 1661.59,310.894 1664.44,318.496C1666.52,324.013 1660.8,341.785 1662.42,343.33C1663.43,344.297 1672.39,345.991 1678.95,347.123C1683.27,347.868 1686.81,350.947 1688.15,355.116L1688.15,355.128C1689.06,357.947 1687.87,361.016 1685.3,362.486L1681.3,364.776L1683.39,368.905C1684.94,371.979 1683.73,375.731 1680.66,377.307L1677.54,378.913L1679.04,381.392C1680.97,384.585 1679.7,388.747 1676.31,390.318L1673.57,391.594L1673.81,392.335C1674.84,395.418 1673.33,398.772 1670.35,400.061L1667.61,401.248L1625.91,394.566C1622,393.94 1618.26,392.522 1614.93,390.399L1600.65,385.625C1599.11,385.112 1598.19,383.553 1598.47,381.96L1604.87,345.558C1605.18,343.799 1606.84,342.614 1608.6,342.896Z" style="fill:rgb(243,248,255);fill-rule:nonzero;"/>
                    <path d="M1939.27,540.837L1946.13,524.965L1936.94,510.32C1935.89,508.652 1937.21,506.508 1939.17,506.692L1956.39,508.306L1967.47,495.04C1968.74,493.529 1971.19,494.123 1971.62,496.044L1975.4,512.914L1991.44,519.36C1993.27,520.094 1993.46,522.605 1991.77,523.609L1976.89,532.421L1975.72,549.67C1975.59,551.635 1973.26,552.594 1971.78,551.292L1958.8,539.869L1942.03,544.083C1940.12,544.563 1938.49,542.645 1939.27,540.837Z" style="fill:rgb(190,209,249);fill-rule:nonzero;"/>
                    <path d="M136.806,677.192L128.759,666.101L115.06,666.442C113.5,666.481 112.571,664.714 113.49,663.452L121.552,652.37L116.994,639.447C116.475,637.976 117.869,636.546 119.353,637.03L132.383,641.273L143.265,632.945C144.505,631.996 146.294,632.88 146.293,634.441L146.284,648.145L157.568,655.921C158.853,656.806 158.564,658.781 157.08,659.263L144.044,663.489L140.136,676.624C139.69,678.119 137.723,678.456 136.806,677.192Z" style="fill:rgb(73,81,236);fill-rule:nonzero;"/>
                    <path d="M1831.94,503.978L1832.37,522.091L1803.3,526.008L1800.67,552.57L1779.4,559.058L1782.68,569.827L1811.13,561.15L1813.63,535.978L1843.87,531.902L1843.21,504.646L1831.94,503.978Z" style="fill:rgb(73,81,236);fill-rule:nonzero;"/>
                    <path d="M1744.85,542.826L1727.34,538.826L1730.66,509.937L1705.77,500.932L1704.73,478.906L1693.58,479.437L1694.98,508.896L1718.56,517.43L1715.11,547.483L1741.46,553.501L1744.85,542.826Z" style="fill:rgb(190,209,249);fill-rule:nonzero;"/>
                    <path d="M1925.33,654.177L1912.82,633.384L1892.71,643.741L1879.49,623.802L1859.05,631.33L1846.71,618.027L1839.98,624.272L1856.48,642.066L1875.85,634.932L1889.61,655.675L1909.38,645.488L1920.72,664.331L1925.33,654.177Z" style="fill:rgb(190,209,249);fill-rule:nonzero;"/>
                    <path d="M205.208,589.764L191.937,570.572L168.604,570.624C165.947,570.63 164.436,567.586 166.048,565.473L180.199,546.922L172.939,524.747C172.113,522.221 174.541,519.844 177.048,520.724L199.065,528.45L217.911,514.693C220.057,513.126 223.068,514.701 223.007,517.358L222.462,540.685L241.369,554.357C243.523,555.914 242.956,559.265 240.41,560.027L218.057,566.718L210.896,588.924C210.081,591.454 206.719,591.949 205.208,589.764Z" style="fill:rgb(255,134,45);fill-rule:nonzero;"/>
                    <path d="M766.431,589.118L763.504,581.556L781.974,574.406L768.813,551.218L775.865,547.216L793.665,578.576L766.431,589.118Z" style="fill:rgb(80,191,165);fill-rule:nonzero;"/>
                    <path d="M405.208,484.85L380.113,493.138L362.316,454.233L324.13,461.828L306.051,434.89L292.416,444.042L316.594,480.069L352.782,472.873L371.297,513.344L409.059,500.872L405.208,484.85Z" style="fill:rgb(190,209,249);fill-rule:nonzero;"/>
                    <path d="M1261.26,439.032L1224.3,425.153L1191.91,447.734C1188.22,450.306 1183.18,447.532 1183.39,443.04L1185.16,403.597L1153.68,379.771C1150.09,377.058 1151.17,371.41 1155.51,370.214L1193.57,359.716L1206.5,322.41C1207.97,318.161 1213.68,317.445 1216.16,321.198L1237.9,354.153L1277.38,354.922C1281.87,355.009 1284.32,360.215 1281.51,363.73L1256.89,394.595L1268.36,432.376C1269.67,436.68 1265.47,440.612 1261.26,439.032Z" style="fill:rgb(124,154,242);fill-rule:nonzero;"/>
                    <path d="M264.122,706.195L236.519,707.299L225.658,733.292L194.63,732.337L191.599,763.59L156.462,764.06L150.122,792.493L116.389,798.471L114.126,785.704L139.348,781.234L146.038,751.229L179.814,750.779L182.896,719.002L217.136,720.056L227.742,694.673L253.326,693.65L256.803,675.524L269.539,677.968L264.122,706.195Z" style="fill:rgb(190,209,249);fill-rule:nonzero;"/>
                    <path d="M606.247,676.066C609.398,707.825 586.21,736.12 554.456,739.266C522.701,742.412 494.404,719.217 491.252,687.458C488.101,655.7 511.289,627.404 543.043,624.258C574.798,621.113 603.095,644.308 606.247,676.066Z" style="fill:rgb(190,209,249);fill-rule:nonzero;"/>
                    <path d="M518.913,693.917C520.598,710.897 535.727,723.298 552.705,721.616C569.682,719.935 582.08,704.807 580.395,687.827L518.913,693.917Z" style="fill:rgb(243,248,255);fill-rule:nonzero;"/>
                    <path d="M990.492,387.044L975.491,365.771L958.873,382.172L973.874,403.444L990.492,387.044ZM986.865,445.512L970.188,421.762L960.803,431.023C958.75,433.05 955.442,433.028 953.416,430.975C951.389,428.921 951.411,425.613 953.464,423.586L964.287,412.906L949.285,391.633L939.262,401.525C937.209,403.552 933.901,403.53 931.875,401.477C929.848,399.423 929.87,396.116 931.923,394.089L943.384,382.778L926.293,358.215C924.841,356.128 925.103,353.299 926.912,351.513L928.662,349.786C930.958,347.52 934.741,347.856 936.6,350.493L952.812,373.474L969.43,357.074L952.338,332.511C950.886,330.424 951.147,327.595 952.958,325.809L954.867,323.924C957.163,321.658 960.945,321.995 962.805,324.631L979.017,347.612L988.401,338.351C990.455,336.324 993.763,336.346 995.789,338.4C997.816,340.454 997.794,343.761 995.74,345.787L984.918,356.468L1000.08,377.583L1010.1,367.691C1012.16,365.664 1015.46,365.686 1017.49,367.74C1019.52,369.793 1019.49,373.101 1017.44,375.127L1005.98,386.438L1023.67,411.627C1025.13,413.714 1024.88,416.555 1023.06,418.347L1021.01,420.367C1018.71,422.636 1014.93,422.295 1013.07,419.65L996.393,395.9L979.774,412.3L997.461,437.488C998.927,439.576 998.671,442.417 996.856,444.209L994.81,446.228C992.51,448.498 988.721,448.156 986.865,445.512Z" style="fill:rgb(255,134,45);fill-rule:nonzero;"/>
                    <path d="M614.435,404.123C614.435,404.123 619.572,388.69 637.663,382.87C653.792,377.682 669.033,386.925 673.836,401.855C679.396,419.137 670.821,444.459 637.2,474.886C592.144,469.77 570.414,454.197 564.854,436.916C560.05,421.985 567.042,405.589 583.172,400.4C601.263,394.581 614.435,404.123 614.435,404.123Z" style="fill:rgb(255,134,45);fill-rule:nonzero;"/>
                    <path d="M483.283,453.841C489.724,452.866 495.651,451.839 501.245,450.745C509.972,449.038 517.885,447.172 525.665,445.096C529.875,443.973 537.509,443.27 539.46,438.881C540.475,436.599 540.105,434.253 537.902,432.794C533.869,430.123 527.895,433.189 523.651,434.319C510.717,437.76 495.918,441.041 480.771,443.49C477.93,443.949 476.21,447.281 476.851,449.922C477.579,452.927 480.431,454.273 483.283,453.841Z" style="fill:rgb(255,134,45);fill-rule:nonzero;"/>
                    <path d="M708.036,429.662C714.251,428.12 720.435,426.463 726.625,424.824C732.547,423.255 739.82,422.442 744.894,418.935C748.636,416.348 747.563,410.75 742.792,410.342C736.624,409.814 729.995,412.669 724.061,414.26C717.874,415.917 711.684,417.557 705.524,419.311C698.944,421.184 701.357,431.321 708.036,429.662Z" style="fill:rgb(255,134,45);fill-rule:nonzero;"/>
                    <path d="M561.791,519.818C566.124,504.732 574.53,498.221 580.443,491.316C583.604,487.625 579.959,482.471 575.42,484.463C562.981,489.923 555.028,504.446 551.581,516.94C549.766,523.517 559.901,526.399 561.791,519.818Z" style="fill:rgb(255,134,45);fill-rule:nonzero;"/>
                    <path d="M641.776,533.733C639.85,527.4 639.178,520.894 639.966,514.307C640.448,510.277 645.151,498.152 637.374,498.152C630.052,498.153 629.321,510.381 628.937,515.568C628.421,522.517 629.292,529.615 631.381,536.255C633.437,542.791 643.785,540.34 641.776,533.733Z" style="fill:rgb(255,134,45);fill-rule:nonzero;"/>
                    <path d="M684.057,480.965C688.155,482.562 692.253,484.157 696.352,485.753C700.44,487.346 704.686,490.112 708.978,487.998C711.391,486.809 711.716,483.99 710.82,481.763C709.193,477.72 703.053,476.687 699.312,475.254C695.207,473.684 691.101,472.113 686.995,470.542C684.264,469.497 681.055,471.652 680.314,474.284C679.459,477.322 681.322,479.9 684.057,480.965Z" style="fill:rgb(255,134,45);fill-rule:nonzero;"/>
                    <path d="M561.884,377.329C540.436,349.135 540.651,348.907 537.314,346.999C533.894,345.043 529.386,348.163 530.406,352.111C531.415,356.014 531.316,355.353 553.993,384.936C555.797,387.288 559.782,386.966 561.742,385.077C564.081,382.823 563.684,379.695 561.884,377.329Z" style="fill:rgb(255,134,45);fill-rule:nonzero;"/>
                    <path d="M618.294,362.17C618.978,356.374 619.033,350.57 618.47,344.758C617.945,339.358 617.869,331.009 612.11,328.664C610.874,328.16 608.944,328.688 608.079,329.677C604.462,333.816 607.226,340.628 607.688,345.611C608.194,351.046 608.115,356.538 607.689,361.976C607.466,364.833 610.151,367.325 612.894,367.376C615.995,367.432 617.958,365.024 618.294,362.17Z" style="fill:rgb(255,134,45);fill-rule:nonzero;"/>
                    <path d="M699.406,346.454C699.697,343.8 697.161,342.029 694.873,341.752C690.164,341.181 685.645,346.788 682.614,349.844C679.084,353.403 675.937,357.283 673.025,361.359C671.346,363.711 672.57,367.304 674.901,368.687C677.632,370.308 680.461,369.109 682.229,366.811C693.773,351.805 698.687,353.003 699.406,346.454Z" style="fill:rgb(255,134,45);fill-rule:nonzero;"/>
                    <path d="M871.71,416.127L872.144,434.24L843.077,438.157L840.445,464.719L819.172,471.208L822.456,481.976L850.909,473.299L853.403,448.127L883.641,444.051L882.989,416.795L871.71,416.127Z" style="fill:rgb(73,81,236);fill-rule:nonzero;"/>
                </g>
            </g>
        </g>
    </g>
</svg>
