<?xml version="1.0" encoding="UTF-8" standalone="no"?>
<!DOCTYPE svg PUBLIC "-//W3C//DTD SVG 1.1//EN" "http://www.w3.org/Graphics/SVG/1.1/DTD/svg11.dtd">
<svg width="100%" height="100%" viewBox="0 0 1024 768" version="1.1" xmlns="http://www.w3.org/2000/svg" xmlns:xlink="http://www.w3.org/1999/xlink" xml:space="preserve" xmlns:serif="http://www.serif.com/" style="fill-rule:evenodd;clip-rule:evenodd;stroke-linejoin:round;stroke-miterlimit:2;">
    <g transform="matrix(1,0,0,1,509.643,261.063)">
        <g transform="matrix(1,0,0,1,-512,-512)">
            <g transform="matrix(1.33798,0,0,1.34725,-825.276,-1132.43)">
                <path d="M1158.15,1328.56C1177.12,1328.71 1196.11,1327.26 1214.88,1324.19C1226.78,1322.24 1237.35,1331.76 1236.18,1343.37L1216.07,1463.53L1158.15,1454.52L1158.15,1328.56Z" style="fill:rgb(130,130,168);fill-rule:nonzero;"/>
            </g>
            <g transform="matrix(1.33798,0,0,1.34725,-825.276,-1132.43)">
                <path d="M1071.42,1444.36L1199.58,1442.31L1210.73,1343.37C1211.8,1331.76 1197.96,1324.78 1191.25,1324.19C1158.42,1321.28 1125.64,1330.03 1093.17,1324.31L1090.21,1323.79C1079.95,1321.98 1070.62,1330.4 1070.7,1341.39L1071.42,1444.36Z" style="fill:rgb(177,177,222);fill-rule:nonzero;"/>
            </g>
            <g transform="matrix(1.33798,0,0,1.34725,-825.276,-1132.43)">
                <path d="M1017.71,1599.37L1058.11,1473.46L1050.05,1470.08L1008.3,1599.37L1017.71,1599.37Z" style="fill:rgb(60,143,124);fill-rule:nonzero;"/>
            </g>
            <g transform="matrix(1.33798,0,0,1.34725,-825.276,-1132.43)">
                <path d="M1227.13,1599.37L1183.07,1463.02L1175.01,1466.4L1216.29,1599.37L1227.13,1599.37Z" style="fill:rgb(130,130,168);fill-rule:nonzero;"/>
            </g>
            <g transform="matrix(1.33798,0,0,1.34725,-825.276,-1132.43)">
                <path d="M1198.01,1438.34L1083.45,1440.31C1073.54,1440.31 1064.69,1446.54 1064.69,1458L1064.69,1464.07C1064.69,1475.53 1072.72,1484.82 1082.63,1484.82L1198.26,1484.82C1208.17,1484.82 1216.2,1475.53 1216.2,1464.07L1216.2,1458C1216.2,1446.54 1207.92,1438.34 1198.01,1438.34Z" style="fill:rgb(130,130,168);fill-rule:nonzero;"/>
            </g>
            <g transform="matrix(1.33798,0,0,1.34725,-825.276,-1132.43)">
                <path d="M1200.31,1599.35L1156.34,1468.28L1148.29,1471.54L1190.8,1599.35L1200.31,1599.35Z" style="fill:rgb(130,130,168);fill-rule:nonzero;"/>
            </g>
            <g transform="matrix(1.33798,0,0,1.34725,-825.276,-1132.43)">
                <path d="M999.401,1599.38L1041.23,1470.74L1033.17,1467.39L990.255,1599.38L999.401,1599.38Z" style="fill:rgb(130,130,168);fill-rule:nonzero;"/>
            </g>
            <g transform="matrix(1.33798,0,0,1.34725,-825.276,-1132.43)">
                <path d="M1164.7,1438.9L1032.31,1435.38C1020.54,1435.38 1005.96,1447.88 1005.96,1458.94L1005.96,1464.81C1005.96,1475.88 1015.51,1484.85 1027.28,1484.85L1164.7,1484.85C1176.48,1484.85 1186.02,1475.88 1186.02,1464.81L1186.02,1458.94C1186.02,1447.88 1176.48,1438.9 1164.7,1438.9Z" style="fill:rgb(177,177,222);fill-rule:nonzero;"/>
            </g>
            <g transform="matrix(1.33798,0,0,1.34725,-825.276,-1132.43)">
                <path d="M953.992,1435.93L961.78,1594.24L955.325,1594.24L934.243,1434.1L953.992,1435.93Z" style="fill:rgb(51,51,67);fill-rule:nonzero;"/>
            </g>
            <g transform="matrix(1.33798,0,0,1.34725,-825.276,-1132.43)">
                <path d="M953.853,1159.3L954.191,1149.87L946.614,1144.24C945.751,1143.6 945.998,1142.25 947.031,1141.95L956.105,1139.36L959.115,1130.42C959.457,1129.4 960.82,1129.21 961.419,1130.11L966.688,1137.94L976.125,1138.03C977.201,1138.04 977.795,1139.28 977.133,1140.13L971.315,1147.56L974.139,1156.56C974.46,1157.59 973.466,1158.54 972.457,1158.17L963.592,1154.93L955.899,1160.4C955.023,1161.02 953.813,1160.37 953.853,1159.3Z" style="fill:rgb(116,115,232);fill-rule:nonzero;"/>
            </g>
            <g transform="matrix(1.33798,0,0,1.34725,-825.276,-1132.43)">
                <path d="M773.348,1229.06L784.296,1228.77L789.114,1217.24L804.042,1219.08L806.215,1211.06L809.508,1212.08L806.658,1222.61L791.368,1220.73L786.704,1231.88L773.447,1232.23L773.348,1229.06Z" style="fill:rgb(116,115,232);fill-rule:nonzero;"/>
            </g>
            <g transform="matrix(1.33798,0,0,1.34725,-825.276,-1132.43)">
                <path d="M1174.85,1151.99L1170.55,1160.16L1156.64,1154.69L1148.88,1165.85L1137.8,1163.46L1136.59,1169.06L1151.4,1172.27L1158.76,1161.69L1173.23,1167.38L1179.71,1155.09L1174.85,1151.99Z" style="fill:rgb(116,115,232);fill-rule:nonzero;"/>
            </g>
            <g transform="matrix(1.33798,0,0,1.34725,-825.276,-1132.43)">
                <path d="M865.537,1088.27L868.38,1096.32L877.048,1097.16L879.595,1106.41L889.103,1104.46L892.445,1114.8L901.422,1114.08L906.263,1123.5L902.699,1125.33L899.078,1118.29L889.606,1119.04L886.393,1109.11L876.726,1111.1L873.915,1100.89L865.451,1100.07L862.816,1092.6L857.145,1093.23L856.705,1089.24L865.537,1088.27Z" style="fill:rgb(116,115,232);fill-rule:nonzero;"/>
            </g>
            <g transform="matrix(1.33798,0,0,1.34725,-825.276,-1132.43)">
                <path d="M1369.7,1597.01C1369.7,1595.48 1368.46,1594.23 1366.92,1594.23L628.577,1594.23C627.008,1594.23 625.735,1595.48 625.735,1597.01C625.735,1598.54 627.008,1599.79 628.577,1599.79L1366.92,1599.79C1368.46,1599.79 1369.7,1598.54 1369.7,1597.01Z" style="fill:rgb(62,61,81);fill-rule:nonzero;"/>
            </g>
            <g transform="matrix(1.33798,0,0,1.34725,-825.276,-1132.43)">
                <path d="M1030.6,1308.64C1030.6,1308.64 1022.24,1355.11 1014.01,1359.9C1005.79,1364.69 961.385,1386.15 961.385,1386.15L939.775,1390.36L932.884,1395.36C932.884,1395.36 945.17,1402.22 949.832,1402.15C954.974,1402.08 959.864,1398.08 968.1,1396.2C989.383,1391.36 1028.14,1384.22 1032.57,1379.79C1038.72,1373.65 1056.73,1325.63 1056.73,1325.63L1030.6,1308.64Z" style="fill:rgb(244,140,127);fill-rule:nonzero;"/>
            </g>
            <g transform="matrix(1.33798,0,0,1.34725,-825.276,-1132.43)">
                <path d="M931.222,1310.58L919.904,1342.55C919.904,1342.55 909.918,1321.78 903.622,1297.87C893.717,1301.4 887.307,1305.39 879.483,1312.19C888.627,1334.4 905.865,1370.78 919.478,1372.78C930.072,1374.34 940.881,1322.27 940.881,1322.27L931.222,1310.58Z" style="fill:rgb(247,164,145);fill-rule:nonzero;"/>
            </g>
            <g transform="matrix(1.33798,0,0,1.34725,-825.276,-1132.43)">
                <path d="M936.542,1292.09C937.865,1290.7 941.08,1289.19 942.703,1290.67C944.326,1292.14 943.665,1294.56 944.581,1295.75C945.401,1296.82 946.329,1298.69 946.875,1300.41C947.028,1300.89 948.1,1304.55 948.42,1305.59C948.741,1306.63 940.881,1322.27 940.881,1322.27L929.422,1316.41C929.422,1316.41 935.22,1293.48 936.542,1292.09Z" style="fill:rgb(247,164,145);fill-rule:nonzero;"/>
            </g>
            <g transform="matrix(1.33798,0,0,1.34725,-825.276,-1132.43)">
                <path d="M899.568,1285.93C899.568,1285.93 907.707,1307.51 909.789,1314.32C911.871,1321.14 916.035,1330.98 916.035,1330.98L893.51,1345.56L877.61,1311.86L899.568,1285.93Z" style="fill:rgb(164,229,255);fill-rule:nonzero;"/>
            </g>
            <g transform="matrix(1.33798,0,0,1.34725,-825.276,-1132.43)">
                <path d="M938.092,1294.7L938.092,1295.36C938.092,1297.16 937.833,1298.94 937.363,1300.68C936.823,1302.67 936.322,1305.35 937.218,1306.24C938.706,1307.73 939.775,1304.37 939.775,1304.37C939.775,1304.37 937.021,1307.33 937.653,1308.64C938.482,1310.35 940.881,1308.64 940.881,1308.64C940.881,1308.64 939.258,1310.89 940.881,1311.5C942.505,1312.12 945.793,1306.56 945.793,1306.56L947.713,1303.8L939.782,1294.19L938.092,1294.7Z" style="fill:rgb(244,116,88);fill-rule:nonzero;"/>
            </g>
            <g transform="matrix(1.33798,0,0,1.34725,-825.276,-1132.43)">
                <path d="M946.502,1307.33L951.222,1307.2L950.003,1302.75L946.351,1302.88C944.623,1302.94 943.15,1300.99 943.066,1298.54L942.914,1294.09C942.83,1291.63 944.166,1289.59 945.894,1289.53L950.591,1289.37L950.438,1284.92L945.741,1285.08C942.288,1285.2 939.614,1289.29 939.782,1294.19L939.935,1298.64C940.103,1303.55 943.049,1307.45 946.502,1307.33Z" style="fill:rgb(130,130,168);fill-rule:nonzero;"/>
            </g>
            <g transform="matrix(1.33798,0,0,1.34725,-825.276,-1132.43)">
                <path d="M973.508,1284.36L974.206,1304.73C974.366,1309.41 970.702,1313.33 966.022,1313.49L958.761,1313.74C954.082,1313.9 950.159,1310.24 949.998,1305.56L949.213,1282.6L973.42,1281.77L973.508,1284.36Z" style="fill:rgb(130,130,168);fill-rule:nonzero;"/>
            </g>
            <g transform="matrix(1.33798,0,0,1.34725,-825.276,-1132.43)">
                <path d="M943.215,1291.97C943.215,1291.97 936.415,1302.33 937.297,1304.14C938.18,1305.94 945.183,1296.65 945.183,1296.65C945.183,1296.65 944.985,1291.59 943.215,1291.97Z" style="fill:rgb(247,164,145);fill-rule:nonzero;"/>
            </g>
            <g transform="matrix(1.33798,0,0,1.34725,-825.276,-1132.43)">
                <path d="M947.182,1299.33C947.182,1299.33 940.111,1308.99 938.926,1308.15C937.055,1306.83 944.85,1296.13 944.85,1296.13C944.85,1296.13 947.182,1295.71 947.182,1299.33Z" style="fill:rgb(247,164,145);fill-rule:nonzero;"/>
            </g>
            <g transform="matrix(1.33798,0,0,1.34725,-825.276,-1132.43)">
                <path d="M948.43,1302.81C948.43,1302.81 942.382,1310.78 940.881,1309.27C939.381,1307.77 947.271,1299.21 947.271,1299.21C947.271,1299.21 949.347,1301.28 948.43,1302.81Z" style="fill:rgb(247,164,145);fill-rule:nonzero;"/>
            </g>
            <g transform="matrix(1.33798,0,0,1.34725,-825.276,-1132.43)">
                <path d="M932.449,1304.91C932.449,1304.91 931.958,1296.63 932.884,1295.7C933.811,1294.78 940.261,1291.01 941.201,1291.95C942.141,1292.89 935.708,1299.21 935.708,1299.21L932.449,1304.91Z" style="fill:rgb(247,164,145);fill-rule:nonzero;"/>
            </g>
            <g transform="matrix(1.33798,0,0,1.34725,-825.276,-1132.43)">
                <path d="M813,1594.23L858.374,1468.04L866.966,1471.27L822.808,1594.23L813,1594.23Z" style="fill:rgb(130,130,168);fill-rule:nonzero;"/>
            </g>
            <g transform="matrix(1.33798,0,0,1.34725,-825.276,-1132.43)">
                <path d="M952.233,1447.28L828.912,1447.28C818.346,1447.28 809.78,1455.85 809.78,1466.41L809.78,1472.02C809.78,1482.58 818.346,1491.15 828.912,1491.15L952.233,1491.15C962.799,1491.15 971.364,1482.58 971.364,1472.02L971.364,1466.41C971.364,1455.85 962.799,1447.28 952.233,1447.28Z" style="fill:rgb(60,143,124);fill-rule:nonzero;"/>
            </g>
            <g transform="matrix(1.33798,0,0,1.34725,-825.276,-1132.43)">
                <path d="M741.565,1593.61L786.958,1467.34L795.55,1470.57L751.303,1593.61L741.565,1593.61Z" style="fill:rgb(60,143,124);fill-rule:nonzero;"/>
            </g>
            <g transform="matrix(1.33798,0,0,1.34725,-825.276,-1132.43)">
                <path d="M924.22,1594.24L879.861,1473.15L888.453,1469.91L934.382,1594.23L924.22,1594.24Z" style="fill:rgb(130,130,168);fill-rule:nonzero;"/>
            </g>
            <g transform="matrix(1.33798,0,0,1.34725,-825.276,-1132.43)">
                <path d="M856.813,1450.94L839.777,1450.94L795.327,1328.54C793.587,1323.93 789.262,1320.86 784.415,1320.82L731.126,1320.05C722.922,1319.97 715.226,1331.69 719.769,1346.74L753.78,1447.18L753.763,1447.18L763.142,1477.3L863.04,1478.35L856.813,1450.94Z" style="fill:rgb(177,177,222);fill-rule:nonzero;"/>
            </g>
            <g transform="matrix(1.33798,0,0,1.34725,-825.276,-1132.43)">
                <path d="M875.363,1452.08L788.669,1451.89L748.645,1336.3C745.911,1328.41 751.699,1320.15 759.903,1320.23L817.714,1320.82C822.561,1320.86 826.887,1323.93 828.626,1328.54L875.363,1452.08Z" style="fill:rgb(130,130,168);fill-rule:nonzero;"/>
            </g>
            <g transform="matrix(1.33798,0,0,1.34725,-825.276,-1132.43)">
                <path d="M915.864,1447.31C915.864,1447.31 857.066,1458.94 840.954,1456.35C820.335,1453.03 787.073,1447.28 787.073,1447.28C775.689,1447.28 762.375,1455.88 762.375,1466.44L762.375,1472.04C762.375,1482.61 771.604,1491.18 782.988,1491.18L915.864,1491.18C927.249,1491.18 936.478,1482.61 936.478,1472.04L936.478,1466.44C936.478,1455.88 927.249,1447.31 915.864,1447.31Z" style="fill:rgb(177,177,222);fill-rule:nonzero;"/>
            </g>
            <g transform="matrix(1.33798,0,0,1.34725,-825.276,-1132.43)">
                <path d="M928.239,1545.02C930.634,1555.81 931.575,1575.85 931.085,1578.18C930.943,1578.85 931.666,1581.61 932.032,1582.23C946.021,1589.92 960.061,1586.64 971.479,1582.37C963.584,1579.63 953.116,1576.11 951.535,1575.09C947.413,1572.43 949.458,1558.8 950.143,1541.53C944.532,1547.71 936.195,1542.27 928.239,1545.02Z" style="fill:rgb(247,164,145);fill-rule:nonzero;"/>
            </g>
            <g transform="matrix(1.33798,0,0,1.34725,-825.276,-1132.43)">
                <path d="M931.112,1577.97C929.055,1583.16 929.533,1594.07 930.611,1594.24C931.9,1594.43 978.311,1596.29 984.66,1591.7C988.576,1588.86 981.179,1585.93 971.479,1582.37C960.061,1586.64 931.786,1581.46 931.112,1577.97Z" style="fill:rgb(62,61,81);fill-rule:nonzero;"/>
            </g>
            <g transform="matrix(1.33798,0,0,1.34725,-825.276,-1132.43)">
                <path d="M862.855,1395.43L863.882,1409.13C863.882,1409.13 959.69,1422.47 961.229,1440.03C962.77,1457.59 952.415,1564.58 952.415,1564.58L928.929,1566.08C928.929,1566.08 916.792,1508.15 917.928,1488.09C918.96,1469.85 923.028,1459.93 923.028,1459.93C923.028,1459.93 820.02,1455.05 813.47,1452.08C806.919,1449.1 802.259,1440.91 808.804,1414.75C815.349,1388.6 818.814,1381.87 818.814,1381.87L862.855,1395.43Z" style="fill:rgb(88,88,198);fill-rule:nonzero;"/>
            </g>
            <g transform="matrix(1.33798,0,0,1.34725,-825.276,-1132.43)">
                <path d="M924.202,1249.86C926.461,1240.42 928.674,1230.92 922.719,1220.55C917.9,1212.16 909.569,1207.33 899.928,1206.28C872.608,1203.3 878.447,1226.74 840.265,1231.82C828.401,1233.4 817.378,1234.91 807.473,1240.34C789.586,1250.13 788.846,1278.26 794.696,1291.44C822.689,1354.52 895.04,1300.91 903.846,1288.57C910.397,1279.39 922.749,1255.94 924.202,1249.86Z" style="fill:rgb(51,51,67);fill-rule:nonzero;"/>
            </g>
            <g transform="matrix(1.33798,0,0,1.34725,-825.276,-1132.43)">
                <path d="M905.057,1305.24C904.192,1297.08 899.568,1285.74 899.568,1285.74C898.565,1277.52 872.141,1274.73 865.307,1276.09C841.073,1283.73 823.194,1351.59 812.804,1393.44L863.319,1401.44C863.319,1401.44 880.273,1346.31 896.719,1338.2C908.171,1332.55 906.34,1317.34 905.057,1305.24Z" style="fill:rgb(233,250,255);fill-rule:nonzero;"/>
            </g>
            <g transform="matrix(1.33798,0,0,1.34725,-825.276,-1132.43)">
                <path d="M888.149,1254.09C888.149,1254.09 888.041,1254.65 887.847,1255.61C886.917,1260.21 884.013,1273.91 881.594,1278.1C878.67,1283.17 888.202,1305.99 900.648,1304.02C904.354,1303.43 898.544,1291.75 899.796,1286.1C900.503,1282.9 902.651,1272.95 904.383,1264.9C905.714,1258.72 906.8,1253.66 906.8,1253.66L888.149,1254.09Z" style="fill:rgb(247,164,145);fill-rule:nonzero;"/>
            </g>
            <g transform="matrix(1.33798,0,0,1.34725,-825.276,-1132.43)">
                <path d="M887.847,1255.61C888.041,1254.65 888.149,1254.09 888.149,1254.09L906.8,1253.66C906.8,1253.66 905.714,1258.72 904.383,1264.9C903.917,1267.06 903.421,1269.37 902.932,1271.64C900.053,1271.25 897.044,1269.96 894.026,1267.54C890.737,1264.9 888.582,1261.72 887.281,1258.34C887.511,1257.25 887.703,1256.32 887.847,1255.61Z" style="fill:rgb(244,116,88);fill-rule:nonzero;"/>
            </g>
            <g transform="matrix(1.33798,0,0,1.34725,-825.276,-1132.43)">
                <path d="M899.368,1213.33C899.368,1213.33 891.762,1214.3 886.251,1220.84C880.741,1227.38 874.801,1247.6 888.49,1258.6C902.179,1269.59 915.705,1257.15 917.709,1243.95C919.715,1230.76 919.31,1212.86 899.368,1213.33Z" style="fill:rgb(247,164,145);fill-rule:nonzero;"/>
            </g>
            <g transform="matrix(1.33798,0,0,1.34725,-825.276,-1132.43)">
                <path d="M922.091,1239.44C920.457,1242.36 917.714,1243.97 915.965,1243.05C914.216,1242.12 914.122,1239.01 915.756,1236.1C917.39,1233.18 920.133,1231.57 921.882,1232.49C923.631,1233.42 923.725,1236.53 922.091,1239.44Z" style="fill:rgb(247,164,145);fill-rule:nonzero;"/>
            </g>
            <g transform="matrix(1.33798,0,0,1.34725,-825.276,-1132.43)">
                <path d="M901.686,1213.03C901.686,1213.03 889.94,1232.26 881.539,1233.15C873.137,1234.04 872.034,1244.25 872.034,1244.25C872.034,1244.25 875.038,1220.71 883.355,1216.17C891.673,1211.63 901.686,1213.03 901.686,1213.03Z" style="fill:rgb(51,51,67);fill-rule:nonzero;"/>
            </g>
            <g transform="matrix(1.33798,0,0,1.34725,-825.276,-1132.43)">
                <path d="M884.286,1237.73C884.97,1241.14 883.595,1244.27 881.217,1244.72C878.838,1245.17 876.356,1242.77 875.673,1239.35C874.99,1235.94 876.364,1232.8 878.743,1232.36C881.121,1231.91 883.603,1234.31 884.286,1237.73Z" style="fill:rgb(247,164,145);fill-rule:nonzero;"/>
            </g>
            <g transform="matrix(1.33798,0,0,1.34725,-825.276,-1132.43)">
                <path d="M876.81,1304.11C874.115,1329.24 879.692,1364.67 879.692,1364.67L931.368,1381.52C931.368,1381.52 940.189,1378.03 943.008,1379.14C945.827,1380.26 952.017,1382.01 951.053,1383.6C950.089,1385.19 944.837,1382.23 943.473,1382.79C942.107,1383.34 947.119,1387.96 949.224,1389.24C951.329,1390.52 966.897,1387.9 969.227,1388.13C970.482,1388.25 969.21,1389.2 967.281,1390.05C969.52,1389.57 971.807,1389.32 972.622,1389.99C974.401,1391.47 963.492,1394.53 963.492,1394.53C963.492,1394.53 977.896,1391.81 971.371,1394.77C971.371,1394.77 956.203,1402.38 947.646,1398.18C939.09,1393.97 936.734,1393.47 933.863,1392.27C933.027,1391.92 868.934,1388.88 864.36,1384.74C853.488,1374.9 848.83,1332.06 848.138,1307.31C858.225,1304.24 865.908,1303.22 876.81,1304.11Z" style="fill:rgb(247,164,145);fill-rule:nonzero;"/>
            </g>
            <g transform="matrix(1.33798,0,0,1.34725,-825.276,-1132.43)">
                <path d="M881.491,1296.06C881.105,1288.77 879.428,1279.41 871.647,1276.84C866.826,1275.26 861.257,1276.14 857.356,1279.12C852.716,1282.66 847.331,1289.85 846.707,1295.75C845.357,1308.5 845.732,1320.32 847.959,1333.04C856.785,1328.56 869.206,1331.37 879.314,1330.41C879.311,1330.34 882,1305.68 881.491,1296.06Z" style="fill:rgb(164,229,255);fill-rule:nonzero;"/>
            </g>
            <g transform="matrix(1.33798,0,0,1.34725,-825.276,-1132.43)">
                <path d="M974,1526.11C982.181,1535.76 988.117,1545.82 988.765,1547.06C989.076,1547.66 989.197,1551.1 989.504,1551.73C1002.24,1560.11 1015.73,1557.79 1026.81,1554.33C1019.52,1551.18 1009.36,1547.52 1008.41,1545.99C1006.9,1543.56 999.95,1534.75 992.79,1518.9C987.084,1524.58 981.702,1523.93 974,1526.11Z" style="fill:rgb(247,164,145);fill-rule:nonzero;"/>
            </g>
            <g transform="matrix(1.33798,0,0,1.34725,-825.276,-1132.43)">
                <path d="M988.896,1547.53C987.784,1552.61 988.229,1564.92 989.239,1565.14C990.445,1565.41 1033.2,1569.74 1038.67,1564.25C1041.96,1560.95 1035.75,1558.41 1026.81,1554.33C1015.73,1557.79 989.309,1550.97 988.896,1547.53Z" style="fill:rgb(62,61,81);fill-rule:nonzero;"/>
            </g>
            <g transform="matrix(1.33798,0,0,1.34725,-825.276,-1132.43)">
                <path d="M998.042,1525.13L980.689,1535.38C980.689,1535.38 933.28,1464.14 929.545,1447.74C926.137,1432.77 912.936,1426.02 912.936,1426.02L863.934,1409.2C863.934,1409.2 944.478,1406.02 955.097,1412.39C968.588,1420.48 998.042,1525.13 998.042,1525.13Z" style="fill:rgb(116,115,232);fill-rule:nonzero;"/>
            </g>
            <g transform="matrix(1.33798,0,0,1.34725,-825.276,-1132.43)">
                <path d="M701.236,1594.24L745.845,1467.71L737.253,1464.42L691.481,1594.24L701.236,1594.24Z" style="fill:rgb(60,143,124);fill-rule:nonzero;"/>
            </g>
            <g transform="matrix(1.33798,0,0,1.34725,-825.276,-1132.43)">
                <path d="M1080.56,1127.43C1080.56,1127.43 1084.14,1124.44 1089.43,1125.75C1094.14,1126.92 1096.46,1131.47 1095.39,1135.83C1094.14,1140.88 1088.23,1145.76 1075.45,1148.11C1065.24,1140.07 1062.29,1133 1063.54,1127.95C1064.62,1123.59 1068.79,1120.64 1073.5,1121.81C1078.79,1123.12 1080.56,1127.43 1080.56,1127.43Z" style="fill:rgb(255,134,45);fill-rule:nonzero;"/>
            </g>
            <g transform="matrix(1.33798,0,0,1.34725,-825.276,-1132.43)">
                <path d="M1041.1,1119.78C1045.5,1121.66 1049.12,1122.94 1052.75,1124.04C1053.95,1124.4 1055.91,1125.38 1057.05,1124.6C1057.64,1124.2 1057.9,1123.57 1057.59,1122.88C1057.01,1121.62 1055.09,1121.47 1053.88,1121.1C1050.21,1119.99 1046.11,1118.56 1042.05,1116.88C1041.29,1116.56 1040.37,1117.11 1040.12,1117.85C1039.85,1118.7 1040.34,1119.45 1041.1,1119.78Z" style="fill:rgb(255,134,45);fill-rule:nonzero;"/>
            </g>
            <g transform="matrix(1.33798,0,0,1.34725,-825.276,-1132.43)">
                <path d="M1099.53,1147.76C1101.28,1148.32 1103.04,1148.85 1104.79,1149.39C1106.47,1149.9 1108.37,1150.79 1110.13,1150.7C1111.43,1150.64 1112.02,1149.11 1110.92,1148.29C1109.49,1147.23 1107.45,1146.93 1105.76,1146.42C1104,1145.9 1102.24,1145.36 1100.48,1144.86C1098.59,1144.33 1097.65,1147.16 1099.53,1147.76Z" style="fill:rgb(255,134,45);fill-rule:nonzero;"/>
            </g>
            <g transform="matrix(1.33798,0,0,1.34725,-825.276,-1132.43)">
                <path d="M1050.29,1147.7C1053.62,1144.67 1056.65,1144.35 1059.13,1143.56C1060.46,1143.14 1060.35,1141.33 1058.94,1141.13C1055.09,1140.59 1050.96,1142.93 1048.24,1145.46C1046.8,1146.78 1048.84,1149.01 1050.29,1147.7Z" style="fill:rgb(255,134,45);fill-rule:nonzero;"/>
            </g>
            <g transform="matrix(1.33798,0,0,1.34725,-825.276,-1132.43)">
                <path d="M1067.69,1163.14C1068.18,1161.31 1068.99,1159.62 1070.18,1158.14C1070.9,1157.23 1073.88,1154.98 1071.98,1153.81C1070.2,1152.7 1068.18,1155.57 1067.3,1156.78C1066.13,1158.4 1065.27,1160.26 1064.78,1162.19C1064.29,1164.09 1067.19,1165.06 1067.69,1163.14Z" style="fill:rgb(255,134,45);fill-rule:nonzero;"/>
            </g>
            <g transform="matrix(1.33798,0,0,1.34725,-825.276,-1132.43)">
                <path d="M1085.95,1156.65C1086.71,1157.66 1087.47,1158.67 1088.23,1159.67C1088.98,1160.68 1089.6,1161.99 1090.97,1162.12C1091.74,1162.2 1092.24,1161.56 1092.36,1160.88C1092.57,1159.65 1091.23,1158.47 1090.53,1157.56C1089.77,1156.56 1089,1155.56 1088.24,1154.56C1087.73,1153.89 1086.63,1153.93 1086.05,1154.46C1085.38,1155.07 1085.45,1155.98 1085.95,1156.65Z" style="fill:rgb(255,134,45);fill-rule:nonzero;"/>
            </g>
            <g transform="matrix(1.33798,0,0,1.34725,-825.276,-1132.43)">
                <path d="M1071.79,1112.98C1070.81,1102.87 1070.9,1102.85 1070.38,1101.88C1069.84,1100.89 1068.27,1100.97 1067.92,1102.08C1067.58,1103.19 1067.65,1103.01 1068.72,1113.64C1068.81,1114.49 1069.83,1115.01 1070.59,1114.84C1071.5,1114.65 1071.88,1113.82 1071.79,1112.98Z" style="fill:rgb(255,134,45);fill-rule:nonzero;"/>
            </g>
            <g transform="matrix(1.33798,0,0,1.34725,-825.276,-1132.43)">
                <path d="M1087.83,1117.78C1088.87,1116.47 1089.76,1115.07 1090.5,1113.57C1091.18,1112.17 1092.42,1110.12 1091.37,1108.68C1091.15,1108.38 1090.6,1108.21 1090.24,1108.32C1088.73,1108.79 1088.38,1110.86 1087.74,1112.15C1087.04,1113.55 1086.2,1114.88 1085.27,1116.14C1084.79,1116.8 1085.07,1117.81 1085.73,1118.24C1086.47,1118.72 1087.32,1118.43 1087.83,1117.78Z" style="fill:rgb(255,134,45);fill-rule:nonzero;"/>
            </g>
            <g transform="matrix(1.33798,0,0,1.34725,-825.276,-1132.43)">
                <path d="M1109.97,1126.18C1110.44,1125.58 1110.09,1124.76 1109.57,1124.35C1108.51,1123.5 1106.56,1124.19 1105.36,1124.47C1103.97,1124.81 1102.62,1125.28 1101.29,1125.84C1100.53,1126.16 1100.28,1127.22 1100.65,1127.9C1101.07,1128.71 1101.94,1128.85 1102.71,1128.55C1107.79,1126.63 1108.81,1127.67 1109.97,1126.18Z" style="fill:rgb(255,134,45);fill-rule:nonzero;"/>
            </g>
            <g transform="matrix(1.33798,0,0,1.34725,-825.276,-1132.43)">
                <path d="M1197.06,1348.09C1196.96,1346.32 1195.49,1344.94 1193.72,1344.94L1172.1,1344.94C1170.33,1344.94 1168.86,1346.32 1168.76,1348.09L1168.72,1348.68L1197.1,1348.68L1197.06,1348.09Z" style="fill:rgb(251,243,255);fill-rule:nonzero;"/>
            </g>
            <g transform="matrix(1.33798,0,0,1.34725,-825.276,-1132.43)">
                <path d="M1168.72,1348.68L1165.21,1408.28L1200.61,1408.28L1197.1,1348.68L1168.72,1348.68Z" style="fill:rgb(236,225,239);fill-rule:nonzero;"/>
            </g>
            <g transform="matrix(1.33798,0,0,1.34725,-825.276,-1132.43)">
                <path d="M1184.59,1335.23C1184.67,1334.61 1184.18,1334.06 1183.56,1334.06L1182.26,1334.06C1181.63,1334.06 1181.15,1334.61 1181.23,1335.23L1181.23,1335.28L1184.59,1335.28L1184.59,1335.23Z" style="fill:rgb(236,225,239);fill-rule:nonzero;"/>
            </g>
            <g transform="matrix(1.33798,0,0,1.34725,-825.276,-1132.43)">
                <path d="M1198.79,1390.36L1196.4,1388.89C1204.61,1375.53 1214.8,1354.92 1211.74,1350.94C1207.67,1345.65 1196.82,1353.36 1196.71,1353.44L1195.06,1351.18C1195.59,1350.79 1208.18,1341.71 1213.96,1349.24C1219.3,1356.18 1202.26,1384.71 1198.79,1390.36Z" style="fill:rgb(236,225,239);fill-rule:nonzero;"/>
            </g>
            <g transform="matrix(1.33798,0,0,1.34725,-825.276,-1132.43)">
                <path d="M1181.23,1335.28L1182.02,1341.6L1183.8,1341.6L1184.59,1335.28L1181.23,1335.28Z" style="fill:rgb(236,225,239);fill-rule:nonzero;"/>
            </g>
            <g transform="matrix(1.33798,0,0,1.34725,-825.276,-1132.43)">
                <path d="M1182.91,1338.26C1177.25,1338.26 1172.66,1341.24 1172.53,1344.94L1193.29,1344.94C1193.16,1341.24 1188.57,1338.26 1182.91,1338.26Z" style="fill:rgb(236,225,239);fill-rule:nonzero;"/>
            </g>
            <g transform="matrix(1.33798,0,0,1.34725,-825.276,-1132.43)">
                <path d="M1168.04,1360.18L1167.13,1375.7L1157.06,1353.07L1162.39,1353.07L1168.04,1360.18Z" style="fill:rgb(236,225,239);fill-rule:nonzero;"/>
            </g>
            <g transform="matrix(1.33798,0,0,1.34725,-825.276,-1132.43)">
                <path d="M815.467,1188.92C815.165,1188.92 814.866,1188.78 814.667,1188.53C814.323,1188.08 814.403,1187.45 814.845,1187.1L829.39,1175.8C829.832,1175.46 830.469,1175.54 830.813,1175.98C831.156,1176.42 831.076,1177.06 830.634,1177.4L816.089,1188.71C815.904,1188.85 815.685,1188.92 815.467,1188.92Z" style="fill:rgb(247,204,127);fill-rule:nonzero;"/>
            </g>
            <g transform="matrix(1.33798,0,0,1.34725,-825.276,-1132.43)">
                <path d="M838.44,1159.42C838.44,1159.42 838.955,1153.97 844.311,1150.98C849.084,1148.31 854.628,1150.5 857.253,1155.19C860.29,1160.62 859.398,1169.56 850.878,1181.65C836.11,1182.58 828.03,1178.66 824.993,1173.23C822.369,1168.54 823.406,1162.67 828.18,1160C833.535,1157.01 838.44,1159.42 838.44,1159.42Z" style="fill:rgb(255,134,45);fill-rule:nonzero;"/>
            </g>
            <g transform="matrix(1.33798,0,0,1.34725,-825.276,-1132.43)">
                <path d="M849.204,1162.7C848.901,1162.7 848.602,1162.56 848.402,1162.31C848.059,1161.86 848.139,1161.23 848.581,1160.88L874.37,1140.84C874.812,1140.5 875.449,1140.58 875.792,1141.02C876.136,1141.46 876.057,1142.1 875.614,1142.44L849.825,1162.48C849.641,1162.63 849.421,1162.7 849.204,1162.7Z" style="fill:rgb(247,204,127);fill-rule:nonzero;"/>
            </g>
            <g transform="matrix(1.33798,0,0,1.34725,-825.276,-1132.43)">
                <path d="M872.808,1143.74L872.739,1143.74C872.274,1143.7 871.928,1143.3 871.966,1142.83L872.304,1138.66C872.341,1138.2 872.749,1137.85 873.214,1137.89C873.679,1137.93 874.025,1138.33 873.987,1138.8L873.649,1142.97C873.614,1143.41 873.244,1143.74 872.808,1143.74Z" style="fill:rgb(247,204,127);fill-rule:nonzero;"/>
            </g>
            <g transform="matrix(1.33798,0,0,1.34725,-825.276,-1132.43)">
                <path d="M877.73,1144.76C877.697,1144.76 877.664,1144.76 877.632,1144.75L872.788,1144.19C872.324,1144.14 871.992,1143.72 872.046,1143.25C872.1,1142.79 872.522,1142.46 872.982,1142.51L877.826,1143.07C878.29,1143.13 878.622,1143.55 878.568,1144.01C878.518,1144.44 878.153,1144.76 877.73,1144.76Z" style="fill:rgb(247,204,127);fill-rule:nonzero;"/>
            </g>
            <g transform="matrix(1.33798,0,0,1.34725,-825.276,-1132.43)">
                <path d="M874.159,1148.14C874.049,1148.14 873.937,1148.12 873.829,1148.07L868.794,1145.93L868.921,1140.85C868.933,1140.38 869.314,1140.02 869.787,1140.03C870.253,1140.04 870.622,1140.43 870.61,1140.89L870.512,1144.83L874.49,1146.52C874.919,1146.7 875.12,1147.19 874.937,1147.62C874.8,1147.95 874.488,1148.14 874.159,1148.14Z" style="fill:rgb(247,204,127);fill-rule:nonzero;"/>
            </g>
            <g transform="matrix(1.33798,0,0,1.34725,-825.276,-1132.43)">
                <path d="M869.541,1150.5C869.462,1150.5 869.382,1150.49 869.302,1150.47L864.815,1149.15L865.206,1144.07C865.242,1143.61 865.645,1143.26 866.113,1143.3C866.578,1143.33 866.927,1143.74 866.891,1144.2L866.605,1147.91L869.779,1148.85C870.227,1148.98 870.483,1149.45 870.352,1149.9C870.243,1150.27 869.906,1150.5 869.541,1150.5Z" style="fill:rgb(247,204,127);fill-rule:nonzero;"/>
            </g>
            <g transform="matrix(1.33798,0,0,1.34725,-825.276,-1132.43)">
                <path d="M818.509,1177.85L813.271,1190.61L826.197,1186.72L820.706,1183.6L818.509,1177.85Z" style="fill:rgb(247,204,127);fill-rule:nonzero;"/>
            </g>
            <g transform="matrix(1.33798,0,0,1.34725,-825.276,-1132.43)">
                <path d="M984.571,1113.63L976.722,1104.3L981.262,1098.02L974.21,1089.02L979.574,1079.53L983.182,1081.57L979.184,1088.64L986.448,1097.92L981.977,1104.11L987.742,1110.96L984.571,1113.63Z" style="fill:rgb(255,134,45);fill-rule:nonzero;"/>
            </g>
            <g transform="matrix(1.33798,0,0,1.34725,-825.276,-1132.43)">
                <path d="M653.779,1464.47C653.579,1466.18 654.801,1467.73 656.51,1467.93C658.218,1468.13 659.765,1466.9 659.965,1465.19C660.165,1463.48 658.941,1461.94 657.233,1461.74C655.525,1461.54 653.979,1462.76 653.779,1464.47Z" style="fill:rgb(255,134,45);fill-rule:nonzero;"/>
            </g>
            <g transform="matrix(1.33798,0,0,1.34725,-825.276,-1132.43)">
                <path d="M658.412,1466.54C657.248,1468.32 654.48,1467.3 654.726,1465.2C654.853,1464.11 655.838,1463.31 656.959,1463.44C658.455,1463.61 659.22,1465.31 658.412,1466.54Z" style="fill:rgb(255,134,45);fill-rule:nonzero;"/>
            </g>
            <g transform="matrix(1.33798,0,0,1.34725,-825.276,-1132.43)">
                <path d="M638.168,1469.17C639.278,1470.49 639.112,1472.45 637.799,1473.56C636.485,1474.67 634.52,1474.51 633.41,1473.19C632.3,1471.88 632.466,1469.91 633.78,1468.8C635.094,1467.69 637.058,1467.86 638.168,1469.17Z" style="fill:rgb(255,134,45);fill-rule:nonzero;"/>
            </g>
            <g transform="matrix(1.33798,0,0,1.34725,-825.276,-1132.43)">
                <path d="M637.545,1473.15C636.696,1473.86 635.424,1473.76 634.708,1472.91C634.137,1472.23 634.076,1471.24 634.56,1470.5C634.666,1470.34 634.796,1470.2 634.946,1470.07C635.357,1469.72 635.879,1469.55 636.415,1469.6C638.201,1469.75 638.902,1472 637.545,1473.15Z" style="fill:rgb(255,134,45);fill-rule:nonzero;"/>
            </g>
            <g transform="matrix(1.33798,0,0,1.34725,-825.276,-1132.43)">
                <path d="M652.212,1464.38C652.218,1466.1 650.828,1467.5 649.108,1467.51C647.388,1467.51 645.989,1466.12 645.984,1464.4C645.978,1462.68 647.368,1461.28 649.088,1461.27C650.808,1461.27 652.207,1462.66 652.212,1464.38Z" style="fill:rgb(255,134,45);fill-rule:nonzero;"/>
            </g>
            <g transform="matrix(1.33798,0,0,1.34725,-825.276,-1132.43)">
                <path d="M649.18,1467.02C647.572,1467.03 646.619,1465.24 647.488,1463.91C648.592,1462.22 651.181,1463.04 651.187,1465C651.191,1466.11 650.298,1467.02 649.18,1467.02Z" style="fill:rgb(255,134,45);fill-rule:nonzero;"/>
            </g>
            <g transform="matrix(1.33798,0,0,1.34725,-825.276,-1132.43)">
                <path d="M666.048,1469.74C664.947,1471.06 662.984,1471.24 661.663,1470.14C660.341,1469.04 660.163,1467.07 661.264,1465.75C662.365,1464.43 664.329,1464.25 665.65,1465.35C666.971,1466.45 667.15,1468.42 666.048,1469.74Z" style="fill:rgb(255,134,45);fill-rule:nonzero;"/>
            </g>
            <g transform="matrix(1.33798,0,0,1.34725,-825.276,-1132.43)">
                <path d="M664.863,1469.56C664.152,1470.41 662.88,1470.53 662.027,1469.82C661.179,1469.11 661.05,1467.85 661.77,1466.98C662.48,1466.13 663.752,1466.01 664.605,1466.72C665.454,1467.43 665.582,1468.69 664.863,1469.56Z" style="fill:rgb(255,134,45);fill-rule:nonzero;"/>
            </g>
            <g transform="matrix(1.33798,0,0,1.34725,-825.276,-1132.43)">
                <path d="M642.497,1505.7C643.268,1504.16 642.648,1502.29 641.111,1501.52C639.574,1500.74 637.702,1501.36 636.93,1502.9C636.159,1504.44 636.779,1506.31 638.316,1507.08C639.853,1507.86 641.725,1507.24 642.497,1505.7Z" style="fill:rgb(255,134,45);fill-rule:nonzero;"/>
            </g>
            <g transform="matrix(1.33798,0,0,1.34725,-825.276,-1132.43)">
                <path d="M641.74,1504.89C641.18,1505.74 640.069,1506.04 639.154,1505.58C638.086,1505.04 637.71,1503.69 638.375,1502.67C638.935,1501.82 640.046,1501.52 640.961,1501.98C642.036,1502.52 642.403,1503.88 641.74,1504.89Z" style="fill:rgb(255,134,45);fill-rule:nonzero;"/>
            </g>
            <g transform="matrix(1.33798,0,0,1.34725,-825.276,-1132.43)">
                <path d="M632.061,1495.15C633.64,1494.46 634.368,1492.63 633.687,1491.05C633.005,1489.47 631.172,1488.74 629.593,1489.42C628.014,1490.11 627.287,1491.94 627.968,1493.52C628.649,1495.1 630.481,1495.83 632.061,1495.15Z" style="fill:rgb(255,134,45);fill-rule:nonzero;"/>
            </g>
            <g transform="matrix(1.33798,0,0,1.34725,-825.276,-1132.43)">
                <path d="M633.108,1493.21C632.237,1494.54 630.213,1494.38 629.577,1492.91C629.136,1491.88 629.606,1490.7 630.627,1490.26C632.455,1489.47 634.2,1491.55 633.108,1493.21Z" style="fill:rgb(255,134,45);fill-rule:nonzero;"/>
            </g>
            <g transform="matrix(1.33798,0,0,1.34725,-825.276,-1132.43)">
                <path d="M630.846,1480.35C632.494,1480.84 634.229,1479.91 634.722,1478.26C635.215,1476.61 634.279,1474.87 632.632,1474.38C630.984,1473.89 629.249,1474.82 628.755,1476.47C628.262,1478.12 629.198,1479.86 630.846,1480.35Z" style="fill:rgb(255,134,45);fill-rule:nonzero;"/>
            </g>
            <g transform="matrix(1.33798,0,0,1.34725,-825.276,-1132.43)">
                <path d="M630.539,1478.57C630.283,1478.1 630.228,1477.55 630.382,1477.04C630.896,1475.32 633.235,1475.09 634.083,1476.66C634.338,1477.13 634.394,1477.68 634.24,1478.19C633.727,1479.9 631.387,1480.15 630.539,1478.57Z" style="fill:rgb(255,134,45);fill-rule:nonzero;"/>
            </g>
            <g transform="matrix(1.33798,0,0,1.34725,-825.276,-1132.43)">
                <path d="M632.768,1496.55C634.254,1495.68 636.16,1496.19 637.025,1497.67C637.891,1499.16 637.387,1501.07 635.9,1501.93C634.414,1502.8 632.507,1502.29 631.642,1500.81C630.777,1499.32 631.281,1497.41 632.768,1496.55Z" style="fill:rgb(255,134,45);fill-rule:nonzero;"/>
            </g>
            <g transform="matrix(1.33798,0,0,1.34725,-825.276,-1132.43)">
                <path d="M634.317,1500.81C632.596,1500.36 632.268,1498.03 633.819,1497.12C634.779,1496.56 636.013,1496.89 636.572,1497.85C637.477,1499.41 636.036,1501.27 634.317,1500.81Z" style="fill:rgb(255,134,45);fill-rule:nonzero;"/>
            </g>
            <g transform="matrix(1.33798,0,0,1.34725,-825.276,-1132.43)">
                <path d="M639.42,1468.24C640.366,1469.67 642.297,1470.07 643.734,1469.13C645.17,1468.18 645.569,1466.25 644.624,1464.81C643.678,1463.37 641.747,1462.97 640.31,1463.92C638.873,1464.87 638.475,1466.8 639.42,1468.24Z" style="fill:rgb(255,134,45);fill-rule:nonzero;"/>
            </g>
            <g transform="matrix(1.33798,0,0,1.34725,-825.276,-1132.43)">
                <path d="M643.407,1468.76C642.479,1469.37 641.229,1469.12 640.618,1468.19C640.009,1467.26 640.26,1466.01 641.194,1465.4C642.121,1464.79 643.372,1465.05 643.982,1465.98C644.423,1466.65 644.424,1467.51 643.984,1468.19C643.937,1468.25 643.781,1468.52 643.407,1468.76Z" style="fill:rgb(255,134,45);fill-rule:nonzero;"/>
            </g>
            <g transform="matrix(1.33798,0,0,1.34725,-825.276,-1132.43)">
                <path d="M630.487,1481.88C632.182,1482.17 633.318,1483.78 633.025,1485.48C632.733,1487.17 631.122,1488.31 629.426,1488.02C627.731,1487.73 626.595,1486.11 626.888,1484.42C627.181,1482.72 628.792,1481.59 630.487,1481.88Z" style="fill:rgb(255,134,45);fill-rule:nonzero;"/>
            </g>
            <g transform="matrix(1.33798,0,0,1.34725,-825.276,-1132.43)">
                <path d="M630.237,1486.97C628.803,1486.72 628.108,1485.08 628.894,1483.88C629.334,1483.21 630.131,1482.86 630.923,1483C632.016,1483.19 632.753,1484.23 632.563,1485.32C632.374,1486.43 631.329,1487.16 630.237,1486.97Z" style="fill:rgb(255,134,45);fill-rule:nonzero;"/>
            </g>
            <g transform="matrix(1.33798,0,0,1.34725,-825.276,-1132.43)">
                <path d="M652.576,1484.2L656.377,1467.87L655.805,1467.74L651.844,1484.75L649.83,1467.4L649.246,1467.46L651.179,1484.12L643.596,1469.17L643.072,1469.43L650.973,1485.01L638.281,1473.01L637.877,1473.44L650.059,1484.96L634.643,1478.38L634.413,1478.92L650.475,1485.77L633.043,1484.75L633.008,1485.34L649.737,1486.32L633.703,1491.19L633.874,1491.76L650.582,1486.68L636.57,1497.1L636.92,1497.57L650.367,1487.57L641.216,1501.61L641.708,1501.94L662.286,1470.52L661.794,1470.2L652.576,1484.2Z" style="fill:rgb(255,134,45);fill-rule:nonzero;"/>
            </g>
            <g transform="matrix(1.33798,0,0,1.34725,-825.276,-1132.43)">
                <path d="M717.048,1527.19L715.669,1529.3L649.847,1486.16L651.227,1484.05L717.048,1527.19Z" style="fill:rgb(255,134,45);fill-rule:nonzero;"/>
            </g>
            <g transform="matrix(1.33798,0,0,1.34725,-825.276,-1132.43)">
                <path d="M685.466,1384.84C683.769,1387.2 684.311,1390.5 686.677,1392.2C689.042,1393.89 692.336,1393.35 694.033,1390.98C695.729,1388.62 695.188,1385.32 692.822,1383.62C690.456,1381.93 687.163,1382.47 685.466,1384.84Z" style="fill:rgb(255,134,45);fill-rule:nonzero;"/>
            </g>
            <g transform="matrix(1.33798,0,0,1.34725,-825.276,-1132.43)">
                <path d="M690.628,1391.71C687.45,1393.38 684.18,1389.61 686.266,1386.7C687.35,1385.19 689.468,1384.8 691.021,1385.92C693.092,1387.4 692.838,1390.54 690.628,1391.71Z" style="fill:rgb(255,134,45);fill-rule:nonzero;"/>
            </g>
            <g transform="matrix(1.33798,0,0,1.34725,-825.276,-1132.43)">
                <path d="M658.496,1378.99C659.062,1381.85 657.205,1384.62 654.349,1385.19C651.493,1385.76 648.72,1383.9 648.154,1381.04C647.588,1378.18 649.444,1375.41 652.3,1374.84C655.156,1374.28 657.93,1376.13 658.496,1378.99Z" style="fill:rgb(255,134,45);fill-rule:nonzero;"/>
            </g>
            <g transform="matrix(1.33798,0,0,1.34725,-825.276,-1132.43)">
                <path d="M654.313,1384.37C652.47,1384.73 650.673,1383.53 650.308,1381.68C650.017,1380.21 650.738,1378.7 652.06,1378C652.35,1377.85 652.663,1377.74 652.989,1377.68C653.882,1377.5 654.791,1377.68 655.547,1378.19C658.069,1379.88 657.263,1383.78 654.313,1384.37Z" style="fill:rgb(255,134,45);fill-rule:nonzero;"/>
            </g>
            <g transform="matrix(1.33798,0,0,1.34725,-825.276,-1132.43)">
                <path d="M683.219,1383.42C681.816,1385.97 678.612,1386.9 676.06,1385.5C673.508,1384.1 672.577,1380.89 673.979,1378.34C675.381,1375.79 678.586,1374.85 681.138,1376.26C683.689,1377.66 684.621,1380.87 683.219,1383.42Z" style="fill:rgb(255,134,45);fill-rule:nonzero;"/>
            </g>
            <g transform="matrix(1.33798,0,0,1.34725,-825.276,-1132.43)">
                <path d="M676.562,1384.85C674.176,1383.54 674.236,1380.1 676.609,1378.84C679.627,1377.25 682.792,1380.59 681.19,1383.5C680.288,1385.15 678.22,1385.76 676.562,1384.85Z" style="fill:rgb(255,134,45);fill-rule:nonzero;"/>
            </g>
            <g transform="matrix(1.33798,0,0,1.34725,-825.276,-1132.43)">
                <path d="M699.314,1402.71C696.599,1403.76 693.545,1402.42 692.492,1399.7C691.438,1396.99 692.785,1393.93 695.5,1392.88C698.213,1391.82 701.268,1393.17 702.321,1395.89C703.374,1398.6 702.028,1401.66 699.314,1402.71Z" style="fill:rgb(255,134,45);fill-rule:nonzero;"/>
            </g>
            <g transform="matrix(1.33798,0,0,1.34725,-825.276,-1132.43)">
                <path d="M697.707,1401.47C695.955,1402.15 693.976,1401.28 693.296,1399.52C692.62,1397.78 693.466,1395.8 695.24,1395.11C696.992,1394.43 698.971,1395.3 699.651,1397.06C700.327,1398.8 699.481,1400.78 697.707,1401.47Z" style="fill:rgb(255,134,45);fill-rule:nonzero;"/>
            </g>
            <g transform="matrix(1.33798,0,0,1.34725,-825.276,-1132.43)">
                <path d="M634.963,1436.63C637.367,1434.99 637.983,1431.71 636.34,1429.3C634.697,1426.9 631.417,1426.28 629.013,1427.92C626.61,1429.57 625.993,1432.85 627.636,1435.25C629.279,1437.66 632.56,1438.28 634.963,1436.63Z" style="fill:rgb(255,134,45);fill-rule:nonzero;"/>
            </g>
            <g transform="matrix(1.33798,0,0,1.34725,-825.276,-1132.43)">
                <path d="M634.508,1434.81C632.979,1435.61 631.088,1435.14 630.11,1433.71C628.969,1432.04 629.525,1429.73 631.341,1428.77C632.87,1427.96 634.76,1428.43 635.738,1429.87C636.887,1431.55 636.32,1433.85 634.508,1434.81Z" style="fill:rgb(255,134,45);fill-rule:nonzero;"/>
            </g>
            <g transform="matrix(1.33798,0,0,1.34725,-825.276,-1132.43)">
                <path d="M628.16,1412.44C631.057,1412.73 633.638,1410.61 633.924,1407.71C634.21,1404.81 632.093,1402.23 629.196,1401.95C626.299,1401.66 623.718,1403.78 623.432,1406.68C623.146,1409.57 625.263,1412.16 628.16,1412.44Z" style="fill:rgb(255,134,45);fill-rule:nonzero;"/>
            </g>
            <g transform="matrix(1.33798,0,0,1.34725,-825.276,-1132.43)">
                <path d="M631.294,1410.44C628.916,1411.7 626.049,1409.8 626.317,1407.09C626.502,1405.21 628.17,1403.84 630.044,1404.03C633.396,1404.36 634.278,1408.87 631.294,1410.44Z" style="fill:rgb(255,134,45);fill-rule:nonzero;"/>
            </g>
            <g transform="matrix(1.33798,0,0,1.34725,-825.276,-1132.43)">
                <path d="M638.489,1389.54C640.524,1391.62 643.862,1391.66 645.943,1389.62C648.025,1387.58 648.062,1384.24 646.026,1382.16C643.991,1380.08 640.653,1380.04 638.572,1382.08C636.49,1384.12 636.453,1387.46 638.489,1389.54Z" style="fill:rgb(255,134,45);fill-rule:nonzero;"/>
            </g>
            <g transform="matrix(1.33798,0,0,1.34725,-825.276,-1132.43)">
                <path d="M639.492,1386.65C639.502,1385.74 639.866,1384.89 640.517,1384.25C642.685,1382.13 646.342,1383.7 646.309,1386.73C646.299,1387.64 645.934,1388.49 645.283,1389.13C643.122,1391.24 639.458,1389.68 639.492,1386.65Z" style="fill:rgb(255,134,45);fill-rule:nonzero;"/>
            </g>
            <g transform="matrix(1.33798,0,0,1.34725,-825.276,-1132.43)">
                <path d="M628.058,1415.1C630.968,1415.04 633.378,1417.35 633.44,1420.26C633.502,1423.17 631.192,1425.58 628.281,1425.64C625.371,1425.71 622.961,1423.4 622.899,1420.48C622.837,1417.57 625.147,1415.16 628.058,1415.1Z" style="fill:rgb(255,134,45);fill-rule:nonzero;"/>
            </g>
            <g transform="matrix(1.33798,0,0,1.34725,-825.276,-1132.43)">
                <path d="M626.857,1422.68C624.681,1420.6 626.105,1416.88 629.143,1416.81C631.021,1416.77 632.583,1418.27 632.623,1420.15C632.688,1423.19 629.03,1424.77 626.857,1422.68Z" style="fill:rgb(255,134,45);fill-rule:nonzero;"/>
            </g>
            <g transform="matrix(1.33798,0,0,1.34725,-825.276,-1132.43)">
                <path d="M661.116,1378.63C661.338,1381.54 663.871,1383.71 666.774,1383.49C669.677,1383.27 671.851,1380.73 671.629,1377.83C671.407,1374.93 668.875,1372.75 665.972,1372.97C663.069,1373.19 660.895,1375.73 661.116,1378.63Z" style="fill:rgb(255,134,45);fill-rule:nonzero;"/>
            </g>
            <g transform="matrix(1.33798,0,0,1.34725,-825.276,-1132.43)">
                <path d="M666.586,1382.69C664.712,1382.83 663.071,1381.42 662.928,1379.55C662.786,1377.68 664.181,1376.03 666.067,1375.89C667.941,1375.74 669.582,1377.15 669.725,1379.03C669.828,1380.38 669.118,1381.67 667.915,1382.31C667.797,1382.35 667.342,1382.63 666.586,1382.69Z" style="fill:rgb(255,134,45);fill-rule:nonzero;"/>
            </g>
            <g transform="matrix(1.33798,0,0,1.34725,-825.276,-1132.43)">
                <path d="M636.704,1391.51C638.974,1393.33 639.335,1396.65 637.512,1398.92C635.688,1401.19 632.371,1401.55 630.101,1399.73C627.832,1397.9 627.47,1394.58 629.293,1392.31C631.117,1390.04 634.435,1389.68 636.704,1391.51Z" style="fill:rgb(255,134,45);fill-rule:nonzero;"/>
            </g>
            <g transform="matrix(1.33798,0,0,1.34725,-825.276,-1132.43)">
                <path d="M632.164,1398.83C630.244,1397.29 630.559,1394.29 632.707,1393.16C633.91,1392.52 635.373,1392.67 636.433,1393.52C637.898,1394.7 638.133,1396.85 636.955,1398.31C635.771,1399.79 633.626,1400.01 632.164,1398.83Z" style="fill:rgb(255,134,45);fill-rule:nonzero;"/>
            </g>
            <g transform="matrix(1.33798,0,0,1.34725,-825.276,-1132.43)">
                <path d="M667.515,1413.06L686.528,1392L685.789,1391.33L665.977,1413.28L677.218,1385.93L676.298,1385.55L665.509,1411.8L666.536,1383.44L665.542,1383.4L664.471,1412.95L655.513,1384.77L654.564,1385.08L663.163,1412.12L645.728,1389.73L644.943,1390.35L663.11,1413.67L638.136,1397.85L637.604,1398.69L661.569,1413.88L633.832,1407.94L633.624,1408.91L662.528,1415.1L633.233,1419.04L633.366,1420.03L661.478,1416.24L636.414,1429.53L636.88,1430.41L693.103,1400.78L692.642,1399.89L667.515,1413.06Z" style="fill:rgb(255,134,45);fill-rule:nonzero;"/>
            </g>
            <g transform="matrix(1.33798,0,0,1.34725,-825.276,-1132.43)">
                <path d="M727.742,1529.63L723.974,1531.62L661.868,1413.72L665.637,1411.74L727.742,1529.63Z" style="fill:rgb(255,134,45);fill-rule:nonzero;"/>
            </g>
            <g transform="matrix(1.33798,0,0,1.34725,-825.276,-1132.43)">
                <path d="M718.447,1542.36C718.447,1542.36 768.091,1505.49 774.894,1489.6C781.697,1473.71 767.67,1475.51 767.67,1475.51C767.67,1475.51 787.716,1447.09 782.395,1437.7C777.074,1428.31 766.004,1440.3 766.004,1440.3C766.004,1440.3 775.304,1401.86 767.218,1399.72C752.158,1395.74 739.8,1437.11 739.8,1437.11C739.8,1437.11 740.908,1419.94 731.482,1422.25C717.266,1425.74 724.786,1462.72 724.786,1462.72C724.786,1462.72 720.254,1456.16 712.458,1462.4C698.47,1473.59 718.447,1542.36 718.447,1542.36Z" style="fill:rgb(130,130,168);fill-rule:nonzero;"/>
            </g>
            <g transform="matrix(1.33798,0,0,1.34725,-825.276,-1132.43)">
                <path d="M710.355,1463.35C718.151,1457.12 724.786,1462.72 724.786,1462.72C724.786,1462.72 717.266,1425.74 731.482,1422.25C740.908,1419.94 740.058,1436.2 740.058,1436.2C740.058,1436.2 752.158,1395.74 767.218,1399.72L718.077,1542.24C715.88,1533.34 697.289,1473.81 710.355,1463.35Z" style="fill:rgb(62,61,81);fill-rule:nonzero;"/>
            </g>
            <g transform="matrix(1.33798,0,0,1.34725,-825.276,-1132.43)">
                <path d="M718.514,1541.08C718.514,1541.08 752.358,1541.73 770.486,1536.88C774.501,1535.81 777.984,1533.8 779.888,1532.2C790.388,1523.38 777.508,1522.69 777.508,1522.69C777.508,1522.69 806.663,1507.03 806.309,1498.42C805.953,1489.81 794.546,1489.6 794.546,1489.6C794.546,1489.6 810.556,1470.98 804.348,1463.46C796.445,1453.9 776.576,1472.61 776.576,1472.61C776.576,1472.61 778.802,1465.68 771.348,1463.9C760.107,1461.21 748.626,1500.96 748.626,1500.96C748.626,1500.96 750.101,1484.73 742.378,1486.33C728.522,1489.2 718.514,1541.08 718.514,1541.08Z" style="fill:rgb(62,61,81);fill-rule:nonzero;"/>
            </g>
            <g transform="matrix(1.33798,0,0,1.34725,-825.276,-1132.43)">
                <path d="M715.833,1544.29C715.833,1544.29 670.679,1505.74 665.169,1490.21C659.66,1474.68 672.897,1477.24 672.897,1477.24C672.897,1477.24 655.547,1448.98 661.178,1440.37C666.81,1431.76 676.615,1443.84 676.615,1443.84C676.615,1443.84 670.098,1406.7 677.92,1405.16C692.491,1402.28 701.741,1442.4 701.741,1442.4C701.741,1442.4 701.728,1425.99 710.556,1428.76C723.87,1432.94 714.474,1467.67 714.474,1467.67C714.474,1467.67 719.388,1454.69 726.427,1461.1C739.058,1472.59 715.833,1544.29 715.833,1544.29Z" style="fill:rgb(130,130,168);fill-rule:nonzero;"/>
            </g>
            <g transform="matrix(1.33798,0,0,1.34725,-825.276,-1132.43)">
                <path d="M728.609,1458.89C720.448,1453.99 716.396,1460.52 716.396,1460.52C716.396,1460.52 724.438,1432.56 711.124,1428.38C702.295,1425.61 701.444,1439.8 701.444,1439.8C701.444,1439.8 692.495,1402.29 677.925,1405.16L716.776,1547.98C719.406,1539.64 738.331,1464.73 728.609,1458.89Z" style="fill:rgb(177,177,222);fill-rule:nonzero;"/>
            </g>
            <g transform="matrix(1.33798,0,0,1.34725,-825.276,-1132.43)">
                <path d="M711.854,1538.38C711.854,1538.38 682.13,1538.82 664.077,1538.08C656.806,1537.78 651.681,1537.54 650.764,1536.61C646.811,1532.62 656.961,1529.43 656.961,1529.43C656.961,1529.43 640.642,1531.19 638.289,1527.43C635.936,1523.68 642.24,1522.2 642.24,1522.2C642.24,1522.2 626.869,1517.74 627.603,1514.47C628.97,1508.38 645.946,1512.35 645.946,1512.35C645.946,1512.35 642.379,1507.67 644.941,1504.82C648.806,1500.53 661.977,1510.5 661.977,1510.5C661.977,1510.5 657.428,1503.57 660.032,1500.61C670.306,1488.92 711.854,1538.38 711.854,1538.38Z" style="fill:rgb(62,61,81);fill-rule:nonzero;"/>
            </g>
            <g transform="matrix(1.33798,0,0,1.34725,-825.276,-1132.43)">
                <path d="M676.047,1594.23L758.601,1594.23C769.116,1584.63 775.522,1571.39 775.288,1556.88C775.17,1549.55 773.662,1543.16 770.517,1536.88L664.078,1538.08C661.136,1544.45 659.557,1551.46 659.675,1558.79C659.898,1572.62 666.106,1585.08 676.047,1594.23Z" style="fill:rgb(255,134,45);fill-rule:nonzero;"/>
            </g>
            <g transform="matrix(1.33798,0,0,1.34725,-825.276,-1132.43)">
                <path d="M1077.96,1414.91C1077.96,1414.91 1019.84,1424.85 1008.81,1434.12C997.78,1443.39 1043.68,1468.04 1043.68,1468.04C1043.68,1468.04 1066.77,1452.42 1076.81,1450.56C1086.79,1448.72 1105.64,1447.1 1122.84,1441.17C1140.04,1435.24 1123.35,1412.26 1119.32,1409.27C1115.28,1406.27 1077.96,1414.91 1077.96,1414.91Z" style="fill:rgb(226,112,35);fill-rule:nonzero;"/>
            </g>
            <g transform="matrix(1.33798,0,0,1.34725,-825.276,-1132.43)">
                <path d="M1036.48,1282.23C1035.12,1283.14 1032.86,1285.83 1030.51,1293.76C1026.1,1308.64 1020.54,1341.6 1020.54,1341.6L1052.57,1347.55L1054.21,1340.46L1048.75,1282.98C1048.75,1282.98 1037.29,1281.68 1036.48,1282.23Z" style="fill:rgb(88,88,198);fill-rule:nonzero;"/>
            </g>
            <g transform="matrix(1.33798,0,0,1.34725,-825.276,-1132.43)">
                <path d="M1061.09,1275.16C1053.88,1276.55 1044.2,1277.81 1036.45,1282.21L1052.93,1383.53L1050.54,1419.4L1126.29,1412.4C1126.29,1412.4 1115.55,1336.51 1116.66,1324.24C1117.78,1311.97 1119.29,1276.05 1119.29,1276.05C1119.29,1276.05 1106.65,1272.53 1087.4,1272.58C1079.53,1272.59 1068.8,1273.68 1061.09,1275.16Z" style="fill:rgb(116,115,232);fill-rule:nonzero;"/>
            </g>
            <g transform="matrix(1.33798,0,0,1.34725,-825.276,-1132.43)">
                <path d="M1050.19,1566.85C1050.19,1566.85 1052.15,1573.57 1048.28,1577.9C1044.42,1582.23 1028.66,1586.22 1026.56,1588.57C1024.45,1590.91 1024.56,1592.95 1024.56,1592.95L1067.88,1593.83L1068.34,1579.58L1066.53,1570.1L1050.19,1566.85Z" style="fill:rgb(247,164,145);fill-rule:nonzero;"/>
            </g>
            <g transform="matrix(1.33798,0,0,1.34725,-825.276,-1132.43)">
                <path d="M1045.5,1580.05C1045.5,1580.05 1056.7,1584.81 1062.21,1582.25C1067.72,1579.7 1067.57,1578.96 1069.13,1579.99C1070.69,1581.02 1069.81,1594.81 1069.81,1594.81L1021.07,1594.15C1021.07,1594.15 1020.79,1587.97 1024.71,1585.86C1028.62,1583.75 1045.5,1580.05 1045.5,1580.05Z" style="fill:rgb(51,51,67);fill-rule:nonzero;"/>
            </g>
            <g transform="matrix(1.33798,0,0,1.34725,-825.276,-1132.43)">
                <path d="M1038.73,1441.9C1034.82,1435.09 1023.63,1430.85 1023.63,1430.85C1023.63,1430.85 1017.83,1427.96 1008.81,1434.12C999.791,1440.28 1001.75,1458.84 1006.81,1471.82C1011.88,1484.8 1044.52,1560.89 1046.26,1571.55L1067.71,1570.14C1067.71,1570.14 1059.24,1508.63 1057.17,1493.76C1055.19,1479.46 1045.5,1453.68 1038.73,1441.9Z" style="fill:rgb(226,112,35);fill-rule:nonzero;"/>
            </g>
            <g transform="matrix(1.33798,0,0,1.34725,-825.276,-1132.43)">
                <path d="M1086.18,1425.71L1070.05,1464.4L1108.56,1470.08L1127.7,1437.99L1086.18,1425.71Z" style="fill:rgb(226,112,35);fill-rule:nonzero;"/>
            </g>
            <g transform="matrix(1.33798,0,0,1.34725,-825.276,-1132.43)">
                <path d="M1021.74,1548.55C1021.74,1548.55 1012.19,1566.25 1007.03,1570.07C1001.86,1573.89 1001.25,1583.9 1000.89,1585.15C1000.53,1586.41 1002.5,1589.87 1012.61,1593.03C1022.72,1596.18 1026.9,1594.77 1027.66,1590.87C1028.14,1588.43 1027.08,1584.85 1026.5,1581.65C1026.15,1579.73 1025.97,1577.95 1026.41,1576.62C1027.56,1573.09 1036.12,1562.27 1036.12,1562.27L1021.74,1548.55Z" style="fill:rgb(247,164,145);fill-rule:nonzero;"/>
            </g>
            <g transform="matrix(1.33798,0,0,1.34725,-825.276,-1132.43)">
                <path d="M1013.91,1595.38C1024.02,1598.53 1026.9,1594.77 1027.66,1590.87C1028.14,1588.42 1027.07,1584.84 1026.49,1581.63C1025.34,1581.94 1022.84,1582.29 1018.11,1581.7C1013.19,1581.1 1008.17,1575.25 1005.04,1572.03C1001.53,1576.44 998.847,1583.53 998.557,1584.55C998.199,1585.81 1003.79,1592.22 1013.91,1595.38Z" style="fill:rgb(62,61,81);fill-rule:nonzero;"/>
            </g>
            <g transform="matrix(1.33798,0,0,1.34725,-825.276,-1132.43)">
                <path d="M1061.25,1475.86C1052.38,1489.79 1010.49,1560.62 1010.49,1560.62L1032.36,1573.41C1032.36,1573.41 1102.93,1487.93 1107.92,1472.36C1112.92,1456.78 1102.69,1450.15 1096.36,1447.52C1085.95,1443.19 1081.92,1443.41 1061.25,1475.86Z" style="fill:rgb(255,134,45);fill-rule:nonzero;"/>
            </g>
            <g transform="matrix(1.33798,0,0,1.34725,-825.276,-1132.43)">
                <path d="M1212.67,1435.93L1206.18,1594.25L1211.56,1594.24L1229.14,1434.1L1212.67,1435.93Z" style="fill:rgb(24,70,85);fill-rule:nonzero;"/>
            </g>
            <g transform="matrix(1.33798,0,0,1.34725,-825.276,-1132.43)">
                <path d="M1124.68,1404.36L1128.61,1404.34L1128.31,1399.89L1124.65,1399.91C1122.92,1399.92 1121.51,1397.93 1121.49,1395.48L1121.47,1391.02C1121.46,1388.57 1122.85,1386.56 1124.58,1386.55L1129.28,1386.53L1129.25,1382.08L1124.55,1382.1C1121.1,1382.12 1118.31,1386.13 1118.34,1391.04L1118.36,1395.49C1118.39,1400.4 1121.22,1404.38 1124.68,1404.36Z" style="fill:rgb(251,243,255);fill-rule:nonzero;"/>
            </g>
            <g transform="matrix(1.33798,0,0,1.34725,-825.276,-1132.43)">
                <path d="M1152.33,1382.17L1152.44,1402.56C1152.47,1407.24 1148.7,1411.06 1144.01,1411.08L1136.75,1411.12C1132.07,1411.15 1128.25,1407.38 1128.22,1402.69L1128.09,1379.72L1152.31,1379.59L1152.33,1382.17Z" style="fill:rgb(251,243,255);fill-rule:nonzero;"/>
            </g>
            <g transform="matrix(1.33798,0,0,1.34725,-825.276,-1132.43)">
                <path d="M1270.02,1439.12L885.822,1439.12L885.822,1436.6C885.822,1421.03 898.445,1408.41 914.016,1408.41L1241.83,1408.41C1257.4,1408.41 1270.02,1421.03 1270.02,1436.6L1270.02,1439.12Z" style="fill:rgb(51,51,67);fill-rule:nonzero;"/>
            </g>
            <g transform="matrix(1.33798,0,0,1.34725,-825.276,-1132.43)">
                <path d="M923.12,1434.72L930.611,1594.24L924.22,1594.24L903.372,1432.88L923.12,1434.72Z" style="fill:rgb(51,51,67);fill-rule:nonzero;"/>
            </g>
            <g transform="matrix(1.33798,0,0,1.34725,-825.276,-1132.43)">
                <path d="M1238.42,1434.72L1232.17,1594.24L1239.04,1594.23L1254.88,1432.88L1238.42,1434.72Z" style="fill:rgb(24,70,85);fill-rule:nonzero;"/>
            </g>
            <g transform="matrix(1.33798,0,0,1.34725,-825.276,-1132.43)">
                <path d="M1369.88,1439.2C1368.24,1438.71 1366.5,1439.65 1366.01,1441.3C1365.52,1442.95 1366.46,1444.68 1368.11,1445.17C1369.76,1445.66 1371.5,1444.72 1371.98,1443.07C1372.47,1441.42 1371.54,1439.69 1369.88,1439.2Z" style="fill:rgb(255,134,45);fill-rule:nonzero;"/>
            </g>
            <g transform="matrix(1.33798,0,0,1.34725,-825.276,-1132.43)">
                <path d="M1367.05,1443.41C1365.5,1441.96 1366.97,1439.4 1369,1440.01C1370.05,1440.32 1370.68,1441.43 1370.36,1442.51C1369.93,1443.95 1368.13,1444.42 1367.05,1443.41Z" style="fill:rgb(255,134,45);fill-rule:nonzero;"/>
            </g>
            <g transform="matrix(1.33798,0,0,1.34725,-825.276,-1132.43)">
                <path d="M1367.93,1423.01C1366.45,1423.88 1364.54,1423.38 1363.67,1421.9C1362.8,1420.41 1363.3,1418.5 1364.79,1417.64C1366.27,1416.77 1368.18,1417.27 1369.05,1418.75C1369.92,1420.24 1369.42,1422.15 1367.93,1423.01Z" style="fill:rgb(255,134,45);fill-rule:nonzero;"/>
            </g>
            <g transform="matrix(1.33798,0,0,1.34725,-825.276,-1132.43)">
                <path d="M1364.12,1421.72C1363.56,1420.76 1363.89,1419.52 1364.84,1418.96C1365.61,1418.52 1366.59,1418.63 1367.24,1419.23C1367.38,1419.36 1367.5,1419.52 1367.6,1419.69C1367.87,1420.15 1367.95,1420.69 1367.81,1421.21C1367.35,1422.95 1365.02,1423.25 1364.12,1421.72Z" style="fill:rgb(255,134,45);fill-rule:nonzero;"/>
            </g>
            <g transform="matrix(1.33798,0,0,1.34725,-825.276,-1132.43)">
                <path d="M1370.24,1437.67C1368.55,1437.38 1367.41,1435.77 1367.69,1434.08C1367.98,1432.38 1369.59,1431.24 1371.29,1431.53C1372.99,1431.82 1374.13,1433.43 1373.84,1435.13C1373.55,1436.82 1371.94,1437.96 1370.24,1437.67Z" style="fill:rgb(255,134,45);fill-rule:nonzero;"/>
            </g>
            <g transform="matrix(1.33798,0,0,1.34725,-825.276,-1132.43)">
                <path d="M1368.16,1434.23C1368.43,1432.65 1370.36,1432.02 1371.52,1433.1C1372.99,1434.48 1371.74,1436.89 1369.8,1436.56C1368.71,1436.37 1367.97,1435.33 1368.16,1434.23Z" style="fill:rgb(255,134,45);fill-rule:nonzero;"/>
            </g>
            <g transform="matrix(1.33798,0,0,1.34725,-825.276,-1132.43)">
                <path d="M1362.59,1450.38C1361.47,1449.07 1361.63,1447.11 1362.95,1445.99C1364.26,1444.88 1366.22,1445.04 1367.34,1446.35C1368.45,1447.67 1368.29,1449.63 1366.98,1450.74C1365.67,1451.86 1363.7,1451.69 1362.59,1450.38Z" style="fill:rgb(255,118,133);fill-rule:nonzero;"/>
            </g>
            <g transform="matrix(1.33798,0,0,1.34725,-825.276,-1132.43)">
                <path d="M1362.97,1449.25C1362.25,1448.4 1362.35,1447.13 1363.2,1446.41C1364.04,1445.69 1365.31,1445.78 1366.04,1446.64C1366.76,1447.49 1366.65,1448.76 1365.81,1449.48C1364.96,1450.19 1363.7,1450.1 1362.97,1449.25Z" style="fill:rgb(255,134,45);fill-rule:nonzero;"/>
            </g>
            <g transform="matrix(1.33798,0,0,1.34725,-825.276,-1132.43)">
                <path d="M1331.2,1421.01C1332.59,1422.03 1334.54,1421.74 1335.56,1420.36C1336.59,1418.98 1336.3,1417.03 1334.91,1416.01C1333.53,1414.98 1331.58,1415.27 1330.56,1416.65C1329.53,1418.04 1329.82,1419.99 1331.2,1421.01Z" style="fill:rgb(255,134,45);fill-rule:nonzero;"/>
            </g>
            <g transform="matrix(1.33798,0,0,1.34725,-825.276,-1132.43)">
                <path d="M1332.13,1420.4C1331.39,1419.71 1331.29,1418.56 1331.89,1417.74C1332.61,1416.78 1334.01,1416.64 1334.89,1417.47C1335.64,1418.17 1335.74,1419.31 1335.13,1420.14C1334.42,1421.1 1333.02,1421.23 1332.13,1420.4Z" style="fill:rgb(255,134,45);fill-rule:nonzero;"/>
            </g>
            <g transform="matrix(1.33798,0,0,1.34725,-825.276,-1132.43)">
                <path d="M1343.39,1412.54C1343.79,1414.21 1345.47,1415.24 1347.15,1414.84C1348.82,1414.44 1349.85,1412.76 1349.45,1411.09C1349.05,1409.42 1347.37,1408.39 1345.7,1408.79C1344.02,1409.19 1342.99,1410.87 1343.39,1412.54Z" style="fill:rgb(255,134,45);fill-rule:nonzero;"/>
            </g>
            <g transform="matrix(1.33798,0,0,1.34725,-825.276,-1132.43)">
                <path d="M1345.11,1413.9C1343.95,1412.82 1344.46,1410.85 1346.02,1410.48C1347.11,1410.22 1348.19,1410.88 1348.45,1411.97C1348.92,1413.9 1346.57,1415.27 1345.11,1413.9Z" style="fill:rgb(255,134,45);fill-rule:nonzero;"/>
            </g>
            <g transform="matrix(1.33798,0,0,1.34725,-825.276,-1132.43)">
                <path d="M1358.18,1413.88C1357.41,1415.42 1358.03,1417.29 1359.57,1418.06C1361.11,1418.83 1362.98,1418.2 1363.75,1416.67C1364.52,1415.13 1363.89,1413.26 1362.35,1412.49C1360.81,1411.72 1358.94,1412.34 1358.18,1413.88Z" style="fill:rgb(255,134,45);fill-rule:nonzero;"/>
            </g>
            <g transform="matrix(1.33798,0,0,1.34725,-825.276,-1132.43)">
                <path d="M1359.98,1413.88C1360.49,1413.71 1361.04,1413.75 1361.52,1413.99C1363.12,1414.79 1362.95,1417.14 1361.26,1417.7C1360.75,1417.88 1360.2,1417.84 1359.72,1417.6C1358.12,1416.8 1358.28,1414.45 1359.98,1413.88Z" style="fill:rgb(255,134,45);fill-rule:nonzero;"/>
            </g>
            <g transform="matrix(1.33798,0,0,1.34725,-825.276,-1132.43)">
                <path d="M1341.89,1413C1342.49,1414.61 1341.66,1416.4 1340.05,1417C1338.43,1417.59 1336.64,1416.77 1336.04,1415.16C1335.45,1413.54 1336.27,1411.75 1337.88,1411.16C1339.5,1410.56 1341.29,1411.38 1341.89,1413Z" style="fill:rgb(255,134,45);fill-rule:nonzero;"/>
            </g>
            <g transform="matrix(1.33798,0,0,1.34725,-825.276,-1132.43)">
                <path d="M1337.42,1413.79C1338.17,1412.17 1340.52,1412.25 1341.14,1413.93C1341.53,1414.97 1340.99,1416.13 1339.95,1416.52C1338.26,1417.14 1336.68,1415.41 1337.42,1413.79Z" style="fill:rgb(255,134,45);fill-rule:nonzero;"/>
            </g>
            <g transform="matrix(1.33798,0,0,1.34725,-825.276,-1132.43)">
                <path d="M1368.64,1424.41C1367.06,1425.09 1366.34,1426.93 1367.02,1428.5C1367.71,1430.08 1369.54,1430.81 1371.12,1430.12C1372.7,1429.44 1373.42,1427.6 1372.74,1426.03C1372.05,1424.45 1370.22,1423.72 1368.64,1424.41Z" style="fill:rgb(255,134,45);fill-rule:nonzero;"/>
            </g>
            <g transform="matrix(1.33798,0,0,1.34725,-825.276,-1132.43)">
                <path d="M1367.43,1428.24C1366.99,1427.23 1367.46,1426.04 1368.48,1425.6C1369.5,1425.16 1370.68,1425.62 1371.13,1426.64C1371.57,1427.66 1371.1,1428.85 1370.08,1429.29C1369.35,1429.61 1368.49,1429.46 1367.9,1428.91C1367.85,1428.86 1367.61,1428.66 1367.43,1428.24Z" style="fill:rgb(255,134,45);fill-rule:nonzero;"/>
            </g>
            <g transform="matrix(1.33798,0,0,1.34725,-825.276,-1132.43)">
                <path d="M1356.73,1413.27C1356.15,1414.89 1354.37,1415.73 1352.75,1415.15C1351.13,1414.57 1350.28,1412.79 1350.86,1411.17C1351.44,1409.55 1353.23,1408.71 1354.85,1409.28C1356.47,1409.86 1357.31,1411.65 1356.73,1413.27Z" style="fill:rgb(255,134,45);fill-rule:nonzero;"/>
            </g>
            <g transform="matrix(1.33798,0,0,1.34725,-825.276,-1132.43)">
                <path d="M1351.76,1412.15C1352.25,1410.78 1353.99,1410.37 1355.03,1411.35C1355.62,1411.9 1355.83,1412.75 1355.56,1413.5C1355.18,1414.55 1354.03,1415.09 1352.98,1414.72C1351.93,1414.34 1351.39,1413.19 1351.76,1412.15Z" style="fill:rgb(255,134,45);fill-rule:nonzero;"/>
            </g>
            <g transform="matrix(1.33798,0,0,1.34725,-825.276,-1132.43)">
                <path d="M1350.66,1434.63L1366.09,1441.18L1366.32,1440.64L1350.24,1433.81L1367.68,1434.81L1367.71,1434.22L1350.97,1433.27L1367,1428.36L1366.83,1427.8L1350.13,1432.91L1364.13,1422.47L1363.77,1422L1350.34,1432.02L1359.46,1417.96L1358.97,1417.64L1349.46,1432.29L1353.46,1415.29L1352.89,1415.16L1349.05,1431.47L1347,1414.84L1346.42,1414.91L1348.55,1432.24L1340.69,1416.65L1340.16,1416.91L1347.71,1431.88L1335.45,1420.45L1335.05,1420.88L1362.46,1446.54L1362.87,1446.11L1350.66,1434.63Z" style="fill:rgb(255,134,45);fill-rule:nonzero;"/>
            </g>
            <g transform="matrix(1.33798,0,0,1.34725,-825.276,-1132.43)">
                <path d="M1297.24,1490.77L1295.4,1489.05L1349.19,1431.6L1351.03,1433.33L1297.24,1490.77Z" style="fill:rgb(255,134,45);fill-rule:nonzero;"/>
            </g>
            <g transform="matrix(1.33798,0,0,1.34725,-825.276,-1132.43)">
                <path d="M1375.57,1362.39C1372.66,1362.51 1370.41,1364.97 1370.53,1367.88C1370.66,1370.79 1373.12,1373.05 1376.03,1372.92C1378.94,1372.8 1381.19,1370.34 1381.07,1367.43C1380.94,1364.52 1378.48,1362.26 1375.57,1362.39Z" style="fill:rgb(255,134,45);fill-rule:nonzero;"/>
            </g>
            <g transform="matrix(1.33798,0,0,1.34725,-825.276,-1132.43)">
                <path d="M1373.36,1370.69C1370.08,1369.22 1371.02,1364.32 1374.6,1364.17C1376.46,1364.09 1378.07,1365.52 1378.15,1367.43C1378.26,1369.97 1375.64,1371.71 1373.36,1370.69Z" style="fill:rgb(255,134,45);fill-rule:nonzero;"/>
            </g>
            <g transform="matrix(1.33798,0,0,1.34725,-825.276,-1132.43)">
                <path d="M1363.52,1337.56C1361.62,1339.77 1358.29,1340.02 1356.09,1338.13C1353.88,1336.23 1353.63,1332.9 1355.53,1330.69C1357.42,1328.48 1360.75,1328.23 1362.96,1330.13C1365.17,1332.02 1365.42,1335.35 1363.52,1337.56Z" style="fill:rgb(255,134,45);fill-rule:nonzero;"/>
            </g>
            <g transform="matrix(1.33798,0,0,1.34725,-825.276,-1132.43)">
                <path d="M1356.71,1337.59C1355.29,1336.36 1355.12,1334.21 1356.35,1332.78C1357.33,1331.65 1358.96,1331.28 1360.33,1331.89C1360.63,1332.02 1360.9,1332.2 1361.16,1332.42C1361.85,1333.01 1362.27,1333.84 1362.33,1334.75C1362.56,1337.77 1358.99,1339.55 1356.71,1337.59Z" style="fill:rgb(255,134,45);fill-rule:nonzero;"/>
            </g>
            <g transform="matrix(1.33798,0,0,1.34725,-825.276,-1132.43)">
                <path d="M1375.3,1359.75C1372.43,1360.22 1369.72,1358.27 1369.24,1355.4C1368.77,1352.52 1370.72,1349.81 1373.59,1349.34C1376.47,1348.87 1379.18,1350.81 1379.65,1353.69C1380.12,1356.56 1378.17,1359.27 1375.3,1359.75Z" style="fill:rgb(255,134,45);fill-rule:nonzero;"/>
            </g>
            <g transform="matrix(1.33798,0,0,1.34725,-825.276,-1132.43)">
                <path d="M1370.07,1355.39C1369.63,1352.7 1372.37,1350.63 1374.82,1351.72C1377.93,1353.11 1377.26,1357.66 1373.98,1358.2C1372.13,1358.5 1370.37,1357.26 1370.07,1355.39Z" style="fill:rgb(255,134,45);fill-rule:nonzero;"/>
            </g>
            <g transform="matrix(1.33798,0,0,1.34725,-825.276,-1132.43)">
                <path d="M1370.06,1384.32C1367.56,1382.83 1366.73,1379.6 1368.22,1377.09C1369.7,1374.59 1372.94,1373.76 1375.44,1375.24C1377.95,1376.73 1378.77,1379.96 1377.29,1382.47C1375.8,1384.97 1372.56,1385.8 1370.06,1384.32Z" style="fill:rgb(255,134,45);fill-rule:nonzero;"/>
            </g>
            <g transform="matrix(1.33798,0,0,1.34725,-825.276,-1132.43)">
                <path d="M1370.04,1382.29C1368.43,1381.33 1367.89,1379.23 1368.85,1377.62C1369.8,1376.01 1371.88,1375.45 1373.52,1376.42C1375.14,1377.38 1375.68,1379.47 1374.72,1381.09C1373.76,1382.7 1371.68,1383.25 1370.04,1382.29Z" style="fill:rgb(255,134,45);fill-rule:nonzero;"/>
            </g>
            <g transform="matrix(1.33798,0,0,1.34725,-825.276,-1132.43)">
                <path d="M1303.65,1354.63C1306.43,1355.51 1309.39,1353.97 1310.26,1351.19C1311.14,1348.41 1309.6,1345.45 1306.83,1344.57C1304.05,1343.7 1301.09,1345.24 1300.21,1348.02C1299.33,1350.79 1300.87,1353.75 1303.65,1354.63Z" style="fill:rgb(255,134,45);fill-rule:nonzero;"/>
            </g>
            <g transform="matrix(1.33798,0,0,1.34725,-825.276,-1132.43)">
                <path d="M1304.8,1353.15C1303.22,1352.44 1302.43,1350.66 1302.95,1349.01C1303.56,1347.08 1305.72,1346.09 1307.6,1346.93C1309.18,1347.63 1309.97,1349.41 1309.45,1351.06C1308.84,1353 1306.67,1353.98 1304.8,1353.15Z" style="fill:rgb(255,134,45);fill-rule:nonzero;"/>
            </g>
            <g transform="matrix(1.33798,0,0,1.34725,-825.276,-1132.43)">
                <path d="M1318.48,1334.35C1320.04,1336.8 1323.3,1337.53 1325.76,1335.96C1328.22,1334.4 1328.94,1331.14 1327.38,1328.68C1325.81,1326.23 1322.55,1325.5 1320.1,1327.07C1317.64,1328.63 1316.92,1331.89 1318.48,1334.35Z" style="fill:rgb(255,134,45);fill-rule:nonzero;"/>
            </g>
            <g transform="matrix(1.33798,0,0,1.34725,-825.276,-1132.43)">
                <path d="M1321.99,1335.58C1319.53,1334.48 1319.26,1331.05 1321.55,1329.59C1323.14,1328.58 1325.25,1329.05 1326.26,1330.63C1328.07,1333.48 1325.07,1336.95 1321.99,1335.58Z" style="fill:rgb(255,134,45);fill-rule:nonzero;"/>
            </g>
            <g transform="matrix(1.33798,0,0,1.34725,-825.276,-1132.43)">
                <path d="M1342.88,1328.33C1342.49,1331.22 1344.52,1333.87 1347.41,1334.25C1350.3,1334.63 1352.95,1332.6 1353.33,1329.71C1353.71,1326.82 1351.68,1324.17 1348.79,1323.79C1345.91,1323.41 1343.26,1325.45 1342.88,1328.33Z" style="fill:rgb(255,134,45);fill-rule:nonzero;"/>
            </g>
            <g transform="matrix(1.33798,0,0,1.34725,-825.276,-1132.43)">
                <path d="M1345.77,1327.34C1346.49,1326.79 1347.38,1326.54 1348.29,1326.66C1351.29,1327.06 1352.31,1330.91 1349.91,1332.75C1349.19,1333.3 1348.29,1333.54 1347.39,1333.42C1344.39,1333.03 1343.36,1329.18 1345.77,1327.34Z" style="fill:rgb(255,134,45);fill-rule:nonzero;"/>
            </g>
            <g transform="matrix(1.33798,0,0,1.34725,-825.276,-1132.43)">
                <path d="M1316.33,1335.91C1318.17,1338.16 1317.84,1341.48 1315.59,1343.33C1313.34,1345.17 1310.01,1344.84 1308.17,1342.59C1306.32,1340.34 1306.65,1337.02 1308.91,1335.17C1311.16,1333.32 1314.48,1333.65 1316.33,1335.91Z" style="fill:rgb(255,134,45);fill-rule:nonzero;"/>
            </g>
            <g transform="matrix(1.33798,0,0,1.34725,-825.276,-1132.43)">
                <path d="M1309.62,1339.64C1309.92,1336.64 1313.72,1335.47 1315.65,1337.82C1316.84,1339.27 1316.62,1341.42 1315.17,1342.62C1312.81,1344.55 1309.32,1342.64 1309.62,1339.64Z" style="fill:rgb(255,134,45);fill-rule:nonzero;"/>
            </g>
            <g transform="matrix(1.33798,0,0,1.34725,-825.276,-1132.43)">
                <path d="M1365.42,1339.4C1363.27,1341.37 1363.13,1344.7 1365.09,1346.85C1367.06,1349 1370.39,1349.14 1372.54,1347.18C1374.69,1345.21 1374.84,1341.87 1372.87,1339.73C1370.91,1337.58 1367.57,1337.43 1365.42,1339.4Z" style="fill:rgb(255,134,45);fill-rule:nonzero;"/>
            </g>
            <g transform="matrix(1.33798,0,0,1.34725,-825.276,-1132.43)">
                <path d="M1365.61,1346.21C1364.34,1344.82 1364.44,1342.66 1365.82,1341.39C1367.21,1340.12 1369.36,1340.21 1370.64,1341.6C1371.91,1342.99 1371.81,1345.15 1370.43,1346.42C1369.42,1347.34 1367.97,1347.57 1366.73,1347.02C1366.62,1346.95 1366.12,1346.77 1365.61,1346.21Z" style="fill:rgb(255,134,45);fill-rule:nonzero;"/>
            </g>
            <g transform="matrix(1.33798,0,0,1.34725,-825.276,-1132.43)">
                <path d="M1340.22,1328.14C1340.19,1331.05 1337.8,1333.39 1334.89,1333.36C1331.98,1333.32 1329.65,1330.94 1329.68,1328.02C1329.71,1325.11 1332.1,1322.78 1335.01,1322.81C1337.93,1322.84 1340.26,1325.23 1340.22,1328.14Z" style="fill:rgb(255,134,45);fill-rule:nonzero;"/>
            </g>
            <g transform="matrix(1.33798,0,0,1.34725,-825.276,-1132.43)">
                <path d="M1331.66,1329.1C1331.69,1326.63 1334.24,1325.03 1336.46,1326.02C1337.7,1326.57 1338.49,1327.81 1338.47,1329.17C1338.45,1331.05 1336.9,1332.56 1335.03,1332.54C1333.13,1332.52 1331.63,1330.97 1331.66,1329.1Z" style="fill:rgb(255,134,45);fill-rule:nonzero;"/>
            </g>
            <g transform="matrix(1.33798,0,0,1.34725,-825.276,-1132.43)">
                <path d="M1342.29,1365.69L1370.59,1367.65L1370.66,1366.65L1341.16,1364.61L1369.62,1356.57L1369.35,1355.62L1342.04,1363.33L1364.99,1346.63L1364.4,1345.83L1340.49,1363.23L1357.13,1338.78L1356.31,1338.23L1340.34,1361.69L1347.19,1334.15L1346.22,1333.91L1339.09,1362.6L1336.11,1333.19L1335.12,1333.29L1337.98,1361.51L1325.52,1336.03L1324.63,1336.46L1337.61,1363.02L1316.42,1342.41L1315.73,1343.12L1336.05,1362.9L1310.13,1351.39L1309.72,1352.3L1367.75,1378.24L1368.16,1377.33L1342.29,1365.69Z" style="fill:rgb(255,134,45);fill-rule:nonzero;"/>
            </g>
            <g transform="matrix(1.33798,0,0,1.34725,-825.276,-1132.43)">
                <path d="M1287.76,1485.03L1283.87,1483.29L1338.28,1361.66L1342.17,1363.39L1287.76,1485.03Z" style="fill:rgb(255,134,45);fill-rule:nonzero;"/>
            </g>
            <g transform="matrix(1.33798,0,0,1.34725,-825.276,-1132.43)">
                <path d="M1252.83,1536.29C1252.83,1536.29 1308.07,1495.27 1315.64,1477.59C1323.21,1459.91 1307.6,1461.9 1307.6,1461.9C1307.6,1461.9 1329.91,1430.28 1323.99,1419.84C1318.07,1409.39 1305.75,1422.73 1305.75,1422.73C1305.75,1422.73 1316.1,1379.95 1307.1,1377.57C1290.34,1373.14 1276.59,1419.18 1276.59,1419.18C1276.59,1419.18 1277.82,1400.07 1267.33,1402.64C1251.52,1406.52 1259.88,1447.67 1259.88,1447.67C1259.88,1447.67 1254.84,1440.38 1246.17,1447.32C1230.6,1459.77 1252.83,1536.29 1252.83,1536.29Z" style="fill:rgb(130,130,168);fill-rule:nonzero;"/>
            </g>
            <g transform="matrix(1.33798,0,0,1.34725,-825.276,-1132.43)">
                <path d="M1243.83,1448.38C1252.5,1441.44 1259.88,1447.67 1259.88,1447.67C1259.88,1447.67 1251.52,1406.52 1267.33,1402.64C1277.82,1400.07 1276.59,1419.18 1276.59,1419.18C1276.59,1419.18 1290.34,1373.14 1307.1,1377.57L1252.42,1536.16C1249.97,1526.26 1229.29,1460.02 1243.83,1448.38Z" style="fill:rgb(62,61,81);fill-rule:nonzero;"/>
            </g>
            <g transform="matrix(1.33798,0,0,1.34725,-825.276,-1132.43)">
                <path d="M1252.9,1534.87C1252.9,1534.87 1291.21,1535.77 1311.09,1530.1C1315.09,1528.95 1319.24,1526.64 1321.2,1524.99C1332.88,1515.18 1318.55,1514.41 1318.55,1514.41C1318.55,1514.41 1350.99,1496.98 1350.6,1487.4C1350.21,1477.82 1337.51,1477.59 1337.51,1477.59C1337.51,1477.59 1355.33,1456.86 1348.42,1448.5C1339.62,1437.86 1317.51,1458.68 1317.51,1458.68C1317.51,1458.68 1319.99,1450.97 1311.7,1448.98C1299.19,1445.99 1286.41,1490.23 1286.41,1490.23C1286.41,1490.23 1288.05,1472.17 1279.46,1473.95C1264.04,1477.15 1252.9,1534.87 1252.9,1534.87Z" style="fill:rgb(177,177,222);fill-rule:nonzero;"/>
            </g>
            <g transform="matrix(1.33798,0,0,1.34725,-825.276,-1132.43)">
                <path d="M1250.55,1538.02C1250.55,1538.02 1200.31,1495.12 1194.18,1477.84C1188.05,1460.56 1202.78,1463.41 1202.78,1463.41C1202.78,1463.41 1181.14,1429.64 1187.4,1420.05C1193.67,1410.47 1204.53,1422.15 1204.53,1422.15C1204.53,1422.15 1199.66,1384.92 1208.37,1383.2C1224.58,1380 1234.87,1424.64 1234.87,1424.64C1234.87,1424.64 1234.86,1406.38 1244.68,1409.46C1259.5,1414.12 1249.04,1452.76 1249.04,1452.76C1249.04,1452.76 1254.51,1438.32 1262.34,1445.45C1276.4,1458.24 1250.55,1538.02 1250.55,1538.02Z" style="fill:rgb(214,214,237);fill-rule:nonzero;"/>
            </g>
            <g transform="matrix(1.33798,0,0,1.34725,-825.276,-1132.43)">
                <path d="M1264.55,1436.84C1255.29,1431.69 1252.33,1440.75 1252.33,1440.75C1252.33,1440.75 1259.5,1414.12 1244.68,1409.46C1234.86,1406.38 1234.87,1424.64 1234.87,1424.64C1234.87,1424.64 1224.58,1380 1208.37,1383.2L1251.46,1542.61C1254.39,1533.33 1278.05,1444.34 1264.55,1436.84Z" style="fill:rgb(177,177,222);fill-rule:nonzero;"/>
            </g>
            <g transform="matrix(1.33798,0,0,1.34725,-825.276,-1132.43)">
                <path d="M1245.49,1531.86C1245.49,1531.86 1210.51,1531.98 1192.37,1531.53C1187.73,1531.42 1184.18,1531.17 1182.62,1530.99C1174.94,1530.1 1183.43,1523.24 1183.43,1523.24C1183.43,1523.24 1167.63,1525.07 1165.01,1520.89C1162.39,1516.71 1168.03,1513.86 1168.03,1513.86C1168.03,1513.86 1157.09,1508.34 1157.91,1504.7C1159.43,1497.92 1172.15,1502.9 1172.15,1502.9C1172.15,1502.9 1168.97,1500.2 1171.82,1497.04C1176.12,1492.26 1190.66,1504.54 1190.66,1504.54C1190.66,1504.54 1184.55,1492.76 1187.83,1489.84C1204.62,1474.89 1245.49,1531.86 1245.49,1531.86Z" style="fill:rgb(62,61,81);fill-rule:nonzero;"/>
            </g>
            <g transform="matrix(1.33798,0,0,1.34725,-825.276,-1132.43)">
                <path d="M1205.68,1594.23L1297.46,1594.23C1309.16,1583.54 1316.34,1568.6 1316.08,1552.45C1315.95,1544.29 1314.27,1537.18 1310.77,1530.2L1192.33,1531.53C1189.06,1538.63 1187.3,1546.42 1187.43,1554.58C1187.68,1569.96 1194.62,1584.05 1205.68,1594.23Z" style="fill:rgb(255,134,45);fill-rule:nonzero;"/>
            </g>
            <g transform="matrix(1.33798,0,0,1.34725,-825.276,-1132.43)">
                <path d="M1182.91,1213.61C1182.91,1213.61 1188.01,1211.93 1193.16,1215.37C1197.75,1218.44 1198.36,1224.06 1195.37,1228.14C1191.92,1232.86 1183.52,1235.57 1168.76,1232.95C1161.11,1220.62 1160.89,1212.15 1164.34,1207.42C1167.33,1203.34 1173.05,1201.95 1177.65,1205.02C1182.8,1208.45 1182.91,1213.61 1182.91,1213.61Z" style="fill:rgb(226,112,35);fill-rule:nonzero;"/>
            </g>
            <g transform="matrix(1.33798,0,0,1.34725,-825.276,-1132.43)">
                <path d="M1195.37,1228.14C1198.36,1224.06 1197.75,1218.44 1193.16,1215.37C1188.01,1211.93 1182.91,1213.61 1182.91,1213.61C1182.91,1213.61 1168.75,1232.91 1168.76,1232.95C1183.52,1235.57 1191.92,1232.86 1195.37,1228.14Z" style="fill:rgb(255,134,45);fill-rule:nonzero;"/>
            </g>
            <g transform="matrix(1.33798,0,0,1.34725,-825.276,-1132.43)">
                <path d="M1121.95,1278.9C1117.64,1270.08 1067.71,1359.4 1067.71,1359.4C1057.36,1358.25 1014.8,1366.63 1008.55,1365.05C1006.01,1364.41 1000.57,1361.17 998.084,1360.39C995.533,1359.59 993.19,1359 991.844,1359.01C991.349,1359.01 976.898,1362.23 975.492,1363.24C973.749,1364.49 969.098,1367.6 969.361,1369.33C969.624,1371.07 977.681,1366.05 977.681,1366.05L981.351,1364.76C976.388,1368.07 967.47,1372.03 968.135,1374.14C968.783,1376.2 976.965,1372.04 982.759,1369.24C977.613,1372.41 970.728,1378.48 971.691,1379.77C972.558,1380.94 980.423,1373.89 987.372,1372.66C989.947,1372.21 991.765,1375 993.568,1375.61C994.892,1376.06 996.909,1376.87 998.347,1376.71L1007.95,1376.51C1010.15,1377.11 1049.46,1383.54 1073.88,1379.9C1083.39,1378.48 1109.27,1353.23 1120.89,1328.09C1130.24,1307.89 1125.46,1286.05 1121.95,1278.9Z" style="fill:rgb(247,164,145);fill-rule:nonzero;"/>
            </g>
            <g transform="matrix(1.33798,0,0,1.34725,-825.276,-1132.43)">
                <path d="M1117.1,1341.16C1127.52,1320.07 1136.61,1279.11 1116.69,1275.43C1103.83,1273.05 1092.03,1294.7 1081.37,1333.99C1086.65,1336.66 1108.93,1344.63 1117.1,1341.16Z" style="fill:rgb(88,88,198);fill-rule:nonzero;"/>
            </g>
            <g transform="matrix(1.33798,0,0,1.34725,-825.276,-1132.43)">
                <path d="M1082.24,1243.97L1086.65,1272.82C1086.65,1272.82 1071.26,1297.43 1061.66,1294.45C1053.6,1291.95 1057.85,1271.3 1057.85,1271.3C1057.85,1271.3 1059.39,1265.59 1060.37,1259.23C1061.05,1254.84 1061.47,1250.15 1060.93,1246.81C1059.61,1238.64 1082.24,1243.97 1082.24,1243.97Z" style="fill:rgb(247,164,145);fill-rule:nonzero;"/>
            </g>
            <g transform="matrix(1.33798,0,0,1.34725,-825.276,-1132.43)">
                <path d="M1060.93,1246.81C1059.61,1238.64 1082.24,1243.97 1082.24,1243.97L1082.61,1246.37C1081.95,1247.97 1081.14,1249.34 1080.15,1250.39C1075.1,1255.79 1067.2,1259.04 1060.37,1259.28C1061.05,1254.88 1061.47,1250.16 1060.93,1246.81Z" style="fill:rgb(244,116,88);fill-rule:nonzero;"/>
            </g>
            <g transform="matrix(1.33798,0,0,1.34725,-825.276,-1132.43)">
                <path d="M1085.96,1203.17C1086.6,1202.93 1091.08,1236.02 1082.57,1245.12C1074.05,1254.22 1057.46,1257.2 1051.51,1250.03C1044.93,1242.1 1045.26,1206.55 1058.5,1197.18C1071.74,1187.82 1085.96,1203.17 1085.96,1203.17Z" style="fill:rgb(247,164,145);fill-rule:nonzero;"/>
            </g>
            <g transform="matrix(1.33798,0,0,1.34725,-825.276,-1132.43)">
                <path d="M1067.57,1182.62C1077.8,1184.69 1093.8,1193.51 1100.32,1204.24C1108.34,1217.43 1102.42,1232.04 1093.08,1239.21C1083.75,1246.38 1083.88,1254.65 1083.88,1254.65L1082.4,1250.38C1081.31,1247.13 1080.87,1243.69 1081.23,1240.29C1081.45,1238.25 1081.89,1236.04 1082.74,1234.22C1084.99,1229.44 1077.92,1226.25 1075.94,1222.27C1074.41,1219.2 1074.34,1212.19 1071.93,1207.12L1069.06,1203.25C1069.06,1203.25 1062.59,1199.32 1055.96,1199.57C1051.95,1199.72 1054.44,1179.96 1067.57,1182.62Z" style="fill:rgb(51,51,67);fill-rule:nonzero;"/>
            </g>
            <g transform="matrix(1.33798,0,0,1.34725,-825.276,-1132.43)">
                <path d="M1076.37,1228.16C1076.3,1232.2 1078.15,1235.5 1080.5,1235.54C1082.84,1235.58 1084.8,1232.34 1084.87,1228.3C1084.94,1224.27 1083.09,1220.96 1080.74,1220.92C1078.4,1220.88 1076.44,1224.12 1076.37,1228.16Z" style="fill:rgb(247,164,145);fill-rule:nonzero;"/>
            </g>
            <g transform="matrix(1.33798,0,0,1.34725,-825.276,-1132.43)">
                <path d="M932.884,1395.36C932.884,1395.36 943.734,1377.34 946.647,1379.01C949.56,1380.67 940.881,1392.62 940.881,1392.62C940.881,1392.62 947.713,1377.26 950.096,1379.65C952.479,1382.03 946.786,1393.15 946.786,1393.95C946.786,1394.74 950.68,1380.23 951.95,1381.5C953.22,1382.77 952.678,1397.06 953.273,1397.65C953.87,1398.25 975.157,1394.64 975.157,1394.64C975.157,1394.64 952.812,1404.27 948.011,1403.08C943.211,1401.89 931.825,1399.41 932.884,1395.36Z" style="fill:rgb(244,140,127);fill-rule:nonzero;"/>
            </g>
        </g>
    </g>
</svg>
