<?xml version="1.0" encoding="UTF-8" standalone="no"?>
<!DOCTYPE svg PUBLIC "-//W3C//DTD SVG 1.1//EN" "http://www.w3.org/Graphics/SVG/1.1/DTD/svg11.dtd">
<svg width="100%" height="100%" viewBox="0 0 1024 768" version="1.1" xmlns="http://www.w3.org/2000/svg" xmlns:xlink="http://www.w3.org/1999/xlink" xml:space="preserve" xmlns:serif="http://www.serif.com/" style="fill-rule:evenodd;clip-rule:evenodd;stroke-linejoin:round;stroke-miterlimit:2;">
    <g transform="matrix(0.439894,0,0,0.439894,29.5989,-563.415)">
        <path d="M1578.28,1564.32C1578.28,1564.32 1581.34,1555.68 1591.59,1552.6C1600.72,1549.85 1609.21,1555.22 1611.75,1563.68C1614.7,1573.47 1609.59,1587.64 1590.34,1604.41C1565.02,1601.04 1552.95,1592.04 1550.01,1582.25C1547.46,1573.79 1551.58,1564.63 1560.71,1561.89C1570.96,1558.8 1578.28,1564.32 1578.28,1564.32Z" style="fill:rgb(255,134,45);fill-rule:nonzero;"/>
    </g>
    <g transform="matrix(0.439894,0,0,0.439894,29.5989,-563.415)">
        <path d="M1503.89,1590.9C1513.21,1589.68 1520.63,1588.22 1527.85,1586.43C1530.24,1585.85 1534.54,1585.53 1535.69,1583.08C1536.28,1581.81 1536.1,1580.48 1534.88,1579.64C1532.63,1578.09 1529.24,1579.75 1526.83,1580.34C1519.52,1582.14 1511.15,1583.83 1502.59,1585.05C1500.99,1585.28 1499.98,1587.13 1500.32,1588.63C1500.69,1590.33 1502.28,1591.12 1503.89,1590.9Z" style="fill:rgb(255,134,45);fill-rule:nonzero;"/>
    </g>
    <g transform="matrix(0.439894,0,0,0.439894,29.5989,-563.415)">
        <path d="M1630.71,1579.7C1634.23,1578.9 1637.72,1578.04 1641.23,1577.18C1644.58,1576.36 1648.68,1575.98 1651.58,1574.06C1653.71,1572.64 1653.17,1569.48 1650.49,1569.2C1647.02,1568.83 1643.26,1570.37 1639.9,1571.2C1636.4,1572.07 1632.89,1572.93 1629.41,1573.85C1625.68,1574.83 1626.93,1580.57 1630.71,1579.7Z" style="fill:rgb(255,134,45);fill-rule:nonzero;"/>
    </g>
    <g transform="matrix(0.439894,0,0,0.439894,29.5989,-563.415)">
        <path d="M1547.39,1628.9C1550,1620.45 1554.8,1616.87 1558.2,1613.05C1560.02,1611 1558.02,1608.06 1555.45,1609.14C1548.38,1612.08 1543.75,1620.17 1541.67,1627.17C1540.58,1630.85 1546.26,1632.58 1547.39,1628.9Z" style="fill:rgb(255,134,45);fill-rule:nonzero;"/>
    </g>
    <g transform="matrix(0.439894,0,0,0.439894,29.5989,-563.415)">
        <path d="M1592.28,1637.59C1591.26,1634 1590.96,1630.33 1591.47,1626.63C1591.79,1624.37 1594.56,1617.59 1590.18,1617.51C1586.06,1617.43 1585.52,1624.31 1585.25,1627.23C1584.88,1631.13 1585.3,1635.14 1586.4,1638.9C1587.49,1642.6 1593.34,1641.33 1592.28,1637.59Z" style="fill:rgb(255,134,45);fill-rule:nonzero;"/>
    </g>
    <g transform="matrix(0.439894,0,0,0.439894,29.5989,-563.415)">
        <path d="M1616.66,1608.33C1618.95,1609.28 1621.24,1610.22 1623.53,1611.16C1625.81,1612.1 1628.17,1613.71 1630.61,1612.56C1631.98,1611.92 1632.2,1610.33 1631.72,1609.07C1630.84,1606.78 1627.4,1606.13 1625.31,1605.28C1623.01,1604.35 1620.72,1603.42 1618.42,1602.5C1616.9,1601.88 1615.07,1603.06 1614.62,1604.53C1614.11,1606.23 1615.13,1607.7 1616.66,1608.33Z" style="fill:rgb(255,134,45);fill-rule:nonzero;"/>
    </g>
    <g transform="matrix(0.439894,0,0,0.439894,29.5989,-563.415)">
        <path d="M1548.98,1548.67C1537.2,1532.56 1537.33,1532.43 1535.47,1531.32C1533.56,1530.19 1530.99,1531.89 1531.52,1534.13C1532.05,1536.34 1532,1535.96 1544.45,1552.86C1545.44,1554.21 1547.69,1554.07 1548.81,1553.03C1550.15,1551.78 1549.96,1550.02 1548.98,1548.67Z" style="fill:rgb(255,134,45);fill-rule:nonzero;"/>
    </g>
    <g transform="matrix(0.439894,0,0,0.439894,29.5989,-563.415)">
        <path d="M1580.9,1540.74C1581.35,1537.48 1581.44,1534.21 1581.19,1530.93C1580.95,1527.89 1581,1523.18 1577.78,1521.8C1577.09,1521.51 1576,1521.78 1575.5,1522.33C1573.42,1524.62 1574.9,1528.49 1575.11,1531.3C1575.33,1534.36 1575.23,1537.46 1574.93,1540.51C1574.78,1542.12 1576.26,1543.55 1577.8,1543.61C1579.55,1543.67 1580.68,1542.34 1580.9,1540.74Z" style="fill:rgb(255,134,45);fill-rule:nonzero;"/>
    </g>
    <g transform="matrix(0.439894,0,0,0.439894,29.5989,-563.415)">
        <path d="M1626.74,1532.76C1626.94,1531.27 1625.53,1530.24 1624.24,1530.06C1621.6,1529.69 1618.99,1532.8 1617.25,1534.49C1615.23,1536.45 1613.41,1538.6 1611.73,1540.87C1610.76,1542.17 1611.41,1544.21 1612.71,1545.01C1614.23,1545.95 1615.83,1545.31 1616.85,1544.04C1623.51,1535.71 1626.27,1536.44 1626.74,1532.76Z" style="fill:rgb(255,134,45);fill-rule:nonzero;"/>
    </g>
    <g transform="matrix(0.439894,0,0,0.439894,29.5989,-563.415)">
        <path d="M1546.89,1828.45C1546.28,1819.71 1552.88,1812.13 1561.62,1811.52C1570.37,1810.92 1577.95,1817.51 1578.55,1826.25C1579.16,1835 1572.56,1842.58 1563.82,1843.18C1555.08,1843.79 1547.5,1837.2 1546.89,1828.45Z" style="fill:rgb(255,134,45);fill-rule:nonzero;"/>
    </g>
    <g transform="matrix(0.439894,0,0,0.439894,29.5989,-563.415)">
        <path d="M1573.8,1873.26C1572.85,1868.66 1572.28,1863.73 1570.71,1859.29C1569.36,1855.48 1563.41,1856.64 1563.71,1860.74C1564.08,1865.76 1565.65,1870.85 1566.7,1875.76C1567.12,1877.75 1569.76,1878.68 1571.5,1878.07C1573.63,1877.32 1574.21,1875.26 1573.8,1873.26Z" style="fill:rgb(255,134,45);fill-rule:nonzero;"/>
    </g>
    <g transform="matrix(0.439894,0,0,0.439894,29.5989,-563.415)">
        <path d="M1601,1853.6C1595.74,1850.5 1591.15,1846.66 1586.3,1842.99C1582.51,1840.13 1578.42,1845.06 1581.54,1848.46C1586.02,1853.35 1591.9,1857.17 1597.58,1860.52C1599.37,1861.58 1601.87,1860.54 1602.75,1858.77C1603.73,1856.79 1602.8,1854.67 1601,1853.6Z" style="fill:rgb(255,134,45);fill-rule:nonzero;"/>
    </g>
    <g transform="matrix(0.439894,0,0,0.439894,29.5989,-563.415)">
        <path d="M1591.04,1825.2C1589.85,1826.15 1589.61,1827.52 1590.34,1828.86C1592.12,1832.08 1596.64,1831.92 1599.84,1831.81C1603.19,1831.7 1606.54,1831.02 1609.7,1829.94C1614.38,1828.34 1611.84,1821.09 1607.15,1822.69C1597.97,1825.82 1594.49,1822.42 1591.04,1825.2Z" style="fill:rgb(255,134,45);fill-rule:nonzero;"/>
    </g>
    <g transform="matrix(0.439894,0,0,0.439894,29.5989,-563.415)">
        <path d="M1585.98,1794.34C1581.37,1801.1 1577.59,1803.38 1578.18,1807.1C1578.52,1809.27 1580.24,1810.31 1582.34,1809.83C1584.82,1809.27 1586.17,1806.64 1587.66,1804.79C1589.09,1803.02 1590.49,1801.25 1591.76,1799.36C1592.91,1797.65 1593.08,1795.44 1591.38,1793.96C1589.96,1792.73 1587.16,1792.62 1585.98,1794.34Z" style="fill:rgb(255,134,45);fill-rule:nonzero;"/>
    </g>
    <g transform="matrix(0.439894,0,0,0.439894,29.5989,-563.415)">
        <path d="M1567.99,1793.17C1566.51,1789.07 1566.19,1787.58 1564.27,1785.68C1562.61,1784.03 1559.09,1785.08 1558.86,1787.52C1558.59,1790.36 1559.19,1791.42 1560.74,1795.72C1561.44,1797.67 1563.67,1798.76 1565.64,1798.07C1567.59,1797.39 1568.7,1795.13 1567.99,1793.17Z" style="fill:rgb(255,134,45);fill-rule:nonzero;"/>
    </g>
    <g transform="matrix(0.439894,0,0,0.439894,29.5989,-563.415)">
        <path d="M1548.55,1803.08C1541.9,1798.02 1540.54,1796.6 1537.93,1796.87C1536.39,1797.03 1534.67,1798.51 1535.01,1800.23C1535.63,1803.43 1537.49,1804.29 1543.61,1808.76C1545.25,1809.96 1547.51,1810.02 1548.92,1808.39C1550.19,1806.93 1550.18,1804.31 1548.55,1803.08Z" style="fill:rgb(255,134,45);fill-rule:nonzero;"/>
    </g>
    <g transform="matrix(0.439894,0,0,0.439894,29.5989,-563.415)">
        <path d="M1521.81,1826.27C1519.19,1827.66 1520.24,1832.19 1523.08,1832.57C1525.8,1832.92 1526.86,1832.48 1540.08,1830.07C1542.12,1829.7 1543.8,1828.21 1543.64,1825.97C1543.51,1824.07 1541.6,1822.03 1539.54,1822.4C1525.82,1824.88 1524.44,1824.87 1521.81,1826.27Z" style="fill:rgb(255,134,45);fill-rule:nonzero;"/>
    </g>
    <g transform="matrix(0.439894,0,0,0.439894,29.5989,-563.415)">
        <path d="M1542.52,1847.89C1535.27,1854.9 1534.21,1853.66 1531.35,1857.95C1530.04,1859.91 1532.2,1863.04 1534.48,1862.62C1537.4,1862.08 1538.19,1861.59 1542,1858.57C1544.21,1856.81 1546.33,1854.93 1548.36,1852.97C1549.87,1851.52 1549.46,1848.8 1547.98,1847.51C1546.29,1846.04 1544.03,1846.43 1542.52,1847.89Z" style="fill:rgb(255,134,45);fill-rule:nonzero;"/>
    </g>
    <g transform="matrix(0.439894,0,0,0.439894,29.5989,-563.415)">
        <path d="M785.279,1475.43L778.788,1487.42L758.336,1479.11L746.683,1495.47L730.361,1491.75L728.479,1500.02L750.308,1504.99L761.352,1489.48L782.626,1498.13L792.396,1480.08L785.279,1475.43Z" style="fill:rgb(116,115,232);fill-rule:nonzero;"/>
    </g>
    <g transform="matrix(0.439894,0,0,0.439894,29.5989,-563.415)">
        <path d="M494.149,1547.73C505.927,1569.26 498.023,1596.25 476.496,1608.03C454.968,1619.8 427.968,1611.89 416.19,1590.36C404.412,1568.83 412.316,1541.84 433.844,1530.06C455.371,1518.29 482.372,1526.2 494.149,1547.73Z" style="fill:rgb(255,134,45);fill-rule:nonzero;"/>
    </g>
    <g transform="matrix(0.439894,0,0,0.439894,29.5989,-563.415)">
        <path d="M437.708,1586.62C444.005,1598.13 458.44,1602.36 469.95,1596.06C481.46,1589.77 485.686,1575.33 479.389,1563.82L437.708,1586.62Z" style="fill:rgb(239,239,239);fill-rule:nonzero;"/>
    </g>
    <g transform="matrix(0.439894,0,0,0.439894,29.5989,-563.415)">
        <path d="M1501.8,1326.99L1484.41,1331.33L1474.32,1304.12L1448.11,1307.34L1437.23,1288.21L1427.55,1293.72L1442.1,1319.3L1466.94,1316.25L1477.43,1344.56L1503.6,1338.02L1501.8,1326.99Z" style="fill:rgb(116,115,232);fill-rule:nonzero;"/>
    </g>
    <g transform="matrix(0.439894,0,0,0.439894,29.5989,-563.415)">
        <path d="M1165.61,1510.39L1182.57,1505.05C1182.57,1505.05 1199.23,1482.38 1198.19,1476.41C1197.14,1470.45 1190.02,1459.27 1192.9,1456.75C1195.78,1454.23 1202.48,1450.94 1209.19,1457.27C1214.06,1461.87 1217.34,1482.92 1219.74,1483.68C1221.25,1484.16 1231.08,1481.37 1238.23,1479.22C1242.93,1477.8 1248.04,1479.16 1251.49,1482.75L1251.5,1482.76C1253.84,1485.18 1254.2,1488.92 1252.38,1491.72L1249.53,1496.08L1253.71,1499.24C1256.83,1501.6 1257.51,1506.05 1255.24,1509.21L1252.93,1512.42L1255.69,1514.2C1259.24,1516.49 1260.08,1521.39 1257.48,1524.7L1255.37,1527.39L1256,1528.03C1258.58,1530.66 1258.78,1534.85 1256.44,1537.67L1254.3,1540.27L1209.14,1554.47C1204.91,1555.8 1200.44,1556.24 1196.02,1555.75L1179.3,1558.08C1177.5,1558.33 1175.78,1557.2 1175.26,1555.43L1163.22,1514.99C1162.64,1513.04 1163.7,1510.99 1165.61,1510.39Z" style="fill:rgb(233,250,255);fill-rule:nonzero;"/>
    </g>
    <g transform="matrix(0.439894,0,0,0.439894,29.5989,-563.415)">
        <path d="M880.085,1752.9L864.499,1751.64L862.373,1766.06L846.964,1765.5L843.233,1779.02L831.634,1780.49L832.375,1786.36L847.889,1784.4L851.425,1771.58L867.454,1772.17L869.545,1757.99L883.669,1759.13L880.085,1752.9Z" style="fill:rgb(116,115,232);fill-rule:nonzero;"/>
    </g>
    <g transform="matrix(0.439894,0,0,0.439894,29.5989,-563.415)">
        <path d="M633.608,1429.15L623.034,1440.94L626.752,1456.33C627.053,1457.58 625.797,1458.63 624.627,1458.11L610.145,1451.69L596.652,1459.99C595.563,1460.66 594.177,1459.79 594.308,1458.52L595.932,1442.76L583.874,1432.49C582.9,1431.66 583.3,1430.08 584.551,1429.81L600.037,1426.48L606.077,1411.84C606.565,1410.66 608.197,1410.55 608.84,1411.66L616.786,1425.36L632.577,1426.58C633.854,1426.67 634.462,1428.19 633.608,1429.15Z" style="fill:rgb(233,250,255);fill-rule:nonzero;"/>
    </g>
    <g transform="matrix(0.439894,0,0,0.439894,29.5989,-563.415)">
        <path d="M833.416,1327.14L820.763,1331.03L816.793,1343.66C816.473,1344.68 815.122,1344.89 814.507,1344.01L806.897,1333.18L793.661,1333.31C792.592,1333.32 791.974,1332.1 792.617,1331.24L800.567,1320.66L796.356,1308.11C796.015,1307.09 796.985,1306.13 797.997,1306.48L810.52,1310.77L821.154,1302.88C822.014,1302.25 823.23,1302.87 823.213,1303.94L823.002,1317.18L833.785,1324.85C834.656,1325.47 834.438,1326.82 833.416,1327.14Z" style="fill:rgb(255,134,45);fill-rule:nonzero;"/>
    </g>
    <g transform="matrix(0.439894,0,0,0.439894,29.5989,-563.415)">
        <path d="M1033.35,1469.96C1033.35,1472.98 1019.42,1475.43 1002.25,1475.43C985.069,1475.43 971.144,1472.98 971.144,1469.96C971.144,1466.94 985.069,1464.49 1002.25,1464.49C1019.42,1464.49 1033.35,1466.94 1033.35,1469.96Z" style="fill:rgb(96,234,198);fill-rule:nonzero;"/>
    </g>
    <g transform="matrix(0.439894,0,0,0.439894,29.5989,-563.415)">
        <path d="M1002.25,1408.83C996.244,1408.83 991.377,1403.96 991.377,1397.96C991.377,1391.95 996.244,1387.09 1002.25,1387.09C1008.25,1387.09 1013.12,1391.95 1013.12,1397.96C1013.12,1403.96 1008.25,1408.83 1002.25,1408.83ZM1002.25,1372.68C988.096,1372.68 976.625,1382.92 976.625,1395.54C976.625,1408.17 1002.25,1469.96 1002.25,1469.96C1002.25,1469.96 1027.87,1408.17 1027.87,1395.54C1027.87,1382.92 1016.4,1372.68 1002.25,1372.68Z" style="fill:rgb(255,134,45);fill-rule:nonzero;"/>
    </g>
    <g transform="matrix(0.439894,0,0,0.439894,29.5989,-563.415)">
        <path d="M1060.6,1737.54L1014.81,1752.62L1032.15,1717.18L1060.6,1737.54Z" style="fill:rgb(116,115,232);fill-rule:nonzero;"/>
    </g>
    <g transform="matrix(0.439894,0,0,0.439894,29.5989,-563.415)">
        <path d="M1218.65,1719.7L1237.95,1812.39L1366.1,1785.71C1370.11,1784.87 1372.69,1780.94 1371.85,1776.93L1355.58,1698.77C1354.74,1694.76 1350.82,1692.19 1346.8,1693.02L1218.65,1719.7Z" style="fill:rgb(233,250,255);fill-rule:nonzero;"/>
    </g>
    <g transform="matrix(0.439894,0,0,0.439894,29.5989,-563.415)">
        <path d="M1258.27,1777.22L1263.7,1762.52L1257.22,1763.32C1256.82,1763.37 1256.5,1763.65 1256.4,1764.03L1252.42,1779.27L1256.93,1778.33C1257.53,1778.21 1258.03,1777.79 1258.27,1777.22Z" style="fill:rgb(88,88,198);fill-rule:nonzero;"/>
    </g>
    <g transform="matrix(0.439894,0,0,0.439894,29.5989,-563.415)">
        <path d="M1243.83,1769.03L1246.54,1764.68L1243.8,1765.1C1243.63,1765.12 1243.49,1765.21 1243.44,1765.32L1241.32,1769.79L1243.24,1769.39C1243.5,1769.33 1243.72,1769.2 1243.83,1769.03Z" style="fill:rgb(88,88,198);fill-rule:nonzero;"/>
    </g>
    <g transform="matrix(0.439894,0,0,0.439894,29.5989,-563.415)">
        <path d="M1251.38,1744.13L1262.23,1755.45L1255.96,1757.3C1255.59,1757.41 1255.18,1757.28 1254.94,1756.97L1245.2,1744.59L1249.71,1743.65C1250.31,1743.52 1250.94,1743.71 1251.38,1744.13Z" style="fill:rgb(88,88,198);fill-rule:nonzero;"/>
    </g>
    <g transform="matrix(0.439894,0,0,0.439894,29.5989,-563.415)">
        <path d="M1241.41,1757.4L1245.64,1760.31L1242.95,1761.03C1242.79,1761.07 1242.62,1761.04 1242.53,1760.96L1238.81,1757.71L1240.73,1757.31C1240.98,1757.26 1241.24,1757.29 1241.41,1757.4Z" style="fill:rgb(88,88,198);fill-rule:nonzero;"/>
    </g>
    <g transform="matrix(0.439894,0,0,0.439894,29.5989,-563.415)">
        <path d="M1262.51,1755.74L1244.22,1761.23C1243.4,1761.48 1240.86,1762.74 1241.04,1763.58C1241.21,1764.41 1244.04,1764.55 1244.89,1764.45L1263.85,1762.19C1265.78,1761.96 1273.64,1758.77 1273.25,1756.87C1272.85,1754.97 1264.37,1755.18 1262.51,1755.74Z" style="fill:rgb(88,88,198);fill-rule:nonzero;"/>
    </g>
    <g transform="matrix(0.439894,0,0,0.439894,29.5989,-563.415)">
        <path d="M1244.65,1746.79L1232.83,1749.25C1232.56,1749.3 1232.3,1749.13 1232.24,1748.86C1232.19,1748.59 1232.36,1748.33 1232.63,1748.27L1244.45,1745.81C1244.71,1745.76 1244.98,1745.93 1245.03,1746.2C1245.09,1746.47 1244.92,1746.73 1244.65,1746.79Z" style="fill:rgb(88,88,198);fill-rule:nonzero;"/>
    </g>
    <g transform="matrix(0.439894,0,0,0.439894,29.5989,-563.415)">
        <path d="M1246.54,1750.13L1234.72,1752.59C1234.45,1752.64 1234.19,1752.47 1234.13,1752.2C1234.08,1751.94 1234.25,1751.67 1234.52,1751.62L1246.33,1749.16C1246.6,1749.1 1246.86,1749.27 1246.92,1749.54C1246.98,1749.81 1246.8,1750.07 1246.54,1750.13Z" style="fill:rgb(88,88,198);fill-rule:nonzero;"/>
    </g>
    <g transform="matrix(0.439894,0,0,0.439894,29.5989,-563.415)">
        <path d="M1251.08,1777.68L1239.26,1780.14C1239,1780.2 1238.82,1780.46 1238.88,1780.73C1238.93,1781 1239.2,1781.17 1239.47,1781.11L1251.28,1778.65C1251.55,1778.6 1251.72,1778.33 1251.67,1778.07C1251.61,1777.8 1251.35,1777.63 1251.08,1777.68Z" style="fill:rgb(88,88,198);fill-rule:nonzero;"/>
    </g>
    <g transform="matrix(0.439894,0,0,0.439894,29.5989,-563.415)">
        <path d="M1251.48,1773.86L1239.66,1776.32C1239.39,1776.38 1239.22,1776.64 1239.28,1776.91C1239.33,1777.18 1239.6,1777.35 1239.86,1777.29L1251.68,1774.83C1251.95,1774.78 1252.12,1774.52 1252.06,1774.25C1252.01,1773.98 1251.74,1773.81 1251.48,1773.86Z" style="fill:rgb(88,88,198);fill-rule:nonzero;"/>
    </g>
    <g transform="matrix(0.439894,0,0,0.439894,29.5989,-563.415)">
        <path d="M1416.37,1678.71L1364.58,1689.49C1358.77,1690.7 1354.74,1694.93 1355.58,1698.94L1371.85,1777.1C1372.69,1781.11 1378.07,1783.39 1383.88,1782.18L1435.67,1771.39L1416.37,1678.71Z" style="fill:rgb(233,250,255);fill-rule:nonzero;"/>
    </g>
    <g transform="matrix(0.439894,0,0,0.439894,29.5989,-563.415)">
        <path d="M1232.96,1788.58L1237.95,1812.56L1366.1,1785.88C1370.11,1785.04 1372.69,1781.11 1371.85,1777.1L1368.37,1760.39L1232.96,1788.58Z" style="fill:rgb(164,229,255);fill-rule:nonzero;"/>
    </g>
    <g transform="matrix(0.439894,0,0,0.439894,29.5989,-563.415)">
        <path d="M1359.34,1717.01L1355.58,1698.94C1354.74,1694.93 1350.82,1692.36 1346.8,1693.19L1218.65,1719.87L1223.92,1745.2L1359.34,1717.01Z" style="fill:rgb(164,229,255);fill-rule:nonzero;"/>
    </g>
    <g transform="matrix(0.439894,0,0,0.439894,29.5989,-563.415)">
        <path d="M1355.73,1729.22L1289.16,1743.08L1288.13,1738.11L1354.7,1724.25L1355.73,1729.22Z" style="fill:rgb(88,88,198);fill-rule:nonzero;"/>
    </g>
    <g transform="matrix(0.439894,0,0,0.439894,29.5989,-563.415)">
        <path d="M1409.43,1721.24L1382.15,1726.92L1381.12,1721.96L1408.4,1716.28L1409.43,1721.24Z" style="fill:rgb(88,88,198);fill-rule:nonzero;"/>
    </g>
    <g transform="matrix(0.439894,0,0,0.439894,29.5989,-563.415)">
        <path d="M1413.81,1693.72L1363.2,1704.25L1362.16,1699.29L1412.77,1688.75L1413.81,1693.72Z" style="fill:rgb(88,88,198);fill-rule:nonzero;"/>
    </g>
    <g transform="matrix(0.439894,0,0,0.439894,29.5989,-563.415)">
        <path d="M1357.51,1737.79L1290.95,1751.64L1289.91,1746.68L1356.48,1732.82L1357.51,1737.79Z" style="fill:rgb(88,88,198);fill-rule:nonzero;"/>
    </g>
    <g transform="matrix(0.439894,0,0,0.439894,29.5989,-563.415)">
        <path d="M1359.49,1747.29L1292.92,1761.15L1291.89,1756.19L1358.46,1742.33L1359.49,1747.29Z" style="fill:rgb(88,88,198);fill-rule:nonzero;"/>
    </g>
    <g transform="matrix(0.439894,0,0,0.439894,29.5989,-563.415)">
        <path d="M1435.67,1771.39L1401.84,1778.44L1401.19,1775.33L1435.02,1768.28L1435.67,1771.39Z" style="fill:rgb(88,88,198);fill-rule:nonzero;"/>
    </g>
    <g transform="matrix(0.439894,0,0,0.439894,29.5989,-563.415)">
        <path d="M1434.8,1767.2L1400.97,1774.24L1400.47,1771.85L1434.3,1764.81L1434.8,1767.2Z" style="fill:rgb(88,88,198);fill-rule:nonzero;"/>
    </g>
    <g transform="matrix(0.439894,0,0,0.439894,29.5989,-563.415)">
        <path d="M1434.07,1763.72L1400.24,1770.76L1399.75,1768.37L1433.57,1761.33L1434.07,1763.72Z" style="fill:rgb(88,88,198);fill-rule:nonzero;"/>
    </g>
    <g transform="matrix(0.439894,0,0,0.439894,29.5989,-563.415)">
        <path d="M1429.17,1740.19L1395.34,1747.23L1394.85,1744.84L1428.67,1737.8L1429.17,1740.19Z" style="fill:rgb(88,88,198);fill-rule:nonzero;"/>
    </g>
    <g transform="matrix(0.439894,0,0,0.439894,29.5989,-563.415)">
        <path d="M1428.54,1737.16L1394.71,1744.2L1394.4,1742.71L1428.23,1735.67L1428.54,1737.16Z" style="fill:rgb(88,88,198);fill-rule:nonzero;"/>
    </g>
    <g transform="matrix(0.439894,0,0,0.439894,29.5989,-563.415)">
        <path d="M1428.1,1735.03L1394.27,1742.08L1393.96,1740.58L1427.79,1733.54L1428.1,1735.03Z" style="fill:rgb(88,88,198);fill-rule:nonzero;"/>
    </g>
    <g transform="matrix(0.439894,0,0,0.439894,29.5989,-563.415)">
        <path d="M1433.35,1760.24L1399.52,1767.28L1398.61,1762.91L1432.44,1755.86L1433.35,1760.24Z" style="fill:rgb(88,88,198);fill-rule:nonzero;"/>
    </g>
    <g transform="matrix(0.439894,0,0,0.439894,29.5989,-563.415)">
        <path d="M1432.3,1755.23L1398.47,1762.27L1397.56,1757.89L1431.39,1750.85L1432.3,1755.23Z" style="fill:rgb(88,88,198);fill-rule:nonzero;"/>
    </g>
    <g transform="matrix(0.439894,0,0,0.439894,29.5989,-563.415)">
        <path d="M1431.26,1750.22L1397.43,1757.26L1396.52,1752.88L1430.35,1745.84L1431.26,1750.22Z" style="fill:rgb(88,88,198);fill-rule:nonzero;"/>
    </g>
    <g transform="matrix(0.439894,0,0,0.439894,29.5989,-563.415)">
        <path d="M1430.22,1745.2L1396.39,1752.25L1395.48,1747.87L1429.31,1740.83L1430.22,1745.2Z" style="fill:rgb(88,88,198);fill-rule:nonzero;"/>
    </g>
    <g transform="matrix(0.439894,0,0,0.439894,29.5989,-563.415)">
        <path d="M1385.8,1717.78L1380.48,1718.89L1377.69,1705.5L1383.01,1704.4L1385.8,1717.78Z" style="fill:rgb(88,88,198);fill-rule:nonzero;"/>
    </g>
    <g transform="matrix(0.439894,0,0,0.439894,29.5989,-563.415)">
        <path d="M1392.34,1716.42L1387.02,1717.52L1384.24,1704.14L1389.56,1703.03L1392.34,1716.42Z" style="fill:rgb(88,88,198);fill-rule:nonzero;"/>
    </g>
    <g transform="matrix(0.439894,0,0,0.439894,29.5989,-563.415)">
        <path d="M1401.21,1714.57L1395.89,1715.68L1393.1,1702.29L1398.42,1701.19L1401.21,1714.57Z" style="fill:rgb(88,88,198);fill-rule:nonzero;"/>
    </g>
    <g transform="matrix(0.439894,0,0,0.439894,29.5989,-563.415)">
        <path d="M1407.76,1713.21L1402.44,1714.31L1399.65,1700.93L1404.97,1699.82L1407.76,1713.21Z" style="fill:rgb(88,88,198);fill-rule:nonzero;"/>
    </g>
    <g transform="matrix(0.439894,0,0,0.439894,29.5989,-563.415)">
        <path d="M796.027,1637.42L718.529,1708.75L687.053,1656.66L796.027,1637.42Z" style="fill:rgb(88,88,198);fill-rule:nonzero;"/>
    </g>
    <g transform="matrix(0.439894,0,0,0.439894,29.5989,-563.415)">
        <path d="M686.207,1632.5L687.053,1656.66L796.027,1637.42L686.207,1632.5Z" style="fill:rgb(116,115,232);fill-rule:nonzero;"/>
    </g>
    <g transform="matrix(0.439894,0,0,0.439894,29.5989,-563.415)">
        <path d="M685.294,1665.47L796.027,1637.42L685.389,1702.13L685.294,1665.47Z" style="fill:rgb(116,115,232);fill-rule:nonzero;"/>
    </g>
    <g transform="matrix(0.439894,0,0,0.439894,29.5989,-563.415)">
        <path d="M682.245,1708.05C682.247,1708.04 682.249,1708.03 682.251,1708.02C682.249,1708.03 682.247,1708.04 682.245,1708.05ZM601.429,1750.2C601.583,1748.68 602.947,1747.56 604.473,1747.72C604.647,1747.73 622.162,1749.35 646.166,1740.32C669.811,1731.42 681.487,1710.58 682.256,1708C682.579,1706.52 684.027,1705.57 685.516,1705.87C687.021,1706.17 687.999,1707.63 687.698,1709.14C686.911,1713.08 673.543,1735.96 648.124,1745.52C622.806,1755.05 604.669,1753.33 603.91,1753.25C602.383,1753.09 601.274,1751.73 601.429,1750.2Z" style="fill:rgb(233,250,255);fill-rule:nonzero;"/>
    </g>
    <g transform="matrix(0.439894,0,0,0.439894,29.5989,-563.415)">
        <path d="M488.478,1755.88C521.255,1755.85 553.728,1750.23 584.992,1739.18C610.742,1730.08 633.47,1712.91 659.262,1706C660.745,1705.6 661.626,1704.08 661.229,1702.6C660.831,1701.11 659.308,1700.23 657.824,1700.63C631.126,1707.78 608.548,1724.96 583.139,1733.94C552.47,1744.78 520.619,1750.29 488.474,1750.32C476.66,1750.33 463.031,1748.47 447.966,1744.81C446.469,1744.45 444.97,1745.36 444.607,1746.85C444.244,1748.35 445.159,1749.85 446.651,1750.21C460.028,1753.47 474.649,1755.89 488.478,1755.88Z" style="fill:rgb(233,250,255);fill-rule:nonzero;"/>
    </g>
    <g transform="matrix(0.42313,0,0,0.42313,189.638,-682.04)">
        <path d="M1788.97,2080.19C1754.89,2101.5 1709.83,2091.11 1688.53,2057.03C1667.23,2022.95 1677.62,1977.89 1711.7,1956.59C1745.77,1935.28 1790.83,1945.67 1812.14,1979.75C1833.44,2013.83 1823.05,2058.89 1788.97,2080.19Z" style="fill:rgb(116,115,232);fill-rule:nonzero;"/>
    </g>
    <g transform="matrix(0.42313,0,0,0.42313,189.638,-682.04)">
        <path d="M1787.96,2078.58C1754.77,2099.33 1710.89,2089.21 1690.14,2056.02C1669.39,2022.83 1679.51,1978.95 1712.7,1958.2C1745.89,1937.44 1789.78,1947.57 1810.53,1980.76C1831.28,2013.95 1821.16,2057.83 1787.96,2078.58Z" style="fill:rgb(116,115,232);fill-rule:nonzero;"/>
    </g>
    <g transform="matrix(0.42313,0,0,0.42313,189.638,-682.04)">
        <path d="M1799.67,1987.94C1816.64,2015.09 1808.39,2050.86 1781.24,2067.83C1754.09,2084.8 1718.33,2076.55 1701.36,2049.4C1684.38,2022.26 1692.63,1986.49 1719.78,1969.52C1746.93,1952.55 1782.69,1960.8 1799.67,1987.94Z" style="fill:white;fill-rule:nonzero;"/>
    </g>
    <g transform="matrix(0.42313,0,0,0.42313,189.638,-682.04)">
        <path d="M1779.48,2065.01C1753.79,2081.07 1719.82,2073.24 1703.76,2047.55C1687.7,2021.85 1695.53,1987.88 1721.22,1971.82C1746.91,1955.76 1780.88,1963.6 1796.95,1989.29C1813.01,2014.98 1805.17,2048.95 1779.48,2065.01Z" style="fill:white;fill-rule:nonzero;"/>
    </g>
    <g transform="matrix(0.42313,0,0,0.42313,189.638,-682.04)">
        <path d="M1708.47,2041.14L1700.13,2046.36C1698.76,2047.21 1698.34,2049.03 1699.2,2050.4C1700.06,2051.77 1701.87,2052.18 1703.24,2051.33L1711.58,2046.11C1712.95,2045.25 1713.37,2043.44 1712.51,2042.07C1711.66,2040.7 1709.84,2040.28 1708.47,2041.14Z" style="fill:rgb(116,115,232);fill-rule:nonzero;"/>
    </g>
    <g transform="matrix(0.42313,0,0,0.42313,189.638,-682.04)">
        <path d="M1774.01,2056.25C1772.64,2057.11 1772.22,2058.92 1773.07,2060.29L1778.29,2068.64C1779.15,2070.01 1780.96,2070.43 1782.33,2069.57C1783.7,2068.71 1784.12,2066.9 1783.26,2065.53L1778.05,2057.19C1777.19,2055.82 1775.38,2055.4 1774.01,2056.25Z" style="fill:rgb(116,115,232);fill-rule:nonzero;"/>
    </g>
    <g transform="matrix(0.42313,0,0,0.42313,189.638,-682.04)">
        <path d="M1797.46,1985.51L1789.12,1990.72C1787.75,1991.58 1787.33,1993.39 1788.19,1994.76C1789.04,1996.13 1790.86,1996.55 1792.23,1995.69L1800.57,1990.48C1801.94,1989.62 1802.36,1987.81 1801.5,1986.44C1800.65,1985.07 1798.83,1984.65 1797.46,1985.51Z" style="fill:rgb(116,115,232);fill-rule:nonzero;"/>
    </g>
    <g transform="matrix(0.42313,0,0,0.42313,189.638,-682.04)">
        <path d="M1718.37,1967.27C1717,1968.12 1716.58,1969.93 1717.44,1971.31L1722.66,1979.65C1723.51,1981.02 1725.33,1981.44 1726.7,1980.58C1728.07,1979.72 1728.48,1977.91 1727.63,1976.54L1722.41,1968.2C1721.56,1966.83 1719.74,1966.41 1718.37,1967.27Z" style="fill:rgb(116,115,232);fill-rule:nonzero;"/>
    </g>
    <g transform="matrix(0.42313,0,0,0.42313,189.638,-682.04)">
        <path d="M1734.52,1939.62L1733.46,1928.13C1733.38,1927.19 1734.07,1926.36 1735.01,1926.27L1748.19,1925.06C1749.13,1924.97 1749.97,1925.67 1750.05,1926.61L1751.11,1938.1C1751.2,1939.04 1750.5,1939.88 1749.56,1939.96L1736.38,1941.17C1735.44,1941.26 1734.6,1940.57 1734.52,1939.62Z" style="fill:rgb(116,115,232);fill-rule:nonzero;"/>
    </g>
    <g transform="matrix(0.42313,0,0,0.42313,189.638,-682.04)">
        <path d="M1687.22,1969.53L1677.36,1963.55C1676.55,1963.06 1675.5,1963.32 1675,1964.13L1668.14,1975.44C1667.65,1976.25 1667.91,1977.3 1668.72,1977.79L1678.58,1983.78C1679.39,1984.27 1680.45,1984.01 1680.94,1983.2L1687.8,1971.88C1688.29,1971.08 1688.03,1970.02 1687.22,1969.53Z" style="fill:rgb(116,115,232);fill-rule:nonzero;"/>
    </g>
    <g transform="matrix(0.42313,0,0,0.42313,189.638,-682.04)">
        <path d="M1698.14,1948.64C1697.36,1949.13 1696.33,1948.89 1695.84,1948.11L1691.44,1941.07C1690.95,1940.29 1691.19,1939.25 1691.97,1938.77L1706.34,1929.78C1707.12,1929.29 1708.15,1929.53 1708.64,1930.31L1713.04,1937.36C1713.53,1938.14 1713.29,1939.17 1712.51,1939.66L1698.14,1948.64Z" style="fill:rgb(116,115,232);fill-rule:nonzero;"/>
    </g>
    <g transform="matrix(0.42313,0,0,0.42313,189.638,-682.04)">
        <path d="M1702.64,1950.7C1695.21,1952.5 1687.15,1949.48 1682.88,1942.65C1677.54,1934.1 1680.13,1922.85 1688.67,1917.51C1697.22,1912.17 1708.47,1914.76 1713.81,1923.31C1718.09,1930.14 1717.28,1938.72 1712.4,1944.61L1714.79,1948.42C1721.63,1941.14 1723.02,1929.88 1717.48,1921.02C1710.88,1910.47 1696.93,1907.25 1686.38,1913.84C1675.83,1920.44 1672.62,1934.39 1679.21,1944.94C1684.75,1953.8 1695.48,1957.48 1705.03,1954.53L1702.64,1950.7Z" style="fill:rgb(116,115,232);fill-rule:nonzero;"/>
    </g>
    <g transform="matrix(0.42313,0,0,0.42313,189.638,-682.04)">
        <path d="M1710.93,1955.36C1712.6,1954.31 1714.31,1953.33 1716.03,1952.44L1709.68,1942.28L1701.74,1947.24L1708.01,1957.27C1708.96,1956.61 1709.94,1955.97 1710.93,1955.36Z" style="fill:rgb(116,115,232);fill-rule:nonzero;"/>
    </g>
    <g transform="matrix(0.42313,0,0,0.42313,189.638,-682.04)">
        <path d="M1754.86,2015.48C1756.42,2017.98 1755.66,2021.28 1753.16,2022.84C1750.66,2024.41 1747.36,2023.65 1745.79,2021.14C1744.23,2018.64 1744.99,2015.34 1747.49,2013.78C1750,2012.21 1753.29,2012.97 1754.86,2015.48Z" style="fill:rgb(116,115,232);fill-rule:nonzero;"/>
    </g>
    <g transform="matrix(0.42313,0,0,0.42313,189.638,-682.04)">
        <path d="M1748.9,1974.26L1752.21,2018.23C1752.29,2019.34 1751.46,2020.3 1750.36,2020.39C1749.25,2020.47 1748.28,2019.64 1748.2,2018.53C1748.19,2018.36 1748.16,2020.32 1748.9,1974.26Z" style="fill:rgb(116,115,232);fill-rule:nonzero;"/>
    </g>
    <g transform="matrix(0.42313,0,0,0.42313,189.638,-682.04)">
        <path d="M1791.96,2033.54L1749.88,2020.36C1748.82,2020.03 1748.23,2018.9 1748.56,2017.84C1748.89,2016.78 1750.02,2016.19 1751.08,2016.52C1751.25,2016.57 1749.43,2015.83 1791.96,2033.54Z" style="fill:rgb(116,115,232);fill-rule:nonzero;"/>
    </g>
    <g transform="matrix(0.42313,0,0,0.42313,189.638,-682.04)">
        <path d="M1752.18,2017.15C1752.82,2018.18 1752.51,2019.52 1751.48,2020.16C1750.46,2020.8 1749.11,2020.49 1748.47,2019.47C1747.83,2018.45 1748.15,2017.1 1749.17,2016.46C1750.19,2015.82 1751.54,2016.13 1752.18,2017.15Z" style="fill:rgb(116,115,232);fill-rule:nonzero;"/>
    </g>
    <g transform="matrix(0.597772,0,0,0.597772,-589.737,-979.672)">
        <path d="M1117.09,1910.74L1111.76,1924.63L1123.48,1931.53L1116.31,1947.03L1132.55,1950.3L1125.27,1967.93L1139.27,1972.7L1135.27,1989.94L1127.88,1990.36L1130.88,1977.47L1116.1,1972.44L1123.1,1955.49L1106.59,1952.16L1114.5,1935.06L1103.06,1928.32L1107.99,1915.44L1098.94,1912.68L1103,1906.44L1117.09,1910.74Z" style="fill:rgb(233,250,255);fill-rule:nonzero;"/>
    </g>
    <g transform="matrix(0.585119,0,0,0.585119,-64.2972,-882.43)">
        <rect x="983.21" y="2789" width="28.81" height="27.3" style="fill:rgb(39,22,81);"/>
    </g>
    <g transform="matrix(0.585119,0,0,0.585119,-64.2972,-882.43)">
        <rect x="858.397" y="2777.26" width="23.122" height="17.45" style="fill:rgb(19,55,91);"/>
    </g>
    <g transform="matrix(0.585119,0,0,0.585119,-64.2972,-882.43)">
        <path d="M903.688,2403.4C903.688,2401.34 905.223,2399.66 907.11,2399.66L965.867,2399.66C967.755,2399.66 969.291,2401.34 969.291,2403.4L969.291,2507.13L979.701,2507.13L979.701,2403.4C979.701,2395.07 973.495,2388.29 965.867,2388.29L907.11,2388.29C899.482,2388.29 893.277,2395.07 893.277,2403.4L893.277,2507.13L903.688,2507.13L903.688,2403.4Z" style="fill:rgb(39,22,81);fill-rule:nonzero;"/>
    </g>
    <g transform="matrix(0.585119,0,0,0.585119,-64.2972,-882.43)">
        <path d="M1011.93,2795.49L871.312,2787.6C863.797,2787.6 857.704,2781.21 857.704,2773.32L844.372,2523.17C843.954,2505.67 863.797,2502.91 871.312,2502.91L1024.33,2502.91C1031.84,2502.91 1037.94,2509.31 1037.94,2517.2L1037.94,2773.32C1038,2786.59 1024.93,2795.27 1011.93,2795.49Z" style="fill:rgb(88,88,198);fill-rule:nonzero;"/>
    </g>
    <g transform="matrix(0.585119,0,0,0.585119,-64.2972,-882.43)">
        <path d="M1007.77,2795.47L861.114,2795.47C851.843,2795.47 844.328,2787.95 844.328,2778.68L844.328,2527.56C844.328,2518.29 851.843,2510.77 861.114,2510.77L1007.77,2510.77C1017.04,2510.77 1024.56,2518.29 1024.56,2527.56L1024.56,2778.68C1024.56,2787.95 1017.04,2795.47 1007.77,2795.47Z" style="fill:rgb(116,115,232);fill-rule:nonzero;"/>
    </g>
    <g transform="matrix(0.585119,0,0,0.585119,-64.2972,-882.43)">
        <path d="M991.121,2795.47L879.329,2795.47L879.329,2649.3C879.329,2620.91 902.344,2597.9 930.733,2597.9L939.717,2597.9C968.107,2597.9 991.121,2620.91 991.121,2649.3L991.121,2795.47Z" style="fill:rgb(88,88,198);fill-rule:nonzero;"/>
    </g>
    <g transform="matrix(0.585119,0,0,0.585119,-64.2972,-882.43)">
        <path d="M938.999,2492.17C953.157,2492.17 965.156,2498.45 965.646,2505.99L977.005,2505.99C976.582,2493.58 959.734,2483.59 938.999,2483.59C918.263,2483.59 901.416,2493.58 900.992,2505.99L912.353,2505.99C912.841,2498.45 924.84,2492.17 938.999,2492.17Z" style="fill:rgb(39,22,81);fill-rule:nonzero;"/>
    </g>
    <g transform="matrix(0.585119,0,0,0.585119,-64.2972,-882.43)">
        <path d="M960.712,2400.51L912.961,2400.51C909.529,2400.51 906.748,2397.73 906.748,2394.3L906.748,2392.21C906.748,2388.78 909.529,2386 912.961,2386L960.712,2386C964.143,2386 966.925,2388.78 966.925,2392.21L966.925,2394.3C966.925,2397.73 964.143,2400.51 960.712,2400.51Z" style="fill:rgb(19,55,91);fill-rule:nonzero;"/>
    </g>
    <g transform="matrix(0.585119,0,0,0.585119,-64.2972,-882.43)">
        <path d="M110.07,2819.16C110.07,2821.87 112.266,2824.07 114.974,2824.07L1855.8,2824.07C1858.51,2824.07 1860.71,2821.87 1860.71,2819.16C1860.71,2816.45 1858.51,2814.26 1855.8,2814.26L114.974,2814.26C112.266,2814.26 110.07,2816.45 110.07,2819.16Z" style="fill:rgb(88,88,198);fill-rule:nonzero;"/>
    </g>
    <g transform="matrix(0.585119,0,0,0.585119,-64.2972,-882.43)">
        <path d="M759.369,2149.42L733.991,2087.9C722.234,2059.4 683.95,2034.51 655.987,2047.49L586.975,1901.94C581.097,1887.7 564.783,1880.91 550.536,1886.79C536.289,1892.67 529.505,1908.98 535.382,1923.23L603.589,2067.08C539.749,2090.42 598.98,2174.75 610.775,2203.34C610.775,2203.34 591.414,2244.92 601.423,2283.13C629.032,2388.52 694.826,2395.85 744.266,2375.45L774.322,2363.05C823.763,2342.65 822.565,2245.78 796.647,2191.62C789.689,2177.08 759.369,2149.42 759.369,2149.42Z" style="fill:rgb(39,22,81);fill-rule:nonzero;"/>
    </g>
    <g transform="matrix(0.585119,0,0,0.585119,-64.2972,-882.43)">
        <path d="M942.773,2026.83C946.459,2010.07 950.069,1993.21 940.354,1974.8C932.49,1959.91 918.897,1951.34 903.166,1949.47C858.59,1944.18 854.665,1984.02 812.322,2001.45C794.235,2008.9 775.682,2006.77 759.519,2016.4C730.333,2033.78 741.083,2054.83 760.439,2100.26C807.833,2211.5 889.371,2147.08 903.74,2125.18C914.43,2108.88 940.401,2037.61 942.773,2026.83Z" style="fill:rgb(39,22,81);fill-rule:nonzero;"/>
    </g>
    <g transform="matrix(0.585119,0,0,0.585119,-64.2972,-882.43)">
        <path d="M917.046,2084C893.136,2091.47 842.463,2128.77 839.222,2127.98L780.209,2081.02L743.907,2112.88C743.907,2112.88 824.905,2172.86 829.508,2175.06C832.913,2176.68 897.126,2122.12 930.751,2105.68C930.271,2094.74 922.413,2093.57 917.046,2084Z" style="fill:rgb(244,140,127);fill-rule:nonzero;"/>
    </g>
    <g transform="matrix(0.585119,0,0,0.585119,-64.2972,-882.43)">
        <path d="M823.161,2107.32L786.187,2155.2C786.187,2155.2 747.209,2125.24 732.836,2109.12C715.398,2089.57 696.332,2047.58 699.144,2046.05C707.04,2041.74 724.079,2038.29 735.834,2040.91C776.505,2050 823.161,2107.32 823.161,2107.32Z" style="fill:rgb(226,112,35);fill-rule:nonzero;"/>
    </g>
    <g transform="matrix(0.585119,0,0,0.585119,-64.2972,-882.43)">
        <path d="M915.515,2110.77L910.958,2086.97C910.958,2086.97 924.425,2090.18 932.992,2103.5C941.56,2116.81 955.906,2161.81 958.354,2163.14C960.802,2164.47 987.909,2122.71 992.648,2116.12C998.511,2107.98 1000.7,2098.63 1004.37,2091.53C1008.04,2084.43 1020.97,2082.02 1025.87,2082.9C1030.76,2083.79 1019.14,2104.56 1019.14,2104.56C1019.14,2104.56 989.769,2155.6 979.977,2183.55C970.185,2211.51 939.586,2224.83 934.69,2220.83C929.794,2216.84 915.515,2110.77 915.515,2110.77Z" style="fill:rgb(244,140,127);fill-rule:nonzero;"/>
    </g>
    <g transform="matrix(0.585119,0,0,0.585119,-64.2972,-882.43)">
        <path d="M920.827,2182.23L958.241,2160.88C958.241,2160.88 941.255,2089.27 910.958,2086.97L920.827,2182.23Z" style="fill:rgb(164,229,255);fill-rule:nonzero;"/>
    </g>
    <g transform="matrix(0.585119,0,0,0.585119,-64.2972,-882.43)">
        <path d="M1004.7,2095.44C1004.7,2095.44 1005.92,2090.07 1009.22,2088.97C1012.52,2087.87 1018.26,2088.85 1018.62,2088.97C1018.99,2089.09 1025.34,2085.67 1025.34,2085.67L1020.09,2095.44C1020.09,2095.44 1009.83,2107.53 1006.41,2103.01C1002.99,2098.5 1004.7,2095.44 1004.7,2095.44Z" style="fill:rgb(247,164,145);fill-rule:nonzero;"/>
    </g>
    <g transform="matrix(0.585119,0,0,0.585119,-64.2972,-882.43)">
        <path d="M1027.17,2086.12C1027.17,2086.12 1030.88,2104.97 1029.94,2108.92C1029,2112.88 1026.64,2110.75 1026.19,2109.89C1024.37,2106.35 1023.1,2094.26 1023.1,2094.26L1027.17,2086.12Z" style="fill:rgb(244,140,127);fill-rule:nonzero;"/>
    </g>
    <g transform="matrix(0.585119,0,0,0.585119,-64.2972,-882.43)">
        <path d="M1019.19,2101.79C1019.19,2101.79 1020.96,2113.48 1022.77,2114.86C1023.96,2115.76 1025.46,2115.23 1025.95,2112.87C1026.44,2110.5 1023.59,2096.09 1023.59,2096.09L1019.19,2101.79Z" style="fill:rgb(244,140,127);fill-rule:nonzero;"/>
    </g>
    <g transform="matrix(0.585119,0,0,0.585119,-64.2972,-882.43)">
        <path d="M1008.39,2134.96L1002.25,2131.97L1028.36,2078.39C1031.76,2080.05 1033.17,2084.14 1031.51,2087.54L1008.39,2134.96Z" style="fill:rgb(39,22,81);fill-rule:nonzero;"/>
    </g>
    <g transform="matrix(0.585119,0,0,0.585119,-64.2972,-882.43)">
        <path d="M764.508,2729.55C764.508,2729.55 761.334,2761.77 753.175,2767.69C745.015,2773.61 734.135,2795.5 739.575,2807.34C741.275,2811.04 744.674,2813.17 748.546,2814.37C760.01,2817.89 772.206,2811.95 777.086,2800.99C779.813,2794.87 782.206,2786.71 782.686,2776.42C783.91,2750.23 792.069,2736.92 792.069,2736.92L764.508,2729.55Z" style="fill:rgb(247,164,145);fill-rule:nonzero;"/>
    </g>
    <g transform="matrix(0.585119,0,0,0.585119,-64.2972,-882.43)">
        <path d="M889.896,2742.74C889.896,2742.74 892.468,2775.26 890.38,2785.82C889.262,2791.48 883.036,2803.13 885.893,2808.46C888.749,2813.78 892.012,2815.11 892.012,2815.11L966.028,2816.3C970.06,2816.37 967.395,2813.78 964.145,2811.4C958.824,2807.49 954.53,2804.91 937.533,2796.7C936.424,2796.17 932.388,2793.61 930.933,2792.72C927.243,2790.47 923.536,2786.93 920.345,2783.39C915.031,2777.48 914.566,2748.84 914.566,2748.84L889.896,2742.74Z" style="fill:rgb(247,164,145);fill-rule:nonzero;"/>
    </g>
    <g transform="matrix(0.585119,0,0,0.585119,-64.2972,-882.43)">
        <path d="M947.746,2310.48C947.746,2310.48 957.066,2363.28 950.947,2397.89C944.828,2432.51 915.454,2753.36 915.454,2753.36L882.812,2755.19C882.812,2755.19 875.971,2621.17 877.195,2602.53C878.418,2583.89 888.105,2552.7 888.105,2552.7L884.856,2444.49L926.047,2302.33L947.746,2310.48Z" style="fill:rgb(226,112,35);fill-rule:nonzero;"/>
    </g>
    <g transform="matrix(0.585119,0,0,0.585119,-64.2972,-882.43)">
        <path d="M851.811,2299.38C851.811,2299.38 826.109,2337.99 819.989,2369.94C813.869,2401.89 824.48,2500.08 812.709,2541.95C806.336,2564.62 782.184,2599.62 778.512,2628.91C774.84,2658.2 760.437,2734.92 760.437,2734.92L793.063,2741.38L868.89,2549.77L928.367,2376.59L943.604,2287.39L851.811,2299.38Z" style="fill:rgb(255,134,45);fill-rule:nonzero;"/>
    </g>
    <g transform="matrix(0.585119,0,0,0.585119,-64.2972,-882.43)">
        <path d="M872.617,2079.71C872.617,2079.71 854.995,2082.62 841.868,2095.46C813.716,2123.02 858.408,2229.27 860.855,2247.91C863.303,2266.55 840.796,2310.03 840.796,2310.03C840.796,2310.03 924.898,2325.57 947.746,2310.48C947.746,2310.48 950.433,2160.93 947.984,2147.62C945.537,2134.3 918.148,2093.21 913.252,2087.89C908.356,2082.56 872.617,2079.71 872.617,2079.71Z" style="fill:rgb(233,250,255);fill-rule:nonzero;"/>
    </g>
    <g transform="matrix(0.585119,0,0,0.585119,-64.2972,-882.43)">
        <path d="M840.789,2107.96C842.958,2101.4 850.395,2098.24 856.737,2100.98C865.426,2104.74 877.424,2111.87 883.284,2124.09C893.075,2144.5 927.346,2214.62 937.955,2217.28C948.562,2219.95 991.809,2144.5 991.809,2144.5C991.809,2144.5 990.584,2131.19 994.256,2123.64C997.928,2116.1 1008.94,2108.11 1010.58,2110.77C1012.21,2113.44 1004.46,2120.09 1004.46,2121.42C1004.46,2122.75 1007.72,2123.64 1012.21,2120.98C1016.7,2118.32 1019.13,2112.93 1019.13,2112.93C1019.13,2112.93 1026.49,2126.31 1018.74,2138.29C1010.98,2150.27 1007.72,2155.15 1007.72,2155.15C1007.72,2155.15 957.538,2266.54 939.179,2267.88C922.081,2269.12 823.605,2159.9 840.789,2107.96Z" style="fill:rgb(247,164,145);fill-rule:nonzero;"/>
    </g>
    <g transform="matrix(0.585119,0,0,0.585119,-64.2972,-882.43)">
        <path d="M883.946,2034.33C883.946,2034.33 883.77,2035.33 883.454,2037.03C881.936,2045.19 876.093,2072.28 872.146,2079.73C867.376,2088.73 888.477,2117.43 908.786,2113.92C914.831,2112.88 903.676,2087.55 904.211,2084.87C905.238,2079.73 906.629,2072.73 908.054,2065.54C908.857,2061.49 909.67,2057.38 910.435,2053.52C912.606,2042.55 914.379,2033.57 914.379,2033.57L883.946,2034.33Z" style="fill:rgb(247,164,145);fill-rule:nonzero;"/>
    </g>
    <g transform="matrix(0.585119,0,0,0.585119,-64.2972,-882.43)">
        <path d="M883.454,2037.03C883.77,2035.33 883.946,2034.33 883.946,2034.33L914.379,2033.57C914.379,2033.57 912.606,2042.55 910.435,2053.52C909.674,2057.36 908.865,2061.45 908.067,2065.48C903.369,2064.79 898.458,2062.51 893.537,2058.21C888.17,2053.52 884.652,2047.88 882.53,2041.87C882.906,2039.95 883.218,2038.3 883.454,2037.03Z" style="fill:rgb(244,116,88);fill-rule:nonzero;"/>
    </g>
    <g transform="matrix(0.585119,0,0,0.585119,-64.2972,-882.43)">
        <path d="M902.252,1962C902.252,1962 889.841,1963.72 880.85,1975.33C871.858,1986.93 862.167,2022.82 884.502,2042.33C906.838,2061.85 928.907,2039.76 932.18,2016.34C935.452,1992.92 934.79,1961.15 902.252,1962Z" style="fill:rgb(247,164,145);fill-rule:nonzero;"/>
    </g>
    <g transform="matrix(0.585119,0,0,0.585119,-64.2972,-882.43)">
        <path d="M939.329,2008.34C936.662,2013.51 932.188,2016.37 929.333,2014.73C926.479,2013.09 926.326,2007.57 928.992,2002.4C931.658,1997.23 936.133,1994.36 938.987,1996C941.841,1997.64 941.994,2003.17 939.329,2008.34Z" style="fill:rgb(247,164,145);fill-rule:nonzero;"/>
    </g>
    <g transform="matrix(0.585119,0,0,0.585119,-64.2972,-882.43)">
        <path d="M906.033,1961.46C906.033,1961.46 886.87,1995.58 873.16,1997.16C859.452,1998.74 857.651,2016.88 857.651,2016.88C857.651,2016.88 862.552,1975.09 876.125,1967.03C889.697,1958.97 906.033,1961.46 906.033,1961.46Z" style="fill:rgb(39,22,81);fill-rule:nonzero;"/>
    </g>
    <g transform="matrix(0.585119,0,0,0.585119,-64.2972,-882.43)">
        <path d="M877.643,2005.29C878.759,2011.35 876.516,2016.91 872.636,2017.71C868.754,2018.5 864.704,2014.24 863.589,2008.17C862.474,2002.11 864.716,1996.56 868.598,1995.76C872.479,1994.96 876.528,1999.23 877.643,2005.29Z" style="fill:rgb(247,164,145);fill-rule:nonzero;"/>
    </g>
    <g transform="matrix(0.585119,0,0,0.585119,-64.2972,-882.43)">
        <path d="M779.309,2795.23C761.528,2798.47 749.696,2788.08 743.54,2780.31C739.021,2789.12 736.251,2800.11 739.575,2807.34C742.503,2813.71 750.173,2814.22 756.91,2814.47C764.033,2814.74 770.997,2812.24 774.53,2806.05C776.182,2803.16 777.883,2799.56 779.309,2795.23Z" style="fill:rgb(255,134,45);fill-rule:nonzero;"/>
    </g>
    <g transform="matrix(0.585119,0,0,0.585119,-64.2972,-882.43)">
        <path d="M930.922,2792.71C911.348,2797.73 896.878,2794.32 888.784,2791.06C886.696,2796.97 883.929,2804.37 885.397,2808.64C887.194,2813.87 889.752,2815.05 892.012,2815.11C909.893,2815.58 957.507,2816.22 971.139,2816.4C973.044,2816.42 974.094,2814.2 972.87,2812.74C969.489,2808.71 932.382,2793.6 930.922,2792.71Z" style="fill:rgb(255,134,45);fill-rule:nonzero;"/>
    </g>
    <g transform="matrix(0.585119,0,0,0.585119,-64.2972,-882.43)">
        <path d="M868.264,2205.87L912.334,2176.95C912.334,2176.95 893.972,2125.07 873.773,2106.71C853.574,2088.35 844.022,2092.8 839.802,2096.61C828.097,2107.17 830.162,2132.88 843.475,2164.55C856.787,2196.23 868.264,2205.87 868.264,2205.87Z" style="fill:rgb(164,229,255);fill-rule:nonzero;"/>
    </g>
    <g transform="matrix(0.585119,0,0,0.585119,-64.2972,-882.43)">
        <path d="M799.044,2748.43C799.044,2748.43 797.327,2778.79 797.315,2778.86C796.684,2782.71 794.196,2792.24 794.196,2795.74C794.196,2808.9 852.769,2784.56 839.642,2778.73C838.453,2778.2 832.229,2774.21 831.838,2769.73C831.235,2762.83 829.708,2748.86 829.708,2748.86L799.044,2748.43Z" style="fill:rgb(247,164,145);fill-rule:nonzero;"/>
    </g>
    <g transform="matrix(0.585119,0,0,0.585119,-64.2972,-882.43)">
        <path d="M839.496,2778.61C839.496,2778.61 825.746,2782.63 818.702,2783.64C811.658,2784.65 801.653,2779.83 796.671,2782.12C791.188,2784.64 792.978,2814.49 792.978,2814.49C792.978,2814.49 867.346,2816.4 892.012,2815.11C900.632,2814.67 867.609,2787.98 839.496,2778.61Z" style="fill:rgb(39,22,81);fill-rule:nonzero;"/>
    </g>
    <g transform="matrix(0.585119,0,0,0.585119,-64.2972,-882.43)">
        <path d="M670.001,2751.35C670.001,2751.35 668.282,2781.71 668.272,2781.77C667.641,2785.63 665.153,2795.15 665.153,2798.65C665.153,2811.82 723.726,2787.48 710.598,2781.64C709.41,2781.12 701.34,2774.14 700.95,2769.66C700.348,2762.76 700.666,2751.77 700.666,2751.77L670.001,2751.35Z" style="fill:rgb(247,164,145);fill-rule:nonzero;"/>
    </g>
    <g transform="matrix(0.585119,0,0,0.585119,-64.2972,-882.43)">
        <path d="M710.453,2781.52C710.453,2781.52 696.701,2785.55 689.658,2786.55C682.615,2787.56 673.33,2779.08 668.348,2781.37C662.865,2783.89 661.457,2814.26 661.457,2814.26C661.457,2814.26 742.37,2817.86 761.303,2815.16C769.847,2813.94 738.566,2790.9 710.453,2781.52Z" style="fill:rgb(39,22,81);fill-rule:nonzero;"/>
    </g>
    <g transform="matrix(0.585119,0,0,0.585119,-64.2972,-882.43)">
        <path d="M762.821,2313.08L787.583,2323.76L839.672,2572.51L837.562,2759L795.805,2759.97C795.805,2759.97 776.383,2596.84 776.383,2584.2C776.383,2571.56 686.422,2362.97 686.422,2362.97L762.821,2313.08Z" style="fill:rgb(88,88,198);fill-rule:nonzero;"/>
    </g>
    <g transform="matrix(0.585119,0,0,0.585119,-64.2972,-882.43)">
        <path d="M743.707,2326.76C743.707,2326.76 736.786,2515.47 736.786,2547.78C736.786,2580.08 726.926,2761.71 726.926,2761.71L668.815,2763.61C668.815,2763.61 665.796,2708.5 661.309,2627.42C660.605,2614.72 662.213,2589.09 661.309,2575.95C654.797,2481.39 641.919,2392.38 648.07,2357.1C649.059,2351.42 650.921,2336.57 654.543,2332.82C681.954,2304.46 743.707,2326.76 743.707,2326.76Z" style="fill:rgb(116,115,232);fill-rule:nonzero;"/>
    </g>
    <g transform="matrix(0.585119,0,0,0.585119,-64.2972,-882.43)">
        <path d="M674.768,2040.14C674.768,2040.14 645.885,2044.16 638.283,2049.74C629.722,2056.03 620.221,2070.09 620.221,2070.09C620.221,2070.09 655.681,2237.72 655.745,2265.92C655.793,2287.75 648.066,2341.32 648.066,2341.32C648.066,2341.32 755.226,2348.09 795.811,2332.07C795.811,2332.07 782.995,2268.34 782.995,2251.61C782.995,2234.88 767.666,2082.72 764.177,2072.09C761.01,2062.45 755.226,2045.13 735.645,2040.85C716.064,2036.58 674.768,2040.14 674.768,2040.14Z" style="fill:rgb(255,134,45);fill-rule:nonzero;"/>
    </g>
    <g transform="matrix(0.585119,0,0,0.585119,-64.2972,-882.43)">
        <path d="M682.653,1995.01L675.746,2040.23C675.746,2040.23 697.461,2079 713.047,2074.16C726.125,2070.11 722.231,2039.35 722.231,2039.35C722.231,2039.35 715.103,2012.87 717.24,1999.61C719.378,1986.36 682.653,1995.01 682.653,1995.01Z" style="fill:rgb(247,164,145);fill-rule:nonzero;"/>
    </g>
    <g transform="matrix(0.585119,0,0,0.585119,-64.2972,-882.43)">
        <path d="M717.24,1999.61C719.378,1986.36 682.653,1995.01 682.653,1995.01L682.061,1998.89C683.135,2001.49 684.449,2003.71 686.043,2005.42C694.247,2014.19 707.068,2019.45 718.154,2019.85C717.046,2012.71 716.364,2005.05 717.24,1999.61Z" style="fill:rgb(244,116,88);fill-rule:nonzero;"/>
    </g>
    <g transform="matrix(0.585119,0,0,0.585119,-64.2972,-882.43)">
        <path d="M676.628,1928.79C675.59,1928.42 668.308,1982.1 682.127,1996.87C695.945,2011.64 722.87,2016.48 732.527,2004.84C743.208,1991.98 742.672,1934.28 721.188,1919.08C699.703,1903.89 676.628,1928.79 676.628,1928.79Z" style="fill:rgb(247,164,145);fill-rule:nonzero;"/>
    </g>
    <g transform="matrix(0.585119,0,0,0.585119,-64.2972,-882.43)">
        <path d="M713.009,1890.36C696.402,1893.73 685.646,1903.81 681.694,1908.11C674.154,1908.99 663.904,1913.13 653.322,1930.54C640.308,1951.94 649.918,1975.65 665.067,1987.29C673.25,1993.57 676.937,2000.43 678.598,2005.41C679.203,2007.22 681.777,2007.22 682.399,2005.41C684.166,2000.14 684.888,1994.56 684.296,1989.03C683.941,1985.72 683.227,1982.14 681.846,1979.19C678.203,1971.42 689.672,1966.26 692.888,1959.79C695.364,1954.82 695.484,1943.43 699.386,1935.2L704.045,1928.92C704.045,1928.92 714.794,1920.61 725.312,1922.96C735.828,1925.3 734.315,1886.05 713.009,1890.36Z" style="fill:rgb(39,22,81);fill-rule:nonzero;"/>
    </g>
    <g transform="matrix(0.585119,0,0,0.585119,-64.2972,-882.43)">
        <path d="M692.182,1969.35C692.291,1975.9 689.294,1981.26 685.486,1981.33C681.68,1981.39 678.504,1976.13 678.395,1969.58C678.285,1963.03 681.282,1957.67 685.089,1957.61C688.896,1957.54 692.072,1962.8 692.182,1969.35Z" style="fill:rgb(247,164,145);fill-rule:nonzero;"/>
    </g>
    <g transform="matrix(0.585119,0,0,0.585119,-64.2972,-882.43)">
        <path d="M748.421,2210.64L749.112,2214.64C749.468,2216.7 751.425,2218.08 753.48,2217.72L836.309,2203.38C838.365,2203.02 839.743,2201.06 839.387,2199.01L838.695,2195.01C838.339,2192.95 836.383,2191.58 834.327,2191.93L751.499,2206.28C749.442,2206.63 748.065,2208.59 748.421,2210.64Z" style="fill:rgb(88,88,198);fill-rule:nonzero;"/>
    </g>
    <g transform="matrix(0.585119,0,0,0.585119,-64.2972,-882.43)">
        <path d="M631.001,2061.73C640.719,2061.44 649.315,2125.54 643.154,2131.87C636.994,2138.19 635.819,2217.14 635.819,2217.14L727.494,2214.86L727.505,2214.89C729.293,2213.69 748.5,2200.79 751.246,2197.97C754.127,2195.02 768.123,2196.49 771.827,2200.56C775.531,2204.63 764.696,2203.22 761.478,2204.74C757.89,2206.44 762.771,2211.28 762.771,2211.28C762.771,2211.28 786.005,2214.65 790.532,2209.85C795.06,2205.04 807.161,2196.91 808.806,2201.71C809.656,2204.19 803.416,2211.71 799.901,2214.86C804.288,2211.58 809.541,2208.09 811.342,2208.69C814.635,2209.8 813.263,2213.99 811.479,2215.23C809.696,2216.46 791.252,2230.54 788.371,2231.53C785.557,2232.49 742.657,2233.55 735.246,2235.19C735.246,2235.19 614.353,2262.72 607.479,2261C601.449,2259.49 595.42,2220.8 595.42,2191.16C595.42,2161.52 600.635,2062.6 631.001,2061.73Z" style="fill:rgb(247,164,145);fill-rule:nonzero;"/>
    </g>
    <g transform="matrix(0.585119,0,0,0.585119,-64.2972,-882.43)">
        <path d="M643.606,2047.1C643.606,2047.1 622.483,2052.04 609.225,2070.63C595.35,2090.08 583.33,2188.45 583.33,2188.45L638.187,2197.32L642.566,2148.96L657.224,2126.84L643.606,2047.1Z" style="fill:rgb(255,134,45);fill-rule:nonzero;"/>
    </g>
    <g transform="matrix(0.585119,0,0,0.585119,-64.2972,-882.43)">
        <path d="M907.213,2085C907.213,2085 911.009,2080.79 918.151,2081.3C925.294,2081.81 934.653,2090.84 935.959,2094.08C936.632,2095.75 932.144,2108.92 930.193,2111.82C929.039,2113.53 926.389,2114.38 925.459,2113.48C924.848,2112.89 925.488,2109.89 925.658,2109.25C925.989,2107.99 928.362,2099.85 928.362,2099.85C928.362,2099.85 923.746,2108.06 921.598,2108.55C919.449,2109.05 918.258,2107.31 918.386,2106.63C919.039,2103.15 922.631,2096.48 922.631,2096.48C922.631,2096.48 917.223,2104.41 914.566,2103.58C911.91,2102.75 913.015,2099.92 913.412,2098.97C913.808,2098.01 917.509,2092.53 917.509,2092.53C917.509,2092.53 911.646,2100.65 910.499,2097.74C909.801,2095.97 913.632,2088.28 913.632,2088.28L907.213,2085Z" style="fill:rgb(247,164,145);fill-rule:nonzero;"/>
    </g>
    <g transform="matrix(0.585119,0,0,0.585119,-64.2972,-882.43)">
        <path d="M640.68,2038.75L781.561,2179.95L781.561,2197.32L620.277,2050.29L640.68,2038.75Z" style="fill:rgb(39,22,81);fill-rule:nonzero;"/>
    </g>
    <g transform="matrix(0.585119,0,0,0.585119,-64.2972,-882.43)">
        <path d="M1766.7,2357.58C1766.7,2357.58 1761.31,2355.01 1756.4,2345.92C1753.25,2340.09 1743.89,2332.61 1747.79,2331.41C1751.68,2330.2 1757.65,2340.05 1758.77,2337.23C1759.89,2334.41 1748.74,2313.06 1752.27,2311.97C1755.8,2310.87 1765.04,2331.63 1766.04,2329.11C1767.04,2326.58 1756.61,2308.44 1761.6,2306.89C1766.59,2305.34 1771.98,2329.22 1774.65,2328.39C1777.33,2327.56 1773.43,2309.34 1777.45,2308.1C1781.47,2306.85 1780.9,2330.63 1782.34,2329.94C1783.12,2329.57 1786.69,2318.06 1788.87,2318.92C1791.33,2319.9 1784.68,2343.53 1787.63,2348.74C1790.59,2353.95 1814.25,2418.73 1806.16,2426.82C1797.35,2435.63 1741.25,2455.85 1729.51,2452.37C1717.77,2448.9 1711.05,2437.29 1713.87,2430.16C1716.69,2423.03 1772.15,2407 1773.04,2404.76C1773.92,2402.53 1766.7,2357.58 1766.7,2357.58Z" style="fill:rgb(247,164,145);fill-rule:nonzero;"/>
    </g>
    <g transform="matrix(0.585119,0,0,0.585119,-64.2972,-882.43)">
        <path d="M1762.12,2338.56C1763.81,2338.49 1765.48,2338.87 1767.09,2339.46C1767.32,2339.62 1772.64,2341.18 1774.93,2347.06C1772.4,2344.05 1769.59,2340.72 1762.12,2338.56Z" style="fill:rgb(244,140,127);fill-rule:nonzero;"/>
    </g>
    <g transform="matrix(0.585119,0,0,0.585119,-64.2972,-882.43)">
        <path d="M1505.09,2744.62C1505.09,2744.62 1507.86,2774.92 1506.04,2784.8C1505.8,2786.12 1505.26,2787.8 1504.63,2789.64C1502.75,2795.18 1507.9,2812.09 1507.9,2812.09L1576.94,2812.35C1580.7,2812.36 1578.18,2809.98 1575.12,2807.79C1570.12,2804.21 1566.08,2801.85 1550.14,2794.4C1549.1,2793.91 1545.3,2791.57 1543.94,2790.76C1540.47,2788.71 1536.97,2785.45 1533.96,2782.18C1528.93,2776.73 1528.17,2750.03 1528.17,2750.03L1505.09,2744.62Z" style="fill:rgb(247,164,145);fill-rule:nonzero;"/>
    </g>
    <g transform="matrix(0.585119,0,0,0.585119,-64.2972,-882.43)">
        <path d="M1543.93,2790.75C1525.73,2795.66 1512.2,2792.64 1504.61,2789.7C1502.73,2795.23 1499.38,2814.26 1501.49,2814.26C1518.8,2814.26 1533.38,2814.46 1582.6,2814.67C1584.37,2814.68 1584.43,2810.3 1583.28,2808.95C1580.08,2805.23 1545.3,2791.57 1543.93,2790.75Z" style="fill:rgb(39,22,81);fill-rule:nonzero;"/>
    </g>
    <g transform="matrix(0.585119,0,0,0.585119,-64.2972,-882.43)">
        <path d="M1418.5,2384.99C1418.5,2384.99 1419.49,2428.23 1431.88,2455.93C1443.95,2482.9 1501.72,2549.42 1517.08,2588.25C1512.33,2610.15 1499.28,2640.93 1500.23,2665.2C1501.3,2692.71 1499.7,2765.5 1499.7,2765.5L1530.7,2766.48L1571.37,2578.65L1510.08,2376L1482.27,2326.79L1418.5,2384.99Z" style="fill:rgb(88,88,198);fill-rule:nonzero;"/>
    </g>
    <g transform="matrix(0.585119,0,0,0.585119,-64.2972,-882.43)">
        <path d="M1286.06,2701.55C1286.06,2701.55 1267.01,2727.69 1258.62,2734.3C1254.12,2737.84 1241.92,2742.59 1240.63,2748.44C1239.35,2754.29 1295.9,2806.06 1295.9,2806.06C1298.89,2808.71 1298.56,2805.04 1297.65,2801.15C1296.16,2794.78 1294.59,2790.06 1287.09,2772.92C1286.61,2771.8 1285.22,2767.26 1284.7,2765.66C1283.37,2761.58 1282.86,2756.53 1282.75,2751.8C1282.56,2743.92 1300.69,2722.07 1300.69,2722.07L1286.06,2701.55Z" style="fill:rgb(247,164,145);fill-rule:nonzero;"/>
    </g>
    <g transform="matrix(0.585119,0,0,0.585119,-64.2972,-882.43)">
        <path d="M1284.69,2765.65C1266.72,2756.79 1258.03,2744.89 1254.04,2737.21C1248.65,2740.31 1234.18,2746.91 1235.45,2748.76C1245.46,2763.27 1255.83,2781.32 1295.99,2815.51C1297.43,2816.74 1303.33,2809.68 1303.35,2807.79C1303.4,2802.58 1285.22,2767.26 1284.69,2765.65Z" style="fill:rgb(39,22,81);fill-rule:nonzero;"/>
    </g>
    <g transform="matrix(0.585119,0,0,0.585119,-64.2972,-882.43)">
        <path d="M1514.11,2075.71C1508.76,2040.85 1477.22,2015.77 1444.22,2032.69C1436.8,2036.5 1426.76,2044.22 1421.63,2050.8C1407.54,2068.89 1404.12,2091.3 1389.18,2108.7C1376.3,2123.7 1341.92,2120.87 1325.86,2132.4C1309.81,2143.94 1298.55,2164.62 1298.55,2189.36C1298.55,2217.02 1304.8,2246.39 1326.24,2263.88C1347.67,2281.37 1378.14,2285.73 1404.79,2278.32C1431.45,2270.91 1454.32,2252.75 1470.78,2230.51C1487.24,2208.27 1498.88,2183.89 1507.08,2157.47C1516.24,2127.98 1517.57,2098.25 1514.11,2075.71Z" style="fill:rgb(39,22,81);fill-rule:nonzero;"/>
    </g>
    <g transform="matrix(0.585119,0,0,0.585119,-64.2972,-882.43)">
        <path d="M1512.52,2239.41C1512.52,2239.41 1546,2315.21 1552.37,2332.32C1558.74,2349.42 1592.16,2406.62 1593.53,2408.8C1594.9,2410.98 1625.27,2414.86 1623.57,2418.77C1621.87,2422.68 1608.93,2417.78 1608.93,2419.92C1608.93,2424.76 1627.83,2460.2 1624.76,2461.05C1619.03,2462.65 1613.04,2439.16 1610.49,2440.39C1607.94,2441.62 1622.52,2462.11 1618.99,2465.64C1615.46,2469.17 1607.07,2444.93 1604.74,2444.91C1602.41,2444.89 1617.2,2468.83 1612.17,2468.42C1609.44,2468.2 1598.78,2446.15 1596.49,2448.44C1595.52,2449.41 1606.89,2467.17 1603.78,2466.61C1600.66,2466.06 1591.68,2452.04 1588.08,2444.14C1584.49,2436.25 1586.11,2428.61 1576.61,2417.8C1567.1,2406.98 1528.95,2372.84 1517.64,2345.52C1506.33,2318.2 1481.17,2257.91 1481.17,2257.91L1512.52,2239.41Z" style="fill:rgb(244,140,127);fill-rule:nonzero;"/>
    </g>
    <g transform="matrix(0.585119,0,0,0.585119,-64.2972,-882.43)">
        <path d="M1484.29,2162.36C1484.29,2162.36 1512.12,2175.65 1525.84,2258.41L1478.66,2271.56L1459.03,2218.22L1484.29,2162.36Z" style="fill:rgb(164,229,255);fill-rule:nonzero;"/>
    </g>
    <g transform="matrix(0.585119,0,0,0.585119,-64.2972,-882.43)">
        <path d="M1420.69,2357.29C1420.69,2357.29 1396.72,2393.3 1391.01,2423.1C1385.46,2452.12 1394.7,2539.74 1385.04,2580.36C1368.6,2595.59 1340.27,2613.35 1327.14,2633.78C1312.26,2656.94 1269.25,2715.68 1269.25,2715.68L1294.09,2734.25L1435.03,2603.6L1492.09,2429.3L1511.67,2378.33L1420.69,2357.29Z" style="fill:rgb(116,115,232);fill-rule:nonzero;"/>
    </g>
    <g transform="matrix(0.585119,0,0,0.585119,-64.2972,-882.43)">
        <path d="M1440.1,2152.43C1440.1,2152.43 1408.36,2150.41 1395.8,2164.07C1383.25,2177.73 1423.66,2285.77 1425.94,2303.15C1428.22,2320.53 1403.22,2380.17 1403.22,2380.17C1403.22,2380.17 1494.55,2396.04 1515.86,2381.96C1515.86,2381.96 1512.45,2242.66 1510.16,2230.24C1507.88,2217.82 1488.85,2167.33 1484.29,2162.36C1479.72,2157.39 1440.1,2152.43 1440.1,2152.43Z" style="fill:rgb(233,250,255);fill-rule:nonzero;"/>
    </g>
    <g transform="matrix(0.585119,0,0,0.585119,-64.2972,-882.43)">
        <path d="M1450.66,2110.11C1450.66,2110.11 1450.5,2111.04 1450.2,2112.63C1448.79,2120.24 1443.34,2145.5 1439.66,2152.45C1435.21,2160.84 1454.89,2187.61 1473.83,2184.34C1479.46,2183.37 1469.06,2159.75 1469.56,2157.24C1470.52,2152.45 1471.82,2145.92 1473.14,2139.22C1473.89,2135.44 1474.65,2131.61 1475.37,2128.01C1477.39,2117.77 1479.04,2109.4 1479.04,2109.4L1450.66,2110.11Z" style="fill:rgb(247,164,145);fill-rule:nonzero;"/>
    </g>
    <g transform="matrix(0.585119,0,0,0.585119,-64.2972,-882.43)">
        <path d="M1450.2,2112.63C1450.5,2111.04 1450.66,2110.11 1450.66,2110.11L1479.04,2109.4C1479.04,2109.4 1477.39,2117.77 1475.37,2128.01C1474.66,2131.59 1473.9,2135.4 1473.16,2139.16C1468.78,2138.51 1464.2,2136.39 1459.61,2132.38C1454.6,2128 1451.32,2122.75 1449.34,2117.14C1449.69,2115.35 1449.98,2113.81 1450.2,2112.63Z" style="fill:rgb(244,116,88);fill-rule:nonzero;"/>
    </g>
    <g transform="matrix(0.585119,0,0,0.585119,-64.2972,-882.43)">
        <path d="M1469.76,2045.72C1469.76,2045.72 1456.39,2044.18 1448,2055C1439.62,2065.83 1430.58,2099.3 1451.41,2117.5C1472.24,2135.69 1492.82,2115.09 1495.87,2093.25C1498.92,2071.41 1500.11,2044.93 1469.76,2045.72Z" style="fill:rgb(247,164,145);fill-rule:nonzero;"/>
    </g>
    <g transform="matrix(0.585119,0,0,0.585119,-64.2972,-882.43)">
        <path d="M1502.04,2092.93C1499.55,2097.76 1495.38,2100.43 1492.71,2098.9C1490.05,2097.37 1489.91,2092.22 1492.39,2087.4C1494.88,2082.57 1499.05,2079.9 1501.72,2081.43C1504.38,2082.96 1504.52,2088.11 1502.04,2092.93Z" style="fill:rgb(247,164,145);fill-rule:nonzero;"/>
    </g>
    <g transform="matrix(0.585119,0,0,0.585119,-64.2972,-882.43)">
        <path d="M1471.26,2042.14C1471.26,2042.14 1453.39,2073.97 1440.6,2075.44C1427.82,2076.92 1426.14,2093.83 1426.14,2093.83C1426.14,2093.83 1430.71,2054.86 1443.37,2047.34C1456.02,2039.82 1471.26,2042.14 1471.26,2042.14Z" style="fill:rgb(39,22,81);fill-rule:nonzero;"/>
    </g>
    <g transform="matrix(0.585119,0,0,0.585119,-64.2972,-882.43)">
        <path d="M1443.96,2083.44C1445,2089.09 1442.9,2094.28 1439.28,2095.02C1435.67,2095.76 1431.89,2091.78 1430.85,2086.13C1429.81,2080.48 1431.9,2075.29 1435.52,2074.55C1439.14,2073.81 1442.92,2077.79 1443.96,2083.44Z" style="fill:rgb(247,164,145);fill-rule:nonzero;"/>
    </g>
    <g transform="matrix(0.585119,0,0,0.585119,-64.2972,-882.43)">
        <path d="M1047.87,2761.31L1064.75,2768L1311.53,2436.13C1302.22,2432.45 1297.53,2438.75 1292.51,2445.51L1047.87,2761.31Z" style="fill:rgb(39,22,81);fill-rule:nonzero;"/>
    </g>
    <g transform="matrix(0.585119,0,0,0.585119,-64.2972,-882.43)">
        <path d="M1074.01,2780.4L1090.9,2787.09L1337.77,2446.53C1341.28,2441.82 1331.87,2438.82 1331.87,2438.82L1074.01,2780.4Z" style="fill:rgb(88,88,198);fill-rule:nonzero;"/>
    </g>
    <g transform="matrix(0.585119,0,0,0.585119,-64.2972,-882.43)">
        <path d="M1096.4,2603.66L1071.28,2593.68L1102.13,2552.56C1127.73,2518.44 1186.39,2505.85 1233.15,2524.44L1275.39,2541.23L1090.9,2787.09L989.121,2746.63L957.63,2724.42L1096.4,2603.66Z" style="fill:rgb(255,134,45);fill-rule:nonzero;"/>
    </g>
    <g transform="matrix(0.585119,0,0,0.585119,-64.2972,-882.43)">
        <path d="M1275.39,2541.23L1090.9,2787.09L989.121,2746.63L991.521,2743.43C1062.37,2748.26 1225.93,2580.28 1266.27,2537.6L1275.39,2541.23Z" style="fill:rgb(226,112,35);fill-rule:nonzero;"/>
    </g>
    <g transform="matrix(0.585119,0,0,0.585119,-64.2972,-882.43)">
        <path d="M1145.65,2619.48C1160.87,2602.59 1184.39,2577.88 1201.33,2562.93C1183.01,2588.77 1148.57,2625.93 1148.11,2626.47C1127.9,2618.34 1101.53,2608.22 1071.28,2593.68C1096.73,2601.38 1121.33,2610.25 1145.65,2619.48Z" style="fill:rgb(226,112,35);fill-rule:nonzero;"/>
    </g>
    <g transform="matrix(0.585119,0,0,0.585119,-64.2972,-882.43)">
        <path d="M1110.56,2791.14C1110.56,2803.92 1100.2,2814.28 1087.41,2814.28C1074.63,2814.28 1064.27,2803.92 1064.27,2791.14C1064.27,2778.36 1074.63,2768 1087.41,2768C1100.2,2768 1110.56,2778.36 1110.56,2791.14Z" style="fill:rgb(39,22,81);fill-rule:nonzero;"/>
    </g>
    <g transform="matrix(0.585119,0,0,0.585119,-64.2972,-882.43)">
        <path d="M1096.94,2791.14C1096.94,2796.4 1092.68,2800.67 1087.41,2800.67C1082.15,2800.67 1077.89,2796.4 1077.89,2791.14C1077.89,2785.88 1082.15,2781.61 1087.41,2781.61C1092.68,2781.61 1096.94,2785.88 1096.94,2791.14Z" style="fill:rgb(88,88,198);fill-rule:nonzero;"/>
    </g>
    <g transform="matrix(0.585119,0,0,0.585119,-64.2972,-882.43)">
        <path d="M1380.08,2236.19C1380.08,2236.19 1357.98,2316.05 1354.17,2333.9C1350.35,2351.76 1325.62,2413.21 1324.58,2415.56C1323.53,2417.92 1301.7,2440.24 1304.62,2444.75C1306.25,2447.26 1311.08,2450.21 1313.38,2449.85C1315.69,2449.49 1317.03,2451.36 1320.1,2452.4C1323.17,2453.44 1328.9,2452.71 1331.3,2444.38C1333.71,2436.05 1334.8,2434.08 1342.63,2422C1350.46,2409.92 1383.24,2370.59 1390.45,2341.91C1397.67,2313.24 1413.79,2249.93 1413.79,2249.93L1380.08,2236.19Z" style="fill:rgb(247,156,141);fill-rule:nonzero;"/>
    </g>
    <g transform="matrix(0.585119,0,0,0.585119,-64.2972,-882.43)">
        <path d="M1321.39,2452.7C1324.57,2453.13 1329.2,2451.65 1331.3,2444.38C1331.88,2442.36 1332.39,2440.72 1332.93,2439.21C1332.29,2438.96 1331.87,2438.82 1331.87,2438.82L1321.39,2452.7Z" style="fill:rgb(88,88,198);fill-rule:nonzero;"/>
    </g>
    <g transform="matrix(0.585119,0,0,0.585119,-64.2972,-882.43)">
        <path d="M1371.56,2260.72C1371.56,2260.72 1373.56,2195.03 1382.47,2176.58C1391.37,2158.13 1413.56,2147.57 1421.94,2163.74C1430.58,2180.41 1415.55,2261.48 1415.55,2261.48L1371.56,2260.72Z" style="fill:rgb(164,229,255);fill-rule:nonzero;"/>
    </g>
    <g transform="matrix(0.585119,0,0,0.585119,-64.2972,-882.43)">
        <path d="M1751.58,2409.3L1715.4,2411.95L1726.5,2454.87L1763.59,2448.19L1751.58,2409.3Z" style="fill:rgb(88,88,198);fill-rule:nonzero;"/>
    </g>
    <g transform="matrix(0.585119,0,0,0.585119,-64.2972,-882.43)">
        <path d="M1627.62,2432.06C1627.62,2432.06 1619.54,2531.68 1619.54,2540.33C1619.54,2548.98 1653.92,2551.43 1653.92,2551.43L1664.43,2449.21L1627.62,2432.06Z" style="fill:rgb(226,112,35);fill-rule:nonzero;"/>
    </g>
    <g transform="matrix(0.585119,0,0,0.585119,-64.2972,-882.43)">
        <path d="M1678.89,2407.81C1678.89,2407.81 1656.59,2395.87 1638.2,2406.81C1619.81,2417.76 1614.81,2482.05 1614.81,2482.05L1673.71,2489.11L1678.89,2407.81Z" style="fill:rgb(255,134,45);fill-rule:nonzero;"/>
    </g>
    <g transform="matrix(0.585119,0,0,0.585119,-64.2972,-882.43)">
        <path d="M1601.26,2765.75C1601.26,2765.75 1597.46,2779.28 1594.43,2782.3C1591.41,2785.33 1581.39,2797.05 1583.86,2802.87C1586.32,2808.68 1647.36,2817 1649.68,2814.69C1652,2812.37 1639.14,2802.57 1631.84,2796.56C1624.55,2790.55 1619.33,2783.16 1622.38,2774.19C1625.44,2765.22 1625.44,2766.11 1625.44,2765.22C1625.44,2764.34 1601.26,2765.75 1601.26,2765.75Z" style="fill:rgb(247,164,145);fill-rule:nonzero;"/>
    </g>
    <g transform="matrix(0.585119,0,0,0.585119,-64.2972,-882.43)">
        <path d="M1649.68,2814.69C1652.44,2812.62 1643.87,2803.36 1631.44,2796.22C1626.23,2796.21 1619.3,2795.86 1613.42,2794.39C1604.22,2792.09 1597.16,2784.12 1595.07,2781.53C1594.88,2781.8 1580.08,2796.05 1582.97,2802.87C1585.43,2808.68 1644.16,2818.83 1649.68,2814.69Z" style="fill:rgb(39,22,81);fill-rule:nonzero;"/>
    </g>
    <g transform="matrix(0.585119,0,0,0.585119,-64.2972,-882.43)">
        <path d="M1702.55,2772.32C1702.55,2772.32 1703.68,2786.22 1701.39,2789.83C1699.1,2793.43 1691.09,2807.74 1695.55,2812.2C1699.58,2816.23 1755.49,2813.64 1757.25,2810.87C1759,2808.11 1749.43,2799.85 1741.01,2795.58C1732.58,2791.3 1725.87,2785.23 1726.9,2775.81C1727.92,2766.4 1728.11,2767.26 1727.92,2766.4C1727.73,2765.53 1702.55,2772.32 1702.55,2772.32Z" style="fill:rgb(247,164,145);fill-rule:nonzero;"/>
    </g>
    <g transform="matrix(0.585119,0,0,0.585119,-64.2972,-882.43)">
        <path d="M1764.19,2813.1C1767.11,2811.25 1754.22,2799.59 1740.54,2795.33C1735.46,2796.46 1728.61,2797.63 1722.55,2797.48C1713.07,2797.24 1704.45,2791 1701.84,2788.94C1701.71,2789.24 1688.98,2807.69 1694.69,2812.39C1699.14,2816.07 1759.76,2815.91 1764.19,2813.1Z" style="fill:rgb(39,22,81);fill-rule:nonzero;"/>
    </g>
    <g transform="matrix(0.585119,0,0,0.585119,-64.2972,-882.43)">
        <path d="M1706.63,2575.51L1670.53,2680.12L1629.12,2776.96L1594.43,2768.25C1594.43,2768.25 1606.95,2701.12 1618.71,2680.03C1627.61,2664.08 1633.82,2572.51 1633.82,2572.51L1706.63,2575.51Z" style="fill:rgb(255,134,45);fill-rule:nonzero;"/>
    </g>
    <g transform="matrix(0.585119,0,0,0.585119,-64.2972,-882.43)">
        <path d="M1689.3,2593.12L1701.8,2776.96L1731.36,2776.96C1731.36,2776.96 1744.28,2584.35 1739.55,2566.02C1734.82,2547.7 1685.57,2551.83 1685.57,2551.83L1689.3,2593.12Z" style="fill:rgb(226,112,35);fill-rule:nonzero;"/>
    </g>
    <g transform="matrix(0.585119,0,0,0.585119,-64.2972,-882.43)">
        <path d="M1717.67,2412.62C1717.67,2412.62 1679.57,2401.2 1673.71,2401.94C1667.29,2402.75 1651.68,2411.02 1651.68,2411.02C1651.68,2411.02 1652.64,2477.15 1649.88,2495.85C1647.12,2514.55 1627.8,2574.46 1627.8,2574.46C1627.8,2574.46 1655,2590.23 1700.72,2585.1C1746.44,2579.98 1743.29,2568.94 1743.29,2568.94C1743.29,2568.94 1738.95,2502.73 1734.62,2473.56C1730.28,2444.39 1717.67,2412.62 1717.67,2412.62Z" style="fill:rgb(116,115,232);fill-rule:nonzero;"/>
    </g>
    <g transform="matrix(0.585119,0,0,0.585119,-64.2972,-882.43)">
        <path d="M1657.79,2407.96C1657.79,2407.96 1666.35,2406.66 1673.71,2434.48C1682.04,2466 1673.07,2498.65 1659.28,2506.92C1645.5,2515.19 1639.82,2513.59 1639.82,2513.59L1641.99,2533.03C1641.99,2533.03 1682.71,2523.92 1688.25,2489.11C1697.34,2432.06 1670.53,2402.68 1670.53,2402.68C1670.53,2402.68 1665.49,2403.49 1663.92,2404.13C1662.25,2404.81 1657.79,2407.96 1657.79,2407.96Z" style="fill:rgb(255,134,45);fill-rule:nonzero;"/>
    </g>
    <g transform="matrix(0.585119,0,0,0.585119,-64.2972,-882.43)">
        <path d="M1636.74,2473.82L1636.74,2514.55C1636.74,2521.65 1644.88,2569.68 1654.87,2586.13C1664.85,2602.58 1678.39,2620.93 1681.19,2621.98C1683.99,2623.03 1690.08,2626.88 1693.23,2623.73C1696.38,2620.58 1698.88,2622.02 1702.82,2620.31C1706.76,2618.6 1702.3,2612.96 1696.78,2607.44C1691.26,2601.92 1690.08,2600.61 1691,2599.69C1691.92,2598.77 1696.38,2603.89 1698.75,2603.1C1701.11,2602.31 1697.3,2594.04 1691.13,2591.15C1684.96,2588.26 1675.1,2582.61 1674.18,2579.58C1673.26,2576.56 1673.26,2577.35 1673.26,2576.56C1673.26,2575.78 1666.3,2528.08 1666.3,2518.76C1666.3,2509.43 1663.54,2479.08 1663.54,2479.08L1636.74,2473.82Z" style="fill:rgb(247,164,145);fill-rule:nonzero;"/>
    </g>
    <g transform="matrix(0.585119,0,0,0.585119,-64.2972,-882.43)">
        <path d="M1655.36,2409.4C1651.78,2409.84 1642.06,2413.39 1638.64,2424.95C1635.23,2436.51 1626.23,2469.36 1627.8,2485.39C1627.8,2485.39 1666.17,2490.38 1666.17,2488.8C1666.17,2487.23 1674.56,2446.1 1670.37,2428.1C1666.72,2412.4 1661.59,2408.62 1655.36,2409.4Z" style="fill:rgb(88,88,198);fill-rule:nonzero;"/>
    </g>
    <g transform="matrix(0.585119,0,0,0.585119,-64.2972,-882.43)">
        <path d="M1711.7,2410.87L1738.37,2506.72L1738.37,2506.71C1737.2,2494.2 1735.91,2482.24 1734.62,2473.56C1730.28,2444.39 1717.44,2411.8 1717.44,2411.8C1717.44,2411.8 1715.4,2411.29 1711.7,2410.87Z" style="fill:rgb(255,134,45);fill-rule:nonzero;"/>
    </g>
    <g transform="matrix(0.585119,0,0,0.585119,-64.2972,-882.43)">
        <path d="M1696.43,2312.9C1696.43,2312.9 1710.9,2307.66 1720.25,2322.31C1729.6,2336.97 1724.55,2335.58 1729.09,2342.91C1733.64,2350.23 1745.52,2348.72 1745.52,2360.09C1745.52,2371.46 1740.21,2373.23 1740.21,2373.23C1740.21,2373.23 1745.01,2382.07 1739.71,2391.17C1734.4,2400.27 1721.17,2408.1 1710.1,2406.84C1710.1,2406.84 1693.47,2415.95 1676.79,2411.65C1660.11,2407.34 1665.92,2407.34 1659.1,2407.34C1652.28,2407.34 1633.83,2397.99 1636.86,2384.35C1636.86,2384.35 1625.62,2371 1636.53,2360.09C1647.43,2349.18 1649.5,2338.1 1655.81,2323.45C1662.13,2308.79 1688.85,2309.36 1696.43,2312.9Z" style="fill:rgb(39,22,81);fill-rule:nonzero;"/>
    </g>
    <g transform="matrix(0.585119,0,0,0.585119,-64.2972,-882.43)">
        <path d="M1706.1,2390.92C1706.1,2390.92 1705.49,2411.04 1707.38,2412.93C1709.27,2414.82 1711.91,2417.96 1709.13,2422.76C1706.35,2427.56 1694.29,2424.49 1688.66,2421.75C1683.27,2419.11 1679.78,2414.2 1679.78,2414.2L1682.6,2382.33L1706.1,2390.92Z" style="fill:rgb(247,164,145);fill-rule:nonzero;"/>
    </g>
    <g transform="matrix(0.585119,0,0,0.585119,-64.2972,-882.43)">
        <path d="M1698.08,2399.26C1694.2,2397.9 1687.43,2395.28 1682.21,2386.79L1682.6,2382.33L1706.1,2390.92C1706.1,2390.92 1705.95,2395.83 1706.03,2401.02C1702.74,2400.89 1699.92,2399.9 1698.08,2399.26Z" style="fill:rgb(183,87,66);fill-rule:nonzero;"/>
    </g>
    <g transform="matrix(0.585119,0,0,0.585119,-64.2972,-882.43)">
        <path d="M1678.46,2359.57C1678.46,2359.57 1677.89,2347.74 1670.62,2350.03C1663.36,2352.33 1668.89,2370.19 1674.92,2369.6C1680.94,2369.01 1678.46,2359.57 1678.46,2359.57Z" style="fill:rgb(247,164,145);fill-rule:nonzero;"/>
    </g>
    <g transform="matrix(0.585119,0,0,0.585119,-64.2972,-882.43)">
        <path d="M1701.3,2320.92C1701.3,2320.92 1712.67,2320.67 1718.48,2329.51C1724.29,2338.36 1730.61,2363.63 1721.01,2381.06C1711.41,2398.5 1699.15,2394.2 1694.1,2392.43C1689.04,2390.66 1679.06,2386.75 1674.01,2370.45C1668.95,2354.15 1672.62,2317.51 1701.3,2320.92Z" style="fill:rgb(247,164,145);fill-rule:nonzero;"/>
    </g>
    <g transform="matrix(0.585119,0,0,0.585119,-64.2972,-882.43)">
        <path d="M506.992,2399.45C500.069,2379.99 461.237,2285.12 451.494,2282.58L435.302,2324.56C436.147,2324.93 437.633,2326.18 473.856,2391.02C474.753,2392.66 475.704,2394.32 476.652,2396.02C479.198,2400.58 481.918,2405.47 484.787,2410.65L481.697,2428.19C481.697,2428.19 481.658,2456.33 484.787,2457.39C486.216,2457.86 487.106,2455.58 487.727,2452.76L487.733,2452.68C487.818,2452.26 487.903,2451.85 487.989,2451.43C487.991,2451.4 487.993,2451.38 487.993,2451.38C488.573,2448.32 488.857,2445.08 489.192,2444.32C489.563,2443.45 490.388,2441.71 491.559,2440.24C497.463,2458.2 495.013,2456.68 494.241,2462.44C494.027,2463.89 494.338,2465.45 494.131,2466.82C493.77,2469.15 492.239,2470.93 491.999,2472.74C491.672,2475.38 492.751,2477.63 493.222,2478.14C493.794,2478.79 494.77,2477.71 495.934,2475.54C502.727,2462.47 501.274,2451.16 502.394,2447.64C503.15,2445.27 503.737,2449.73 502.527,2456.53C502.239,2458.22 502.697,2460.5 502.007,2462.73C501.564,2464.22 500.489,2465.52 500.021,2466.98C499.589,2468.33 499.519,2469.73 499.215,2470.86C498.828,2472.35 497.534,2474.36 497.31,2475.56C496.492,2480 497.121,2482.23 497.505,2482.77C498.355,2483.87 507.589,2464.08 507.589,2464.08C507.589,2464.08 510.589,2450.21 510.809,2447.08C510.809,2447.08 511.78,2445.26 512.081,2448.97C512.122,2449.59 511.563,2452.33 511.46,2454.6C511.296,2457.74 511.579,2460.51 511.579,2460.51C511.579,2460.51 510.43,2461.67 509.173,2463.94C508.657,2464.89 508.377,2466.47 507.797,2467.53C507.187,2468.61 506.168,2469.49 505.619,2470.52C504.222,2473.2 503.763,2475.73 505.158,2476.67C506.311,2477.46 516.82,2462.71 516.82,2462.71C517.908,2448.45 526.23,2434.02 506.992,2399.45Z" style="fill:rgb(244,140,127);fill-rule:nonzero;"/>
    </g>
    <g transform="matrix(0.585119,0,0,0.585119,-64.2972,-882.43)">
        <path d="M504.541,2775.76C501.607,2760.13 504.644,2726.88 504.368,2696.18C490.611,2696.12 482.501,2720.99 468.747,2720.71C476.245,2759.59 474.195,2778.69 474.195,2778.69L473.61,2786.47L474.151,2809.42L551.854,2806.45C551.854,2806.45 535.152,2799.95 511.597,2786.65C509.855,2785.66 505.798,2782.46 504.541,2775.76Z" style="fill:rgb(247,164,145);fill-rule:nonzero;"/>
    </g>
    <g transform="matrix(0.585119,0,0,0.585119,-64.2972,-882.43)">
        <path d="M472.283,2814.44L554.234,2811.67C557.188,2811.27 557.801,2808.84 556.705,2807.41C554.449,2804.46 544.993,2802.66 534.257,2798.29C515.901,2801.05 476.742,2790.21 473.638,2786.11C472.345,2794.67 470.619,2814.16 472.283,2814.44Z" style="fill:rgb(39,22,81);fill-rule:nonzero;"/>
    </g>
    <g transform="matrix(0.585119,0,0,0.585119,-64.2972,-882.43)">
        <path d="M266.897,2770.46C273.345,2755.92 288.873,2731.33 306.054,2705.88C294.762,2698.03 279.801,2712.84 268.629,2704.81C252.761,2741.09 240.239,2755.66 240.239,2755.66L235.345,2761.74L222.778,2780.95L278.94,2809.21C278.94,2809.21 279.241,2808.73 274.611,2799.14C272.833,2795.45 269.829,2790.17 266.536,2783.42C265.659,2781.63 264.134,2776.69 266.897,2770.46Z" style="fill:rgb(247,164,145);fill-rule:nonzero;"/>
    </g>
    <g transform="matrix(0.585119,0,0,0.585119,-64.2972,-882.43)">
        <path d="M218.393,2784.03L267.818,2815.64C267.818,2815.64 292.012,2817.44 291.921,2815.64C291.733,2811.94 280.978,2808.82 274.611,2799.14C257.924,2791.01 235.805,2766.6 235.574,2761.46C229.658,2767.77 217.185,2782.85 218.393,2784.03Z" style="fill:rgb(39,22,81);fill-rule:nonzero;"/>
    </g>
    <g transform="matrix(0.585119,0,0,0.585119,-64.2972,-882.43)">
        <path d="M488.218,2354.3C482.049,2332.71 505.675,2248.78 505.675,2227.18C505.675,2205.58 477.156,2132.06 454.898,2117.86C432.642,2103.67 385.846,2115.66 385.846,2115.66L368.871,2190.09L372.646,2269.03L328.534,2448.24L312.429,2531.27L238.818,2717C238.818,2717 324.878,2774.9 407.894,2761.46C490.908,2748.02 519.539,2751.46 519.539,2751.46L537.831,2552.37L488.218,2354.3Z" style="fill:rgb(255,134,45);fill-rule:nonzero;"/>
    </g>
    <g transform="matrix(0.585119,0,0,0.585119,-64.2972,-882.43)">
        <path d="M375.181,2448.39L365.316,2448.39L365.316,2415.25C365.316,2414.27 364.522,2413.48 363.547,2413.48L309.674,2413.48C308.698,2413.48 307.904,2414.27 307.904,2415.25L307.904,2448.39L298.04,2448.39L298.04,2415.25C298.04,2408.83 303.259,2403.61 309.674,2403.61L363.547,2403.61C369.961,2403.61 375.181,2408.83 375.181,2415.25L375.181,2448.39Z" style="fill:rgb(39,22,81);fill-rule:nonzero;"/>
    </g>
    <g transform="matrix(0.585119,0,0,0.585119,-64.2972,-882.43)">
        <path d="M225.577,2528.29L235.453,2594.68L441.097,2594.68L451.631,2528.29L225.577,2528.29Z" style="fill:rgb(116,115,232);fill-rule:nonzero;"/>
    </g>
    <g transform="matrix(0.585119,0,0,0.585119,-64.2972,-882.43)">
        <path d="M455.169,2529.04L222.26,2529.04L234.027,2449.93C234.918,2443.94 240.062,2439.5 246.118,2439.5L430.526,2439.5C436.538,2439.5 441.657,2443.88 442.599,2449.81L455.169,2529.04Z" style="fill:rgb(116,115,232);fill-rule:nonzero;"/>
    </g>
    <g transform="matrix(0.585119,0,0,0.585119,-64.2972,-882.43)">
        <path d="M340.785,2514.29C337.191,2514.29 334.278,2511.38 334.278,2507.79L334.278,2460.76C334.278,2457.17 337.191,2454.25 340.785,2454.25C344.378,2454.25 347.292,2457.17 347.292,2460.76L347.292,2507.79C347.292,2511.38 344.378,2514.29 340.785,2514.29Z" style="fill:rgb(88,88,198);fill-rule:nonzero;"/>
    </g>
    <g transform="matrix(0.585119,0,0,0.585119,-64.2972,-882.43)">
        <path d="M309.433,2514.29C305.839,2514.29 302.926,2511.38 302.926,2507.79L302.926,2460.76C302.926,2457.17 305.839,2454.25 309.433,2454.25C313.027,2454.25 315.94,2457.17 315.94,2460.76L315.94,2507.79C315.94,2511.38 313.027,2514.29 309.433,2514.29Z" style="fill:rgb(88,88,198);fill-rule:nonzero;"/>
    </g>
    <g transform="matrix(0.585119,0,0,0.585119,-64.2972,-882.43)">
        <path d="M278.969,2514.29C275.375,2514.29 272.461,2511.38 272.461,2507.79L272.461,2460.76C272.461,2457.17 275.375,2454.25 278.969,2454.25C282.562,2454.25 285.475,2457.17 285.475,2460.76L285.475,2507.79C285.475,2511.38 282.562,2514.29 278.969,2514.29Z" style="fill:rgb(88,88,198);fill-rule:nonzero;"/>
    </g>
    <g transform="matrix(0.585119,0,0,0.585119,-64.2972,-882.43)">
        <path d="M398.46,2514.29C394.867,2514.29 391.954,2511.38 391.954,2507.79L391.954,2460.76C391.954,2457.17 394.867,2454.25 398.46,2454.25C402.055,2454.25 404.968,2457.17 404.968,2460.76L404.968,2507.79C404.968,2511.38 402.055,2514.29 398.46,2514.29Z" style="fill:rgb(88,88,198);fill-rule:nonzero;"/>
    </g>
    <g transform="matrix(0.585119,0,0,0.585119,-64.2972,-882.43)">
        <path d="M367.996,2514.29C364.402,2514.29 361.489,2511.38 361.489,2507.79L361.489,2460.76C361.489,2457.17 364.402,2454.25 367.996,2454.25C371.59,2454.25 374.503,2457.17 374.503,2460.76L374.503,2507.79C374.503,2511.38 371.59,2514.29 367.996,2514.29Z" style="fill:rgb(88,88,198);fill-rule:nonzero;"/>
    </g>
    <g transform="matrix(0.585119,0,0,0.585119,-64.2972,-882.43)">
        <rect x="218.054" y="2523.26" width="241.613" height="16.86" style="fill:rgb(39,22,81);"/>
    </g>
    <g transform="matrix(0.585119,0,0,0.585119,-64.2972,-882.43)">
        <path d="M352.245,2376.73C350.286,2375.44 352.375,2343.4 352.375,2343.4C352.375,2343.4 349.694,2253.13 350.041,2248.16L383.046,2188.39L337.371,2182.2C337.371,2182.2 307.412,2236.84 306.027,2242.16C304.643,2247.48 326.026,2357.49 326.545,2368.56C326.545,2368.56 319.046,2385.28 316.709,2393.78C314.373,2402.27 318.476,2410.83 318.18,2413.33C318.136,2413.7 327.449,2419.1 329.92,2418.39C337.293,2416.27 341.421,2415.67 343.153,2416.06C353.413,2418.39 350.02,2403.4 351.707,2403.46C353.394,2403.53 360.621,2403.22 360.621,2403.22C361.1,2403.22 362.76,2383.62 352.245,2376.73Z" style="fill:rgb(248,164,146);fill-rule:nonzero;"/>
    </g>
    <g transform="matrix(0.585119,0,0,0.585119,-64.2972,-882.43)">
        <path d="M385.846,2115.66C385.846,2115.66 369.752,2119.35 361.585,2127.52C353.417,2135.68 323.27,2195.07 323.27,2195.07L366.721,2224.04L379.994,2200.31C392.901,2177.23 395.958,2149.92 388.47,2124.55L385.846,2115.66Z" style="fill:rgb(226,112,35);fill-rule:nonzero;"/>
    </g>
    <g transform="matrix(0.585119,0,0,0.585119,-64.2972,-882.43)">
        <path d="M494.868,2074.3C494.868,2074.3 524.465,2016.02 495.978,1997.82C474.093,1983.84 464.407,1994.03 464.407,1994.03C464.407,1994.03 430.73,1969.44 418.204,2008.83C418.204,2008.83 392.28,2009.41 386.807,2031.65C381.334,2053.89 393.762,2063.9 393.762,2063.9C393.762,2063.9 380.152,2075.38 383.608,2092.71C387.064,2110.04 413.208,2118.35 428.474,2108.53C443.74,2098.71 441.939,2106.58 454.036,2106.58C466.135,2106.58 494.868,2074.3 494.868,2074.3Z" style="fill:rgb(233,250,255);fill-rule:nonzero;"/>
    </g>
    <g transform="matrix(0.585119,0,0,0.585119,-64.2972,-882.43)">
        <path d="M468.077,2095.41C468.077,2095.41 449.067,2131.3 455.264,2149.08C458.721,2159 418.293,2117.53 418.293,2117.53L439.367,2077.27L468.077,2095.41Z" style="fill:rgb(247,164,145);fill-rule:nonzero;"/>
    </g>
    <g transform="matrix(0.585119,0,0,0.585119,-64.2972,-882.43)">
        <path d="M435.822,2084.04C439.242,2093.61 445.025,2102.41 453.984,2108.62C456.222,2110.17 458.408,2111.4 460.536,2112.35C464.212,2102.71 468.077,2095.41 468.077,2095.41L439.367,2077.27L435.822,2084.04Z" style="fill:rgb(244,116,88);fill-rule:nonzero;"/>
    </g>
    <g transform="matrix(0.585119,0,0,0.585119,-64.2972,-882.43)">
        <path d="M458.94,2007.82C458.94,2007.82 444.759,2010.06 435.393,2022.26C426.027,2034.47 422.306,2079.1 449.814,2098.16C477.322,2117.22 496.551,2086.2 498.274,2062.15C499.998,2038.11 496.446,2005.68 458.94,2007.82Z" style="fill:rgb(247,164,145);fill-rule:nonzero;"/>
    </g>
    <g transform="matrix(0.585119,0,0,0.585119,-64.2972,-882.43)">
        <path d="M436.701,2058.86C437.924,2065.34 435.233,2071.21 430.689,2071.96C426.146,2072.71 421.471,2068.05 420.247,2061.57C419.023,2055.08 421.715,2049.22 426.258,2048.47C430.802,2047.72 435.478,2052.37 436.701,2058.86Z" style="fill:rgb(247,164,145);fill-rule:nonzero;"/>
    </g>
    <g transform="matrix(0.585119,0,0,0.585119,-64.2972,-882.43)">
        <path d="M467.545,2002.19C472.115,2006.4 465.749,2020.8 453.328,2034.37C440.906,2047.93 427.132,2055.51 422.563,2051.3C417.993,2047.09 424.358,2032.69 436.78,2019.13C449.202,2005.56 462.976,1997.98 467.545,2002.19Z" style="fill:rgb(233,250,255);fill-rule:nonzero;"/>
    </g>
</svg>
