<?xml version="1.0" encoding="UTF-8" standalone="no"?>
<!DOCTYPE svg PUBLIC "-//W3C//DTD SVG 1.1//EN" "http://www.w3.org/Graphics/SVG/1.1/DTD/svg11.dtd">
<svg width="100%" height="100%" viewBox="0 0 24 24" version="1.1" xmlns="http://www.w3.org/2000/svg" xmlns:xlink="http://www.w3.org/1999/xlink" xml:space="preserve" xmlns:serif="http://www.serif.com/" style="fill-rule:evenodd;clip-rule:evenodd;stroke-linejoin:round;stroke-miterlimit:2;">
    <g transform="matrix(0.0768948,0,0,0.0741343,0.371072,0.583635)">
        <path d="M297.658,125.357L159.503,17.28C157.142,15.432 154.102,14.415 150.941,14.415C147.781,14.415 144.741,15.433 142.381,17.279L4.226,125.357C-1.19,129.593 -0.039,134.485 0.444,135.883C0.925,137.281 3.033,141.844 9.909,141.844L37.409,141.844L37.409,274.969C37.409,281.862 43.016,287.469 49.909,287.469L114.609,287.469C121.501,287.469 127.109,281.862 127.109,274.969L127.109,215.391L174.775,215.391L174.775,274.969C174.775,281.862 180.382,287.469 187.275,287.469L251.975,287.469C258.868,287.469 264.475,281.862 264.475,274.969L264.475,141.844L291.975,141.844C298.851,141.844 300.958,137.281 301.44,135.883C301.922,134.485 303.074,129.593 297.658,125.357ZM261.975,126.844C255.082,126.844 249.475,132.451 249.475,139.344L249.475,272.469L189.775,272.469L189.775,212.891C189.775,205.998 184.168,200.391 177.275,200.391L124.609,200.391C117.716,200.391 112.109,205.998 112.109,212.891L112.109,272.469L52.409,272.469L52.409,139.344C52.409,132.451 46.801,126.844 39.909,126.844L26.669,126.844L150.941,29.627L275.213,126.844L261.975,126.844Z" style="fill:rgb(255,118,67);fill-rule:nonzero;"/>
    </g>
</svg>
